<svg width="62" height="114" viewBox="0 0 62 114" fill="none" xmlns="http://www.w3.org/2000/svg">
<path d="M37.9937 3C37.9937 8.64446 38.1614 16.4696 33.2903 20.3664C32.8457 20.7221 31.5631 22.815 31.3205 23.4216C30.4826 25.5163 28.398 26.4603 27.3005 28.3261C26.0106 30.5189 29.17 31.5307 31.1597 32.6677C35.3525 35.0635 39.17 39.951 40.2047 44.6071C40.7045 46.8563 41.9726 49.3989 42.8981 51.4813C44.5747 55.2535 43.7825 52.7412 43.7825 49.6723C43.7825 43.6913 44.4652 39.3557 47.2397 34.1149C49.6422 29.5768 53.8561 28.7045 56.9681 25.5925C56.9743 25.5863 55.6231 25.088 54.9581 24.708C53.5815 23.9214 51.9402 23.8571 50.6567 22.8588C48.6671 21.3114 46.8652 20.1527 45.0689 18.3564C43.5139 16.8014 42.2873 14.636 41.2499 12.7686C40.3778 11.1989 40.1295 7.32412 38.7173 6.61801" stroke="#0A2CA5" stroke-width="4" stroke-linecap="round"/>
</svg>
