<svg width="100" height="59" viewBox="0 0 100 59" fill="none" xmlns="http://www.w3.org/2000/svg">
<path d="M15.8418 1.44141L28.1465 28.1504L40.4023 1.44141H52.7559L28.0488 52.2715L3.53711 1.44141H15.8418Z" fill="#0A2CA5"/>
<path d="M33.9336 1.44141H44.9199V5.83594C47.0358 3.6224 48.8424 2.125 50.3398 1.34375C51.9349 0.529948 53.9368 0.123047 56.3457 0.123047C61.7168 0.123047 65.9648 2.4668 69.0898 7.1543C72.5404 2.4668 77.2116 0.123047 83.1035 0.123047C93.8132 0.123047 99.168 6.61719 99.168 19.6055V49H88.1328V22.584C88.1328 18.0267 87.5794 14.804 86.4727 12.916C85.3333 10.9954 83.4616 10.0352 80.8574 10.0352C77.8301 10.0352 75.6165 11.1745 74.2168 13.4531C72.8496 15.7318 72.166 19.3939 72.166 24.4395V49H61.1309V22.7305C61.1309 14.2669 58.6895 10.0352 53.8066 10.0352C50.7142 10.0352 48.4518 11.1908 47.0195 13.502C45.6198 15.8132 44.9199 19.459 44.9199 24.4395V49H33.9336V1.44141Z" fill="#0A2CA5"/>
<path d="M68.4531 42.5703L63.6191 33.4883C66.5488 32.056 68.0137 30.2819 68.0137 28.166C68.0137 27.1569 67.6719 26.2943 66.9883 25.5781C66.3372 24.862 65.4909 24.5039 64.4492 24.5039C62.6263 24.5039 60.8197 26.6198 59.0293 30.8516C56.5228 36.6784 54.2116 40.6009 52.0957 42.6191C49.9798 44.6374 47.1315 45.6465 43.5508 45.6465C38.9609 45.6465 35.1198 43.9538 32.0273 40.5684C29.0977 37.2806 27.6328 33.3092 27.6328 28.6543C27.6328 20.679 31.5228 15.0312 39.3027 11.7109L43.6484 21.0859C41.3698 22.388 39.9212 23.3809 39.3027 24.0645C38.0658 25.3991 37.4473 26.9941 37.4473 28.8496C37.4473 32.5605 39.14 34.416 42.5254 34.416C44.4785 34.416 46.3014 32.9837 47.9941 30.1191C48.5475 29.0124 49.0846 27.9056 49.6055 26.7988C50.1263 25.6921 50.6634 24.569 51.2168 23.4297C52.7793 20.2396 54.3418 17.9935 55.9043 16.6914C57.89 15.0312 60.4453 14.2012 63.5703 14.2012C67.7044 14.2012 71.1224 15.6172 73.8242 18.4492C76.526 21.3464 77.877 24.862 77.877 28.9961C77.877 35.0833 74.7357 39.6081 68.4531 42.5703Z" fill="#0A2CA5"/>
</svg>
