<svg width="174" height="153" viewBox="0 0 174 153" fill="none" xmlns="http://www.w3.org/2000/svg">
<g clip-path="url(#clip0_238_1253)">
<path d="M1.32031 0.687866C10.828 0.687866 16.5987 0.763361 24.9274 4.465C33.3065 8.18907 40.134 15.3728 47.4853 19.5735C60.6589 27.1013 63.6822 45.6786 67.3152 58.394C69.0163 64.3481 69.67 73.8654 69.3087 80.0076C69.1423 82.8364 58.1863 81.8962 61.02 81.8962C64.3495 81.8962 67.1041 79.7668 71.1972 80.0076C73.5324 80.145 71.7395 88.2612 70.253 89.4505C67.0721 91.9951 69.318 94.0763 65.1119 89.8701C62.7212 87.4795 60.6206 84.1353 66.3709 85.7782C66.8012 85.9012 65.5315 91.3553 65.5315 83.7848" stroke="#0A2CA5" stroke-width="3" stroke-linecap="round"/>
<path d="M55.725 112.675C55.3917 113.358 54.8917 113.883 54.225 114.25C53.575 114.6 52.7583 114.775 51.775 114.775C51.5583 114.775 51.2083 114.733 50.725 114.65C50.2417 114.567 49.75 114.392 49.25 114.125C48.75 113.842 48.3083 113.458 47.925 112.975C47.5583 112.475 47.375 111.808 47.375 110.975C47.375 110.242 47.4833 109.542 47.7 108.875C47.9167 108.192 48.2917 107.542 48.825 106.925C49.175 106.525 49.4833 106.2 49.75 105.95C50.0167 105.683 50.275 105.483 50.525 105.35C50.7917 105.217 51.075 105.125 51.375 105.075C51.6917 105.025 52.075 105 52.525 105C53.025 105 53.4167 105.033 53.7 105.1C53.9833 105.15 54.2 105.225 54.35 105.325C54.5 105.408 54.5917 105.517 54.625 105.65C54.675 105.767 54.7 105.9 54.7 106.05C54.7 106.617 54.3667 106.9 53.7 106.9C53.7167 106.9 53.675 106.892 53.575 106.875C53.475 106.842 53.35 106.808 53.2 106.775C53.05 106.725 52.8917 106.692 52.725 106.675C52.5583 106.642 52.4083 106.625 52.275 106.625C51.7917 106.625 51.2583 106.858 50.675 107.325C50.1083 107.775 49.6583 108.483 49.325 109.45C49.225 109.733 49.15 109.992 49.1 110.225C49.0667 110.442 49.05 110.625 49.05 110.775C49.05 111.308 49.1917 111.742 49.475 112.075C49.775 112.392 50.1083 112.642 50.475 112.825C50.8583 112.992 51.2167 113.108 51.55 113.175C51.8833 113.225 52.0917 113.25 52.175 113.25C52.4583 113.25 52.7333 113.175 53 113.025C53.2833 112.875 53.5333 112.717 53.75 112.55C53.9667 112.367 54.1417 112.2 54.275 112.05C54.425 111.9 54.5 111.825 54.5 111.825C54.6333 111.708 54.7833 111.65 54.95 111.65C55.1667 111.65 55.35 111.75 55.5 111.95C55.65 112.15 55.725 112.35 55.725 112.55V112.675ZM67.4689 112.5C67.7023 112.65 67.8189 112.833 67.8189 113.05C67.8189 113.283 67.7023 113.508 67.4689 113.725C67.2356 113.942 67.0106 114.05 66.7939 114.05C66.2773 113.867 65.8273 113.525 65.4439 113.025C65.0773 112.525 64.8273 111.983 64.6939 111.4C64.5773 111.65 64.4356 111.967 64.2689 112.35C64.1189 112.717 63.9189 113.067 63.6689 113.4C63.4189 113.733 63.1106 114.025 62.7439 114.275C62.3773 114.508 61.9189 114.625 61.3689 114.625C61.0856 114.625 60.7106 114.575 60.2439 114.475C59.7273 114.108 59.3189 113.817 59.0189 113.6C58.7356 113.367 58.5189 113.15 58.3689 112.95C58.2189 112.75 58.1273 112.525 58.0939 112.275C58.0606 112.025 58.0439 111.692 58.0439 111.275C58.0439 110.925 58.0939 110.542 58.1939 110.125C58.3106 109.692 58.4689 109.258 58.6689 108.825C58.8689 108.392 59.1189 107.967 59.4189 107.55C59.7189 107.133 60.0689 106.75 60.4689 106.4C61.2023 106.15 61.7773 105.967 62.1939 105.85C62.6106 105.733 62.8939 105.675 63.0439 105.675C63.3773 105.292 63.7273 105.1 64.0939 105.1C64.2939 105.1 64.4689 105.217 64.6189 105.45C64.7689 105.683 64.9023 105.992 65.0189 106.375C65.1523 106.742 65.2523 107.15 65.3189 107.6C65.4023 108.05 65.4689 108.483 65.5189 108.9C65.5689 108.983 65.6106 109.083 65.6439 109.2C65.6773 109.3 65.7106 109.433 65.7439 109.6L65.8939 110.3C65.9939 110.783 66.1856 111.2 66.4689 111.55C66.7523 111.9 67.0856 112.217 67.4689 112.5ZM63.9439 109.2C63.9106 109.05 63.8523 108.8 63.7689 108.45C63.6856 108.1 63.5773 107.65 63.4439 107.1C63.2439 107.15 63.0273 107.175 62.7939 107.175C62.5606 107.158 62.3106 107.2 62.0439 107.3C61.7773 107.4 61.4856 107.583 61.1689 107.85C60.8689 108.117 60.5606 108.533 60.2439 109.1C59.8439 109.833 59.6439 110.608 59.6439 111.425C59.7439 111.642 59.8356 111.833 59.9189 112C60.0023 112.15 60.1023 112.292 60.2189 112.425C60.3523 112.542 60.5106 112.658 60.6939 112.775C60.8773 112.892 61.1106 113.017 61.3939 113.15C61.6439 113.1 61.8523 113.042 62.0189 112.975C62.2023 112.908 62.3606 112.808 62.4939 112.675C62.6273 112.525 62.7523 112.342 62.8689 112.125C62.9856 111.908 63.1273 111.625 63.2939 111.275C63.7273 110.308 63.9439 109.617 63.9439 109.2ZM84.5395 113.75C84.5395 114.1 84.2728 114.275 83.7395 114.275C83.4895 114.275 83.2978 114.167 83.1645 113.95C83.0478 113.733 82.9645 113.458 82.9145 113.125C82.8645 112.792 82.8311 112.425 82.8145 112.025C82.8145 111.608 82.8061 111.208 82.7895 110.825C82.7061 110.525 82.6061 110.008 82.4895 109.275C82.2728 108.975 81.9978 108.733 81.6645 108.55C81.3478 108.35 80.9895 108.25 80.5895 108.25C80.4395 108.25 80.2728 108.275 80.0895 108.325C79.9061 108.358 79.7145 108.408 79.5145 108.475C79.3145 108.525 79.1228 108.592 78.9395 108.675C78.7561 108.758 78.6061 108.85 78.4895 108.95C78.1561 109.217 77.8728 109.858 77.6395 110.875C77.6561 110.958 77.6645 111.117 77.6645 111.35C77.6645 111.55 77.6478 111.792 77.6145 112.075C77.5978 112.342 77.5728 112.65 77.5395 113V113.175C77.5395 113.225 77.5395 113.367 77.5395 113.6C77.5561 113.833 77.5395 114.083 77.4895 114.35C77.4395 114.6 77.3478 114.825 77.2145 115.025C77.0811 115.242 76.8811 115.35 76.6145 115.35C76.0645 115.35 75.7895 115.142 75.7895 114.725C75.7895 114.675 75.7978 114.542 75.8145 114.325C75.8478 114.092 75.8811 113.833 75.9145 113.55C75.9645 113.267 75.9978 112.983 76.0145 112.7C76.0478 112.4 76.0645 112.158 76.0645 111.975C76.0645 111.625 76.0395 111.308 75.9895 111.025V110.55C75.9895 110.25 75.9645 109.933 75.9145 109.6C75.8811 109.267 75.8145 108.958 75.7145 108.675C75.6145 108.375 75.4728 108.117 75.2895 107.9C75.1228 107.683 74.9061 107.525 74.6395 107.425C74.6061 107.408 74.3311 107.375 73.8145 107.325C73.3811 107.425 73.0145 107.7 72.7145 108.15L72.1145 109.325C72.0645 109.642 72.0228 109.925 71.9895 110.175C71.9728 110.425 71.9561 110.658 71.9395 110.875L71.8645 112.025C71.9645 112.608 72.0145 113.092 72.0145 113.475C72.0145 113.808 71.9728 114.083 71.8895 114.3C71.8061 114.5 71.5811 114.6 71.2145 114.6C71.0311 114.6 70.8811 114.583 70.7645 114.55C70.6478 114.5 70.5478 114.375 70.4645 114.175C70.3978 113.975 70.3478 113.675 70.3145 113.275C70.2811 112.875 70.2645 112.317 70.2645 111.6C70.2645 111.033 70.2978 110.475 70.3645 109.925C70.4478 109.358 70.5561 108.65 70.6895 107.8C70.6395 107.3 70.5145 106.817 70.3145 106.35C70.3145 106.133 70.3895 105.942 70.5395 105.775C70.7061 105.608 70.9228 105.525 71.1895 105.525C71.4061 105.525 71.5811 105.6 71.7145 105.75C71.8645 105.9 72.0645 106.192 72.3145 106.625C72.6478 106.292 72.9311 106.05 73.1645 105.9C73.4145 105.75 73.6728 105.658 73.9395 105.625C74.2061 105.625 74.4145 105.633 74.5645 105.65C74.7311 105.65 74.8811 105.675 75.0145 105.725C75.1645 105.758 75.3228 105.833 75.4895 105.95C75.6561 106.05 75.8895 106.2 76.1895 106.4C76.4895 106.617 76.7978 107.225 77.1145 108.225C77.1978 108.108 77.3228 107.958 77.4895 107.775C77.6728 107.592 77.8978 107.417 78.1645 107.25C78.4311 107.083 78.7561 106.942 79.1395 106.825C79.5228 106.708 79.9645 106.65 80.4645 106.65C80.9978 106.65 81.4561 106.7 81.8395 106.8C82.2228 106.9 82.5561 107.05 82.8395 107.25C83.1228 107.45 83.3645 107.7 83.5645 108C83.7811 108.3 83.9811 108.65 84.1645 109.05V109.25C84.1645 109.4 84.1811 109.658 84.2145 110.025C84.2478 110.392 84.2811 110.758 84.3145 111.125C84.3478 111.475 84.3811 111.783 84.4145 112.05C84.4478 112.317 84.4645 112.433 84.4645 112.4C84.4645 112.417 84.4645 112.475 84.4645 112.575C84.4811 112.658 84.4895 112.767 84.4895 112.9C84.5061 113.017 84.5145 113.142 84.5145 113.275C84.5311 113.408 84.5395 113.517 84.5395 113.6V113.75ZM96.9523 114C96.419 114.533 95.794 114.992 95.0773 115.375C94.3607 115.758 93.6273 115.95 92.8773 115.95C92.5607 115.95 91.8357 115.833 90.7023 115.6C90.4023 115.4 90.0857 115.15 89.7523 114.85C89.419 114.55 89.1107 114.208 88.8273 113.825C88.5607 113.425 88.3357 113.008 88.1523 112.575C87.9857 112.125 87.9023 111.658 87.9023 111.175V111.2C87.919 111.05 87.9357 110.875 87.9523 110.675C87.969 110.492 87.9857 110.283 88.0023 110.05C88.019 109.8 88.044 109.508 88.0773 109.175C88.4107 108.642 88.7523 108.117 89.1023 107.6C89.469 107.083 90.0023 106.625 90.7023 106.225C91.769 105.975 92.569 105.85 93.1023 105.85C93.3523 105.85 93.569 105.867 93.7523 105.9C93.9523 105.917 94.1357 105.975 94.3023 106.075C94.4857 106.158 94.6607 106.275 94.8273 106.425C95.0107 106.575 95.2273 106.775 95.4773 107.025C95.6607 107.225 95.8023 107.375 95.9023 107.475C96.0023 107.558 96.0773 107.625 96.1273 107.675C96.1773 107.725 96.2023 107.767 96.2023 107.8C96.2023 107.833 96.2023 107.883 96.2023 107.95C96.2023 108.55 96.1357 109.033 96.0023 109.4C95.8857 109.767 95.6523 110.067 95.3023 110.3C94.969 110.533 94.5023 110.742 93.9023 110.925C93.3023 111.092 92.5273 111.283 91.5773 111.5H91.4273C91.1273 111.5 90.594 111.567 89.8273 111.7C90.4273 113.467 91.3857 114.35 92.7023 114.35C93.6357 114.35 94.694 113.875 95.8773 112.925C95.994 112.825 96.144 112.775 96.3273 112.775C96.844 112.775 97.1023 113.025 97.1023 113.525C97.1023 113.692 97.0523 113.85 96.9523 114ZM94.5523 108.4C94.1023 107.65 93.594 107.275 93.0273 107.275C92.7773 107.275 92.5107 107.308 92.2273 107.375C91.944 107.442 91.669 107.533 91.4023 107.65C91.1523 107.767 90.9107 107.908 90.6773 108.075C90.4607 108.242 90.2773 108.433 90.1273 108.65C90.0607 108.783 89.994 108.975 89.9273 109.225C89.8773 109.475 89.8107 109.775 89.7273 110.125C90.1773 110.042 90.669 109.983 91.2023 109.95C91.7523 109.917 92.269 109.85 92.7523 109.75C93.2523 109.65 93.669 109.5 94.0023 109.3C94.3357 109.1 94.519 108.8 94.5523 108.4ZM103.266 101.675C103.249 101.858 103.216 102.083 103.166 102.35C103.116 102.617 103.057 102.892 102.991 103.175C102.924 103.442 102.857 103.7 102.791 103.95C102.741 104.2 102.699 104.4 102.666 104.55C102.682 104.633 102.691 104.708 102.691 104.775C102.691 104.842 102.691 104.917 102.691 105C102.691 105.133 102.674 105.308 102.641 105.525C102.607 105.742 102.566 105.967 102.516 106.2C102.466 106.433 102.424 106.658 102.391 106.875C102.357 107.075 102.341 107.233 102.341 107.35C102.341 107.517 102.341 107.758 102.341 108.075C102.357 108.392 102.366 108.742 102.366 109.125C102.366 109.492 102.349 109.875 102.316 110.275C102.282 110.675 102.224 111.033 102.141 111.35C102.157 111.55 102.166 111.75 102.166 111.95C102.166 112.15 102.182 112.367 102.216 112.6C102.266 112.817 102.341 113.058 102.441 113.325C102.557 113.592 102.741 113.875 102.991 114.175C102.941 114.358 102.782 114.533 102.516 114.7C102.266 114.85 102.007 114.925 101.741 114.925C101.391 114.925 101.099 114.733 100.866 114.35C100.649 113.95 100.541 113.225 100.541 112.175C100.541 111.992 100.549 111.833 100.566 111.7C100.599 111.55 100.616 111.375 100.616 111.175C100.616 110.758 100.566 110.258 100.466 109.675C100.532 109.508 100.582 109.275 100.616 108.975C100.666 108.675 100.699 108.383 100.716 108.1C100.732 107.8 100.741 107.55 100.741 107.35C100.757 107.133 100.766 107.033 100.766 107.05C100.766 107.033 100.782 106.9 100.816 106.65C100.866 106.4 100.916 106.1 100.966 105.75C101.016 105.4 101.057 105.05 101.091 104.7C101.141 104.333 101.166 104.042 101.166 103.825V103.625C101.216 103.325 101.274 102.992 101.341 102.625C101.407 102.258 101.482 101.858 101.566 101.425C101.716 101.175 101.966 101.05 102.316 101.05C102.749 101.05 103.066 101.258 103.266 101.675ZM117.452 111.725C117.419 111.908 117.302 112.142 117.102 112.425C116.902 112.692 116.661 112.967 116.377 113.25C116.094 113.517 115.786 113.767 115.452 114C115.136 114.233 114.836 114.392 114.552 114.475C113.669 114.875 112.652 115.075 111.502 115.075C111.169 115.075 110.877 115.067 110.627 115.05C110.377 115.05 110.127 115.008 109.877 114.925C109.644 114.842 109.402 114.708 109.152 114.525C108.902 114.342 108.619 114.075 108.302 113.725C107.952 113.358 107.677 113 107.477 112.65C107.277 112.283 107.119 111.942 107.002 111.625C106.902 111.292 106.836 110.975 106.802 110.675C106.786 110.375 106.777 110.1 106.777 109.85C106.777 109.283 106.852 108.608 107.002 107.825C107.152 107.042 107.519 106.1 108.102 105C108.569 104.133 108.811 103.683 108.827 103.65L110.352 102.7C110.886 102.367 111.394 102.108 111.877 101.925C112.377 101.725 112.919 101.625 113.502 101.625C113.802 101.625 114.136 101.642 114.502 101.675C114.869 101.708 115.269 101.758 115.702 101.825C116.136 101.908 116.352 102.192 116.352 102.675C116.352 103.125 116.077 103.383 115.527 103.45C115.494 103.45 115.377 103.442 115.177 103.425C114.977 103.408 114.752 103.392 114.502 103.375C114.269 103.342 114.027 103.317 113.777 103.3C113.544 103.283 113.377 103.275 113.277 103.275C112.844 103.275 112.369 103.417 111.852 103.7C111.336 103.967 110.677 104.45 109.877 105.15C109.877 105.15 109.686 105.55 109.302 106.35C109.119 106.733 108.986 107.05 108.902 107.3C108.819 107.533 108.777 107.717 108.777 107.85C108.611 108.167 108.527 108.658 108.527 109.325C108.527 110.708 108.777 111.733 109.277 112.4C109.794 113.067 110.527 113.4 111.477 113.4C112.127 113.4 112.977 113.25 114.027 112.95C114.761 112.5 115.386 111.842 115.902 110.975C116.102 110.775 116.319 110.675 116.552 110.675C116.786 110.675 116.994 110.775 117.177 110.975C117.361 111.158 117.452 111.367 117.452 111.6V111.725ZM129.749 112.5C129.983 112.65 130.099 112.833 130.099 113.05C130.099 113.283 129.983 113.508 129.749 113.725C129.516 113.942 129.291 114.05 129.074 114.05C128.558 113.867 128.108 113.525 127.724 113.025C127.358 112.525 127.108 111.983 126.974 111.4C126.858 111.65 126.716 111.967 126.549 112.35C126.399 112.717 126.199 113.067 125.949 113.4C125.699 113.733 125.391 114.025 125.024 114.275C124.658 114.508 124.199 114.625 123.649 114.625C123.366 114.625 122.991 114.575 122.524 114.475C122.008 114.108 121.599 113.817 121.299 113.6C121.016 113.367 120.799 113.15 120.649 112.95C120.499 112.75 120.408 112.525 120.374 112.275C120.341 112.025 120.324 111.692 120.324 111.275C120.324 110.925 120.374 110.542 120.474 110.125C120.591 109.692 120.749 109.258 120.949 108.825C121.149 108.392 121.399 107.967 121.699 107.55C121.999 107.133 122.349 106.75 122.749 106.4C123.483 106.15 124.058 105.967 124.474 105.85C124.891 105.733 125.174 105.675 125.324 105.675C125.658 105.292 126.008 105.1 126.374 105.1C126.574 105.1 126.749 105.217 126.899 105.45C127.049 105.683 127.183 105.992 127.299 106.375C127.433 106.742 127.533 107.15 127.599 107.6C127.683 108.05 127.749 108.483 127.799 108.9C127.849 108.983 127.891 109.083 127.924 109.2C127.958 109.3 127.991 109.433 128.024 109.6L128.174 110.3C128.274 110.783 128.466 111.2 128.749 111.55C129.033 111.9 129.366 112.217 129.749 112.5ZM126.224 109.2C126.191 109.05 126.133 108.8 126.049 108.45C125.966 108.1 125.858 107.65 125.724 107.1C125.524 107.15 125.308 107.175 125.074 107.175C124.841 107.158 124.591 107.2 124.324 107.3C124.058 107.4 123.766 107.583 123.449 107.85C123.149 108.117 122.841 108.533 122.524 109.1C122.124 109.833 121.924 110.608 121.924 111.425C122.024 111.642 122.116 111.833 122.199 112C122.283 112.15 122.383 112.292 122.499 112.425C122.633 112.542 122.791 112.658 122.974 112.775C123.158 112.892 123.391 113.017 123.674 113.15C123.924 113.1 124.133 113.042 124.299 112.975C124.483 112.908 124.641 112.808 124.774 112.675C124.908 112.525 125.033 112.342 125.149 112.125C125.266 111.908 125.408 111.625 125.574 111.275C126.008 110.308 126.224 109.617 126.224 109.2ZM138.945 112.275C138.895 112.758 138.72 113.217 138.42 113.65L137.52 114.925C137.37 115.058 137.136 115.167 136.82 115.25C136.503 115.35 136.178 115.425 135.845 115.475C135.528 115.542 135.236 115.592 134.97 115.625C134.72 115.658 134.586 115.675 134.57 115.675C134.403 115.675 134.186 115.642 133.92 115.575C133.67 115.525 133.42 115.467 133.17 115.4C132.92 115.333 132.703 115.267 132.52 115.2C132.336 115.15 132.236 115.125 132.22 115.125H132.195C132.011 115.108 131.811 115.067 131.595 115C131.395 114.933 131.195 114.85 130.995 114.75C130.811 114.65 130.661 114.542 130.545 114.425C130.411 114.292 130.345 114.15 130.345 114C130.345 113.817 130.436 113.633 130.62 113.45C130.803 113.25 130.986 113.15 131.17 113.15C132.853 113.817 134.195 114.15 135.195 114.15C135.561 114.15 135.87 114.075 136.12 113.925C136.386 113.775 136.586 113.617 136.72 113.45L137.245 112.5C137.245 112.283 137.178 112.067 137.045 111.85C136.928 111.633 136.761 111.442 136.545 111.275C136.345 111.092 136.111 110.933 135.845 110.8C135.578 110.667 135.303 110.575 135.02 110.525C134.703 110.475 134.378 110.383 134.045 110.25C133.728 110.117 133.428 109.958 133.145 109.775C132.878 109.592 132.653 109.392 132.47 109.175C132.303 108.942 132.211 108.692 132.195 108.425C132.178 108.425 132.161 108.108 132.145 107.475C132.178 107.225 132.211 107.025 132.245 106.875C132.278 106.725 132.353 106.592 132.47 106.475C132.586 106.342 132.761 106.2 132.995 106.05C133.245 105.9 133.595 105.683 134.045 105.4C134.178 105.383 134.42 105.367 134.77 105.35C135.136 105.317 135.628 105.267 136.245 105.2C136.511 105.2 137.195 105.4 138.295 105.8C138.461 105.95 138.545 106.175 138.545 106.475C138.545 106.992 138.37 107.25 138.02 107.25C138.003 107.25 137.986 107.25 137.97 107.25C137.953 107.233 137.928 107.225 137.895 107.225L136.995 106.925C136.545 106.792 136.161 106.725 135.845 106.725C135.378 106.725 135.003 106.75 134.72 106.8C134.453 106.85 134.253 106.917 134.12 107C133.986 107.067 133.895 107.142 133.845 107.225C133.795 107.308 133.761 107.383 133.745 107.45C133.745 107.5 133.736 107.55 133.72 107.6C133.72 107.633 133.72 107.675 133.72 107.725C133.72 108.375 133.986 108.775 134.52 108.925C137.153 109.458 138.628 110.575 138.945 112.275ZM150.859 114C150.325 114.533 149.7 114.992 148.984 115.375C148.267 115.758 147.534 115.95 146.784 115.95C146.467 115.95 145.742 115.833 144.609 115.6C144.309 115.4 143.992 115.15 143.659 114.85C143.325 114.55 143.017 114.208 142.734 113.825C142.467 113.425 142.242 113.008 142.059 112.575C141.892 112.125 141.809 111.658 141.809 111.175V111.2C141.825 111.05 141.842 110.875 141.859 110.675C141.875 110.492 141.892 110.283 141.909 110.05C141.925 109.8 141.95 109.508 141.984 109.175C142.317 108.642 142.659 108.117 143.009 107.6C143.375 107.083 143.909 106.625 144.609 106.225C145.675 105.975 146.475 105.85 147.009 105.85C147.259 105.85 147.475 105.867 147.659 105.9C147.859 105.917 148.042 105.975 148.209 106.075C148.392 106.158 148.567 106.275 148.734 106.425C148.917 106.575 149.134 106.775 149.384 107.025C149.567 107.225 149.709 107.375 149.809 107.475C149.909 107.558 149.984 107.625 150.034 107.675C150.084 107.725 150.109 107.767 150.109 107.8C150.109 107.833 150.109 107.883 150.109 107.95C150.109 108.55 150.042 109.033 149.909 109.4C149.792 109.767 149.559 110.067 149.209 110.3C148.875 110.533 148.409 110.742 147.809 110.925C147.209 111.092 146.434 111.283 145.484 111.5H145.334C145.034 111.5 144.5 111.567 143.734 111.7C144.334 113.467 145.292 114.35 146.609 114.35C147.542 114.35 148.6 113.875 149.784 112.925C149.9 112.825 150.05 112.775 150.234 112.775C150.75 112.775 151.009 113.025 151.009 113.525C151.009 113.692 150.959 113.85 150.859 114ZM148.459 108.4C148.009 107.65 147.5 107.275 146.934 107.275C146.684 107.275 146.417 107.308 146.134 107.375C145.85 107.442 145.575 107.533 145.309 107.65C145.059 107.767 144.817 107.908 144.584 108.075C144.367 108.242 144.184 108.433 144.034 108.65C143.967 108.783 143.9 108.975 143.834 109.225C143.784 109.475 143.717 109.775 143.634 110.125C144.084 110.042 144.575 109.983 145.109 109.95C145.659 109.917 146.175 109.85 146.659 109.75C147.159 109.65 147.575 109.5 147.909 109.3C148.242 109.1 148.425 108.8 148.459 108.4Z" fill="#0A2CA5"/>
<path d="M54.35 138.275C54.3 138.758 54.125 139.217 53.825 139.65L52.925 140.925C52.775 141.058 52.5417 141.167 52.225 141.25C51.9083 141.35 51.5833 141.425 51.25 141.475C50.9333 141.542 50.6417 141.592 50.375 141.625C50.125 141.658 49.9917 141.675 49.975 141.675C49.8083 141.675 49.5917 141.642 49.325 141.575C49.075 141.525 48.825 141.467 48.575 141.4C48.325 141.333 48.1083 141.267 47.925 141.2C47.7417 141.15 47.6417 141.125 47.625 141.125H47.6C47.4167 141.108 47.2167 141.067 47 141C46.8 140.933 46.6 140.85 46.4 140.75C46.2167 140.65 46.0667 140.542 45.95 140.425C45.8167 140.292 45.75 140.15 45.75 140C45.75 139.817 45.8417 139.633 46.025 139.45C46.2083 139.25 46.3917 139.15 46.575 139.15C48.2583 139.817 49.6 140.15 50.6 140.15C50.9667 140.15 51.275 140.075 51.525 139.925C51.7917 139.775 51.9917 139.617 52.125 139.45L52.65 138.5C52.65 138.283 52.5833 138.067 52.45 137.85C52.3333 137.633 52.1667 137.442 51.95 137.275C51.75 137.092 51.5167 136.933 51.25 136.8C50.9833 136.667 50.7083 136.575 50.425 136.525C50.1083 136.475 49.7833 136.383 49.45 136.25C49.1333 136.117 48.8333 135.958 48.55 135.775C48.2833 135.592 48.0583 135.392 47.875 135.175C47.7083 134.942 47.6167 134.692 47.6 134.425C47.5833 134.425 47.5667 134.108 47.55 133.475C47.5833 133.225 47.6167 133.025 47.65 132.875C47.6833 132.725 47.7583 132.592 47.875 132.475C47.9917 132.342 48.1667 132.2 48.4 132.05C48.65 131.9 49 131.683 49.45 131.4C49.5833 131.383 49.825 131.367 50.175 131.35C50.5417 131.317 51.0333 131.267 51.65 131.2C51.9167 131.2 52.6 131.4 53.7 131.8C53.8667 131.95 53.95 132.175 53.95 132.475C53.95 132.992 53.775 133.25 53.425 133.25C53.4083 133.25 53.3917 133.25 53.375 133.25C53.3583 133.233 53.3333 133.225 53.3 133.225L52.4 132.925C51.95 132.792 51.5667 132.725 51.25 132.725C50.7833 132.725 50.4083 132.75 50.125 132.8C49.8583 132.85 49.6583 132.917 49.525 133C49.3917 133.067 49.3 133.142 49.25 133.225C49.2 133.308 49.1667 133.383 49.15 133.45C49.15 133.5 49.1417 133.55 49.125 133.6C49.125 133.633 49.125 133.675 49.125 133.725C49.125 134.375 49.3917 134.775 49.925 134.925C52.5583 135.458 54.0333 136.575 54.35 138.275ZM65.6889 138.35V138.55C65.6889 138.633 65.6889 138.8 65.6889 139.05C65.7055 139.283 65.6889 139.525 65.6389 139.775C65.5889 140.025 65.4972 140.25 65.3639 140.45C65.2472 140.65 65.0555 140.75 64.7889 140.75C64.3055 140.75 64.0139 140.558 63.9139 140.175C63.9305 140.042 63.9389 139.9 63.9389 139.75C63.9555 139.583 63.9639 139.408 63.9639 139.225C63.9639 138.908 63.9472 138.55 63.9139 138.15C63.8972 137.75 63.8722 137.308 63.8389 136.825L63.6389 135.625C63.5722 135.225 63.4639 134.917 63.3139 134.7C63.1639 134.467 62.9972 134.3 62.8139 134.2C62.6305 134.083 62.4389 134.017 62.2389 134C62.0555 133.967 61.8972 133.95 61.7639 133.95C61.2639 133.95 60.8389 134.1 60.4889 134.4C60.1389 134.683 59.8472 135.25 59.6139 136.1C59.5972 136.383 59.5722 136.692 59.5389 137.025C59.5222 137.358 59.4805 137.725 59.4139 138.125C59.4472 138.725 59.4972 139.492 59.5639 140.425C59.5639 140.942 59.2722 141.2 58.6889 141.2C58.4555 141.2 58.2722 141.133 58.1389 141C58.0222 140.867 57.9305 140.7 57.8639 140.5C57.8139 140.283 57.7805 140.058 57.7639 139.825C57.7472 139.592 57.7389 139.375 57.7389 139.175C57.7389 138.992 57.7472 138.808 57.7639 138.625C57.7805 138.442 57.8055 138.25 57.8389 138.05L58.0639 135.475C58.0805 135.292 58.1055 135.092 58.1389 134.875C58.1889 134.658 58.2472 134.417 58.3139 134.15C58.2639 133.783 58.1139 133.35 57.8639 132.85V132.75C57.8639 132.567 57.9472 132.392 58.1139 132.225C58.2972 132.058 58.5055 131.975 58.7389 131.975C58.9722 131.975 59.1639 132.058 59.3139 132.225C59.4639 132.375 59.6555 132.633 59.8889 133C60.0222 132.883 60.2389 132.775 60.5389 132.675C60.8555 132.558 61.2139 132.5 61.6139 132.5C62.5139 132.5 63.2889 132.692 63.9389 133.075C64.5889 133.458 65.0055 134.142 65.1889 135.125C65.2389 135.508 65.2805 135.825 65.3139 136.075C65.3472 136.308 65.3805 136.533 65.4139 136.75C65.4639 136.95 65.5055 137.175 65.5389 137.425C65.5889 137.658 65.6389 137.967 65.6889 138.35ZM78.4797 138.5C78.713 138.65 78.8297 138.833 78.8297 139.05C78.8297 139.283 78.713 139.508 78.4797 139.725C78.2464 139.942 78.0214 140.05 77.8047 140.05C77.288 139.867 76.838 139.525 76.4547 139.025C76.088 138.525 75.838 137.983 75.7047 137.4C75.588 137.65 75.4464 137.967 75.2797 138.35C75.1297 138.717 74.9297 139.067 74.6797 139.4C74.4297 139.733 74.1214 140.025 73.7547 140.275C73.388 140.508 72.9297 140.625 72.3797 140.625C72.0964 140.625 71.7214 140.575 71.2547 140.475C70.738 140.108 70.3297 139.817 70.0297 139.6C69.7464 139.367 69.5297 139.15 69.3797 138.95C69.2297 138.75 69.138 138.525 69.1047 138.275C69.0714 138.025 69.0547 137.692 69.0547 137.275C69.0547 136.925 69.1047 136.542 69.2047 136.125C69.3214 135.692 69.4797 135.258 69.6797 134.825C69.8797 134.392 70.1297 133.967 70.4297 133.55C70.7297 133.133 71.0797 132.75 71.4797 132.4C72.213 132.15 72.788 131.967 73.2047 131.85C73.6214 131.733 73.9047 131.675 74.0547 131.675C74.388 131.292 74.738 131.1 75.1047 131.1C75.3047 131.1 75.4797 131.217 75.6297 131.45C75.7797 131.683 75.913 131.992 76.0297 132.375C76.163 132.742 76.263 133.15 76.3297 133.6C76.413 134.05 76.4797 134.483 76.5297 134.9C76.5797 134.983 76.6214 135.083 76.6547 135.2C76.688 135.3 76.7214 135.433 76.7547 135.6L76.9047 136.3C77.0047 136.783 77.1964 137.2 77.4797 137.55C77.763 137.9 78.0964 138.217 78.4797 138.5ZM74.9547 135.2C74.9214 135.05 74.863 134.8 74.7797 134.45C74.6964 134.1 74.588 133.65 74.4547 133.1C74.2547 133.15 74.038 133.175 73.8047 133.175C73.5714 133.158 73.3214 133.2 73.0547 133.3C72.788 133.4 72.4964 133.583 72.1797 133.85C71.8797 134.117 71.5714 134.533 71.2547 135.1C70.8547 135.833 70.6547 136.608 70.6547 137.425C70.7547 137.642 70.8464 137.833 70.9297 138C71.013 138.15 71.113 138.292 71.2297 138.425C71.363 138.542 71.5214 138.658 71.7047 138.775C71.888 138.892 72.1214 139.017 72.4047 139.15C72.6547 139.1 72.863 139.042 73.0297 138.975C73.213 138.908 73.3714 138.808 73.5047 138.675C73.638 138.525 73.763 138.342 73.8797 138.125C73.9964 137.908 74.138 137.625 74.3047 137.275C74.738 136.308 74.9547 135.617 74.9547 135.2ZM88.9752 139.15C88.9919 139.2 89.0002 139.292 89.0002 139.425C89.0002 139.992 88.7419 140.275 88.2252 140.275C88.0252 140.275 87.8252 140.167 87.6252 139.95C87.4252 139.717 87.2085 139.433 86.9752 139.1C86.7419 138.75 86.4669 138.375 86.1502 137.975C85.8335 137.558 85.4585 137.158 85.0252 136.775C84.6419 136.525 84.1919 136.2 83.6752 135.8L83.0752 136.1C83.0752 136.2 83.0669 136.333 83.0502 136.5C83.0335 136.667 83.0085 136.842 82.9752 137.025C82.9585 137.192 82.9419 137.367 82.9252 137.55C82.9085 137.717 82.9002 137.85 82.9002 137.95C82.9002 138.133 82.9002 138.233 82.9002 138.25C82.9002 138.267 82.9002 138.267 82.9002 138.25C82.9002 138.217 82.9002 138.2 82.9002 138.2C82.9002 138.2 82.9085 138.275 82.9252 138.425C82.9419 138.575 82.9585 138.842 82.9752 139.225C82.9919 139.592 83.0169 140.133 83.0502 140.85C83.0502 141.25 82.7585 141.45 82.1752 141.45C81.7919 141.45 81.5502 141.25 81.4502 140.85C81.3502 140.433 81.3002 139.8 81.3002 138.95C81.3002 138.25 81.3252 137.625 81.3752 137.075C81.4252 136.525 81.4502 136.042 81.4502 135.625V134.9C81.4502 134.8 81.4585 134.65 81.4752 134.45C81.5085 134.233 81.5419 134.008 81.5752 133.775C81.6085 133.525 81.6335 133.283 81.6502 133.05C81.6835 132.817 81.7002 132.617 81.7002 132.45V132.15C81.7002 132.1 81.7252 131.875 81.7752 131.475C81.8252 131.058 81.8919 130.575 81.9752 130.025C82.0752 129.475 82.1919 128.917 82.3252 128.35C82.4585 127.783 82.6085 127.333 82.7752 127C82.8419 126.833 83.0252 126.75 83.3252 126.75C83.8752 126.75 84.1502 126.958 84.1502 127.375C84.1502 127.525 84.1252 127.742 84.0752 128.025C84.0252 128.308 83.9419 128.65 83.8252 129.05C83.7085 129.633 83.6252 130.142 83.5752 130.575C83.5252 130.992 83.5002 131.317 83.5002 131.55C83.4669 131.733 83.4169 132.058 83.3502 132.525C83.3002 132.992 83.2335 133.6 83.1502 134.35C83.3335 134.233 83.5335 134.083 83.7502 133.9C83.9835 133.7 84.2585 133.475 84.5752 133.225C84.9085 132.975 85.3002 132.7 85.7502 132.4C86.2169 132.1 86.7835 131.783 87.4502 131.45H87.5752C87.7585 131.45 87.9419 131.525 88.1252 131.675C88.3085 131.825 88.4002 132.008 88.4002 132.225C88.4002 132.358 88.3669 132.475 88.3002 132.575C88.2502 132.658 88.1419 132.75 87.9752 132.85C87.8252 132.95 87.6002 133.083 87.3002 133.25C87.0002 133.417 86.6085 133.642 86.1252 133.925C86.1085 133.958 86.0335 134.025 85.9002 134.125C85.7835 134.208 85.6502 134.3 85.5002 134.4C85.3669 134.5 85.2335 134.592 85.1002 134.675C84.9835 134.742 84.9169 134.783 84.9002 134.8C85.1002 134.883 85.2502 134.958 85.3502 135.025C85.4669 135.092 85.6002 135.208 85.7502 135.375C85.9169 135.542 86.1502 135.792 86.4502 136.125C86.7669 136.442 87.2419 136.9 87.8752 137.5C88.0252 137.7 88.1919 137.942 88.3752 138.225C88.5585 138.492 88.7585 138.8 88.9752 139.15ZM100.444 140C99.9102 140.533 99.2852 140.992 98.5686 141.375C97.8519 141.758 97.1186 141.95 96.3686 141.95C96.0519 141.95 95.3269 141.833 94.1936 141.6C93.8936 141.4 93.5769 141.15 93.2436 140.85C92.9102 140.55 92.6019 140.208 92.3186 139.825C92.0519 139.425 91.8269 139.008 91.6436 138.575C91.4769 138.125 91.3936 137.658 91.3936 137.175V137.2C91.4102 137.05 91.4269 136.875 91.4436 136.675C91.4602 136.492 91.4769 136.283 91.4936 136.05C91.5102 135.8 91.5352 135.508 91.5686 135.175C91.9019 134.642 92.2436 134.117 92.5936 133.6C92.9602 133.083 93.4936 132.625 94.1936 132.225C95.2602 131.975 96.0602 131.85 96.5936 131.85C96.8436 131.85 97.0602 131.867 97.2436 131.9C97.4436 131.917 97.6269 131.975 97.7936 132.075C97.9769 132.158 98.1519 132.275 98.3186 132.425C98.5019 132.575 98.7186 132.775 98.9686 133.025C99.1519 133.225 99.2936 133.375 99.3936 133.475C99.4936 133.558 99.5686 133.625 99.6186 133.675C99.6686 133.725 99.6936 133.767 99.6936 133.8C99.6936 133.833 99.6936 133.883 99.6936 133.95C99.6936 134.55 99.6269 135.033 99.4936 135.4C99.3769 135.767 99.1436 136.067 98.7936 136.3C98.4602 136.533 97.9936 136.742 97.3936 136.925C96.7936 137.092 96.0186 137.283 95.0686 137.5H94.9186C94.6186 137.5 94.0852 137.567 93.3186 137.7C93.9186 139.467 94.8769 140.35 96.1936 140.35C97.1269 140.35 98.1852 139.875 99.3686 138.925C99.4852 138.825 99.6352 138.775 99.8186 138.775C100.335 138.775 100.594 139.025 100.594 139.525C100.594 139.692 100.544 139.85 100.444 140ZM98.0436 134.4C97.5936 133.65 97.0852 133.275 96.5186 133.275C96.2686 133.275 96.0019 133.308 95.7186 133.375C95.4352 133.442 95.1602 133.533 94.8936 133.65C94.6436 133.767 94.4019 133.908 94.1686 134.075C93.9519 134.242 93.7686 134.433 93.6186 134.65C93.5519 134.783 93.4852 134.975 93.4186 135.225C93.3686 135.475 93.3019 135.775 93.2186 136.125C93.6686 136.042 94.1602 135.983 94.6936 135.95C95.2436 135.917 95.7602 135.85 96.2436 135.75C96.7436 135.65 97.1602 135.5 97.4936 135.3C97.8269 135.1 98.0102 134.8 98.0436 134.4ZM110.632 145.1C110.449 145.15 110.215 145.175 109.932 145.175C109.832 145.175 109.657 145.167 109.407 145.15C109.174 145.133 108.924 145.117 108.657 145.1C108.39 145.083 108.14 145.067 107.907 145.05C107.674 145.033 107.515 145.025 107.432 145.025C107.432 145.042 107.249 145.033 106.882 145C106.532 144.983 105.99 144.975 105.257 144.975C104.724 144.975 104.407 145.025 104.307 145.125L101.857 145.275C101.257 145.225 100.957 144.967 100.957 144.5C100.957 144.183 101.132 143.883 101.482 143.6C101.699 143.55 102.549 143.5 104.032 143.45C104.115 143.45 104.207 143.45 104.307 143.45C104.424 143.467 104.549 143.475 104.682 143.475C105.349 143.475 106.249 143.45 107.382 143.4L110.507 143.6C110.807 143.75 110.957 144 110.957 144.35C110.957 144.633 110.849 144.883 110.632 145.1ZM122.14 137.725C122.107 137.908 121.99 138.142 121.79 138.425C121.59 138.692 121.348 138.967 121.065 139.25C120.782 139.517 120.473 139.767 120.14 140C119.823 140.233 119.523 140.392 119.24 140.475C118.357 140.875 117.34 141.075 116.19 141.075C115.857 141.075 115.565 141.067 115.315 141.05C115.065 141.05 114.815 141.008 114.565 140.925C114.332 140.842 114.09 140.708 113.84 140.525C113.59 140.342 113.307 140.075 112.99 139.725C112.64 139.358 112.365 139 112.165 138.65C111.965 138.283 111.807 137.942 111.69 137.625C111.59 137.292 111.523 136.975 111.49 136.675C111.473 136.375 111.465 136.1 111.465 135.85C111.465 135.283 111.54 134.608 111.69 133.825C111.84 133.042 112.207 132.1 112.79 131C113.257 130.133 113.498 129.683 113.515 129.65L115.04 128.7C115.573 128.367 116.082 128.108 116.565 127.925C117.065 127.725 117.607 127.625 118.19 127.625C118.49 127.625 118.823 127.642 119.19 127.675C119.557 127.708 119.957 127.758 120.39 127.825C120.823 127.908 121.04 128.192 121.04 128.675C121.04 129.125 120.765 129.383 120.215 129.45C120.182 129.45 120.065 129.442 119.865 129.425C119.665 129.408 119.44 129.392 119.19 129.375C118.957 129.342 118.715 129.317 118.465 129.3C118.232 129.283 118.065 129.275 117.965 129.275C117.532 129.275 117.057 129.417 116.54 129.7C116.023 129.967 115.365 130.45 114.565 131.15C114.565 131.15 114.373 131.55 113.99 132.35C113.807 132.733 113.673 133.05 113.59 133.3C113.507 133.533 113.465 133.717 113.465 133.85C113.298 134.167 113.215 134.658 113.215 135.325C113.215 136.708 113.465 137.733 113.965 138.4C114.482 139.067 115.215 139.4 116.165 139.4C116.815 139.4 117.665 139.25 118.715 138.95C119.448 138.5 120.073 137.842 120.59 136.975C120.79 136.775 121.007 136.675 121.24 136.675C121.473 136.675 121.682 136.775 121.865 136.975C122.048 137.158 122.14 137.367 122.14 137.6V137.725ZM134.437 138.5C134.67 138.65 134.787 138.833 134.787 139.05C134.787 139.283 134.67 139.508 134.437 139.725C134.203 139.942 133.978 140.05 133.762 140.05C133.245 139.867 132.795 139.525 132.412 139.025C132.045 138.525 131.795 137.983 131.662 137.4C131.545 137.65 131.403 137.967 131.237 138.35C131.087 138.717 130.887 139.067 130.637 139.4C130.387 139.733 130.078 140.025 129.712 140.275C129.345 140.508 128.887 140.625 128.337 140.625C128.053 140.625 127.678 140.575 127.212 140.475C126.695 140.108 126.287 139.817 125.987 139.6C125.703 139.367 125.487 139.15 125.337 138.95C125.187 138.75 125.095 138.525 125.062 138.275C125.028 138.025 125.012 137.692 125.012 137.275C125.012 136.925 125.062 136.542 125.162 136.125C125.278 135.692 125.437 135.258 125.637 134.825C125.837 134.392 126.087 133.967 126.387 133.55C126.687 133.133 127.037 132.75 127.437 132.4C128.17 132.15 128.745 131.967 129.162 131.85C129.578 131.733 129.862 131.675 130.012 131.675C130.345 131.292 130.695 131.1 131.062 131.1C131.262 131.1 131.437 131.217 131.587 131.45C131.737 131.683 131.87 131.992 131.987 132.375C132.12 132.742 132.22 133.15 132.287 133.6C132.37 134.05 132.437 134.483 132.487 134.9C132.537 134.983 132.578 135.083 132.612 135.2C132.645 135.3 132.678 135.433 132.712 135.6L132.862 136.3C132.962 136.783 133.153 137.2 133.437 137.55C133.72 137.9 134.053 138.217 134.437 138.5ZM130.912 135.2C130.878 135.05 130.82 134.8 130.737 134.45C130.653 134.1 130.545 133.65 130.412 133.1C130.212 133.15 129.995 133.175 129.762 133.175C129.528 133.158 129.278 133.2 129.012 133.3C128.745 133.4 128.453 133.583 128.137 133.85C127.837 134.117 127.528 134.533 127.212 135.1C126.812 135.833 126.612 136.608 126.612 137.425C126.712 137.642 126.803 137.833 126.887 138C126.97 138.15 127.07 138.292 127.187 138.425C127.32 138.542 127.478 138.658 127.662 138.775C127.845 138.892 128.078 139.017 128.362 139.15C128.612 139.1 128.82 139.042 128.987 138.975C129.17 138.908 129.328 138.808 129.462 138.675C129.595 138.525 129.72 138.342 129.837 138.125C129.953 137.908 130.095 137.625 130.262 137.275C130.695 136.308 130.912 135.617 130.912 135.2ZM143.632 138.275C143.582 138.758 143.407 139.217 143.107 139.65L142.207 140.925C142.057 141.058 141.824 141.167 141.507 141.25C141.191 141.35 140.866 141.425 140.532 141.475C140.216 141.542 139.924 141.592 139.657 141.625C139.407 141.658 139.274 141.675 139.257 141.675C139.091 141.675 138.874 141.642 138.607 141.575C138.357 141.525 138.107 141.467 137.857 141.4C137.607 141.333 137.391 141.267 137.207 141.2C137.024 141.15 136.924 141.125 136.907 141.125H136.882C136.699 141.108 136.499 141.067 136.282 141C136.082 140.933 135.882 140.85 135.682 140.75C135.499 140.65 135.349 140.542 135.232 140.425C135.099 140.292 135.032 140.15 135.032 140C135.032 139.817 135.124 139.633 135.307 139.45C135.491 139.25 135.674 139.15 135.857 139.15C137.541 139.817 138.882 140.15 139.882 140.15C140.249 140.15 140.557 140.075 140.807 139.925C141.074 139.775 141.274 139.617 141.407 139.45L141.932 138.5C141.932 138.283 141.866 138.067 141.732 137.85C141.616 137.633 141.449 137.442 141.232 137.275C141.032 137.092 140.799 136.933 140.532 136.8C140.266 136.667 139.991 136.575 139.707 136.525C139.391 136.475 139.066 136.383 138.732 136.25C138.416 136.117 138.116 135.958 137.832 135.775C137.566 135.592 137.341 135.392 137.157 135.175C136.991 134.942 136.899 134.692 136.882 134.425C136.866 134.425 136.849 134.108 136.832 133.475C136.866 133.225 136.899 133.025 136.932 132.875C136.966 132.725 137.041 132.592 137.157 132.475C137.274 132.342 137.449 132.2 137.682 132.05C137.932 131.9 138.282 131.683 138.732 131.4C138.866 131.383 139.107 131.367 139.457 131.35C139.824 131.317 140.316 131.267 140.932 131.2C141.199 131.2 141.882 131.4 142.982 131.8C143.149 131.95 143.232 132.175 143.232 132.475C143.232 132.992 143.057 133.25 142.707 133.25C142.691 133.25 142.674 133.25 142.657 133.25C142.641 133.233 142.616 133.225 142.582 133.225L141.682 132.925C141.232 132.792 140.849 132.725 140.532 132.725C140.066 132.725 139.691 132.75 139.407 132.8C139.141 132.85 138.941 132.917 138.807 133C138.674 133.067 138.582 133.142 138.532 133.225C138.482 133.308 138.449 133.383 138.432 133.45C138.432 133.5 138.424 133.55 138.407 133.6C138.407 133.633 138.407 133.675 138.407 133.725C138.407 134.375 138.674 134.775 139.207 134.925C141.841 135.458 143.316 136.575 143.632 138.275ZM155.546 140C155.013 140.533 154.388 140.992 153.671 141.375C152.954 141.758 152.221 141.95 151.471 141.95C151.154 141.95 150.429 141.833 149.296 141.6C148.996 141.4 148.679 141.15 148.346 140.85C148.013 140.55 147.704 140.208 147.421 139.825C147.154 139.425 146.929 139.008 146.746 138.575C146.579 138.125 146.496 137.658 146.496 137.175V137.2C146.513 137.05 146.529 136.875 146.546 136.675C146.563 136.492 146.579 136.283 146.596 136.05C146.613 135.8 146.638 135.508 146.671 135.175C147.004 134.642 147.346 134.117 147.696 133.6C148.063 133.083 148.596 132.625 149.296 132.225C150.363 131.975 151.163 131.85 151.696 131.85C151.946 131.85 152.163 131.867 152.346 131.9C152.546 131.917 152.729 131.975 152.896 132.075C153.079 132.158 153.254 132.275 153.421 132.425C153.604 132.575 153.821 132.775 154.071 133.025C154.254 133.225 154.396 133.375 154.496 133.475C154.596 133.558 154.671 133.625 154.721 133.675C154.771 133.725 154.796 133.767 154.796 133.8C154.796 133.833 154.796 133.883 154.796 133.95C154.796 134.55 154.729 135.033 154.596 135.4C154.479 135.767 154.246 136.067 153.896 136.3C153.563 136.533 153.096 136.742 152.496 136.925C151.896 137.092 151.121 137.283 150.171 137.5H150.021C149.721 137.5 149.188 137.567 148.421 137.7C149.021 139.467 149.979 140.35 151.296 140.35C152.229 140.35 153.288 139.875 154.471 138.925C154.588 138.825 154.738 138.775 154.921 138.775C155.438 138.775 155.696 139.025 155.696 139.525C155.696 139.692 155.646 139.85 155.546 140ZM153.146 134.4C152.696 133.65 152.188 133.275 151.621 133.275C151.371 133.275 151.104 133.308 150.821 133.375C150.538 133.442 150.263 133.533 149.996 133.65C149.746 133.767 149.504 133.908 149.271 134.075C149.054 134.242 148.871 134.433 148.721 134.65C148.654 134.783 148.588 134.975 148.521 135.225C148.471 135.475 148.404 135.775 148.321 136.125C148.771 136.042 149.263 135.983 149.796 135.95C150.346 135.917 150.863 135.85 151.346 135.75C151.846 135.65 152.263 135.5 152.596 135.3C152.929 135.1 153.113 134.8 153.146 134.4Z" fill="#0A2CA5"/>
</g>
<defs>
<clipPath id="clip0_238_1253">
<rect width="174" height="153" fill="white"/>
</clipPath>
</defs>
</svg>
