<svg width="832" height="237" viewBox="0 0 832 237" fill="none" xmlns="http://www.w3.org/2000/svg">
<path d="M30.6152 117.077V163H13.5498V49.9141H32.8857C42.3584 49.9141 49.5117 50.5732 54.3457 51.8916C59.2285 53.21 63.5254 55.7002 67.2363 59.3623C73.7305 65.71 76.9775 73.7178 76.9775 83.3857C76.9775 93.7373 73.5107 101.94 66.5771 107.995C59.6436 114.05 50.293 117.077 38.5254 117.077H30.6152ZM30.6152 101.257H36.9873C52.6611 101.257 60.498 95.2266 60.498 83.166C60.498 71.4961 52.417 65.6611 36.2549 65.6611H30.6152V101.257ZM88.916 105.944C88.916 90.0264 94.751 76.3545 106.421 64.9287C118.042 53.5029 132.007 47.79 148.315 47.79C164.429 47.79 178.247 53.5518 189.771 65.0752C201.343 76.5986 207.129 90.4414 207.129 106.604C207.129 122.863 201.318 136.657 189.697 147.985C178.027 159.362 163.94 165.051 147.437 165.051C132.837 165.051 119.727 159.997 108.105 149.89C95.3125 138.708 88.916 124.06 88.916 105.944ZM106.128 106.164C106.128 118.664 110.327 128.942 118.726 136.999C127.075 145.056 136.719 149.084 147.656 149.084C159.521 149.084 169.531 144.982 177.686 136.779C185.84 128.479 189.917 118.371 189.917 106.457C189.917 94.3965 185.889 84.2891 177.832 76.1348C169.824 67.9316 159.912 63.8301 148.096 63.8301C136.328 63.8301 126.392 67.9316 118.286 76.1348C110.181 84.2402 106.128 94.25 106.128 106.164ZM266.895 114.807L301.904 163H281.03L248.73 116.711H245.654V163H228.589V49.9141H248.584C263.525 49.9141 274.316 52.7217 280.957 58.3369C288.281 64.5869 291.943 72.8389 291.943 83.0928C291.943 91.1006 289.648 97.9854 285.059 103.747C280.469 109.509 274.414 113.195 266.895 114.807ZM245.654 101.843H251.074C267.236 101.843 275.317 95.666 275.317 83.3125C275.317 71.7402 267.456 65.9541 251.733 65.9541H245.654V101.843ZM348.853 65.9541V163H331.787V65.9541H305.786V49.9141H374.78V65.9541H348.853ZM446.484 65.9541H407.08V93.127H445.093V109.167H407.08V163H390.015V49.9141H446.484V65.9541ZM460.84 105.944C460.84 90.0264 466.675 76.3545 478.345 64.9287C489.966 53.5029 503.931 47.79 520.239 47.79C536.353 47.79 550.171 53.5518 561.694 65.0752C573.267 76.5986 579.053 90.4414 579.053 106.604C579.053 122.863 573.242 136.657 561.621 147.985C549.951 159.362 535.864 165.051 519.36 165.051C504.761 165.051 491.65 159.997 480.029 149.89C467.236 138.708 460.84 124.06 460.84 105.944ZM478.052 106.164C478.052 118.664 482.251 128.942 490.649 136.999C498.999 145.056 508.643 149.084 519.58 149.084C531.445 149.084 541.455 144.982 549.609 136.779C557.764 128.479 561.841 118.371 561.841 106.457C561.841 94.3965 557.812 84.2891 549.756 76.1348C541.748 67.9316 531.836 63.8301 520.02 63.8301C508.252 63.8301 498.315 67.9316 490.21 76.1348C482.104 84.2402 478.052 94.25 478.052 106.164ZM617.578 49.9141V146.96H650.83V163H600.513V49.9141H617.578ZM684.082 49.9141V163H667.017V49.9141H684.082ZM705.615 105.944C705.615 90.0264 711.45 76.3545 723.12 64.9287C734.741 53.5029 748.706 47.79 765.015 47.79C781.128 47.79 794.946 53.5518 806.47 65.0752C818.042 76.5986 823.828 90.4414 823.828 106.604C823.828 122.863 818.018 136.657 806.396 147.985C794.727 159.362 780.64 165.051 764.136 165.051C749.536 165.051 736.426 159.997 724.805 149.89C712.012 138.708 705.615 124.06 705.615 105.944ZM722.827 106.164C722.827 118.664 727.026 128.942 735.425 136.999C743.774 145.056 753.418 149.084 764.355 149.084C776.221 149.084 786.23 144.982 794.385 136.779C802.539 128.479 806.616 118.371 806.616 106.457C806.616 94.3965 802.588 84.2891 794.531 76.1348C786.523 67.9316 776.611 63.8301 764.795 63.8301C753.027 63.8301 743.091 67.9316 734.985 76.1348C726.88 84.2402 722.827 94.25 722.827 106.164Z" fill="black"/>
<path d="M144.4 100.425C144.317 100.458 144.233 100.492 144.15 100.525C144.067 100.542 143.975 100.55 143.875 100.55H143.775H143.15C143.033 100.55 142.917 100.55 142.8 100.55C142.7 100.533 142.583 100.525 142.45 100.525C142.317 100.525 142.183 100.533 142.05 100.55C141.917 100.55 141.775 100.55 141.625 100.55C141.442 100.55 141.192 100.508 140.875 100.425C140.558 100.325 140.158 100.275 139.675 100.275C139.575 100.275 139.475 100.283 139.375 100.3C139.275 100.3 139.167 100.3 139.05 100.3C138.933 100.3 138.258 100.192 137.025 99.975C136.675 99.6083 136.5 99.25 136.5 98.9C136.5 98.6167 136.558 98.325 136.675 98.025C137.042 97.6917 137.333 97.4 137.55 97.15C137.767 96.9 137.925 96.6917 138.025 96.525C138.358 96.025 138.692 95.575 139.025 95.175C139.375 94.7583 139.717 94.3583 140.05 93.975C140.117 93.925 140.2 93.825 140.3 93.675C140.417 93.5083 140.542 93.3333 140.675 93.15C140.808 92.9667 140.942 92.7833 141.075 92.6C141.208 92.4 141.325 92.2417 141.425 92.125C141.858 91.6417 142.075 91.1083 142.075 90.525C142.075 89.9583 141.783 89.675 141.2 89.675C141 89.675 140.775 89.7083 140.525 89.775C140.275 89.825 140.033 89.9 139.8 90C139.583 90.1 139.375 90.2167 139.175 90.35C138.975 90.4833 138.825 90.625 138.725 90.775C138.658 90.9083 138.567 91.0917 138.45 91.325C138.35 91.5583 138.225 91.8 138.075 92.05C137.925 92.2833 137.758 92.4917 137.575 92.675C137.392 92.8417 137.192 92.925 136.975 92.925C136.658 92.925 136.375 92.8083 136.125 92.575C135.875 92.3417 135.75 92.05 135.75 91.7C135.75 91.5333 135.817 91.2917 135.95 90.975C136.1 90.6583 136.275 90.3417 136.475 90.025C136.692 89.6917 136.917 89.3917 137.15 89.125C137.4 88.8583 137.625 88.6833 137.825 88.6C138.908 87.9667 140.133 87.65 141.5 87.65C142.033 87.65 142.475 87.7333 142.825 87.9C143.192 88.0667 143.483 88.2833 143.7 88.55C143.917 88.8167 144.067 89.125 144.15 89.475C144.25 89.825 144.3 90.1833 144.3 90.55C144.3 91.6 143.983 92.475 143.35 93.175C143.167 93.375 143 93.5833 142.85 93.8C142.7 94.0167 142.558 94.225 142.425 94.425C142.308 94.6083 142.2 94.7833 142.1 94.95C142 95.1 141.925 95.2083 141.875 95.275C141.692 95.375 141.117 96.1 140.15 97.45L139.5 98.1C140.067 98.1 140.542 98.1333 140.925 98.2C141.325 98.25 141.525 98.2583 141.525 98.225C141.808 98.225 142.15 98.225 142.55 98.225C142.967 98.2083 143.442 98.2 143.975 98.2C144.208 98.2 144.4 98.35 144.55 98.65C144.717 98.9333 144.8 99.2417 144.8 99.575C144.8 100.025 144.667 100.308 144.4 100.425ZM158.887 93.875C158.853 94.2417 158.77 94.6667 158.637 95.15C158.503 95.6167 158.345 96.0917 158.162 96.575C157.995 97.0417 157.803 97.4833 157.587 97.9C157.387 98.3167 157.187 98.65 156.987 98.9L155.512 99.925C154.878 100.275 154.228 100.45 153.562 100.45C152.878 100.45 152.245 100.275 151.662 99.925C151.095 99.5583 150.595 99.0833 150.162 98.5C149.745 97.9 149.412 97.2333 149.162 96.5C148.928 95.75 148.812 94.9833 148.812 94.2C148.812 93.3 148.995 92.4667 149.362 91.7C149.745 90.9333 150.387 90.175 151.287 89.425C151.72 89.0583 152.137 88.7833 152.537 88.6C152.937 88.4167 153.303 88.2917 153.637 88.225C153.987 88.1417 154.295 88.1 154.562 88.1C154.828 88.0833 155.053 88.075 155.237 88.075C155.87 88.075 156.403 88.175 156.837 88.375C157.27 88.575 157.628 88.9 157.912 89.35C158.195 89.8 158.412 90.4 158.562 91.15C158.712 91.8833 158.82 92.7917 158.887 93.875ZM156.362 95.3C156.578 94.7 156.687 94.05 156.687 93.35C156.687 92.9833 156.653 92.6167 156.587 92.25C156.52 91.8667 156.42 91.525 156.287 91.225C156.153 90.925 155.978 90.6833 155.762 90.5C155.562 90.3 155.328 90.2 155.062 90.2C154.595 90.2 154.12 90.2833 153.637 90.45C153.17 90.6167 152.745 90.8667 152.362 91.2C151.995 91.5167 151.695 91.925 151.462 92.425C151.228 92.9083 151.112 93.475 151.112 94.125C151.128 94.325 151.137 94.5417 151.137 94.775C151.153 95.0083 151.195 95.2583 151.262 95.525L151.512 96.55C152.128 97.6667 152.828 98.225 153.612 98.225C154.178 98.225 154.695 97.9667 155.162 97.45C155.645 96.9167 156.045 96.2 156.362 95.3Z" fill="#0A2CA5"/>
<path d="M144.4 122.425C144.317 122.458 144.233 122.492 144.15 122.525C144.067 122.542 143.975 122.55 143.875 122.55H143.775H143.15C143.033 122.55 142.917 122.55 142.8 122.55C142.7 122.533 142.583 122.525 142.45 122.525C142.317 122.525 142.183 122.533 142.05 122.55C141.917 122.55 141.775 122.55 141.625 122.55C141.442 122.55 141.192 122.508 140.875 122.425C140.558 122.325 140.158 122.275 139.675 122.275C139.575 122.275 139.475 122.283 139.375 122.3C139.275 122.3 139.167 122.3 139.05 122.3C138.933 122.3 138.258 122.192 137.025 121.975C136.675 121.608 136.5 121.25 136.5 120.9C136.5 120.617 136.558 120.325 136.675 120.025C137.042 119.692 137.333 119.4 137.55 119.15C137.767 118.9 137.925 118.692 138.025 118.525C138.358 118.025 138.692 117.575 139.025 117.175C139.375 116.758 139.717 116.358 140.05 115.975C140.117 115.925 140.2 115.825 140.3 115.675C140.417 115.508 140.542 115.333 140.675 115.15C140.808 114.967 140.942 114.783 141.075 114.6C141.208 114.4 141.325 114.242 141.425 114.125C141.858 113.642 142.075 113.108 142.075 112.525C142.075 111.958 141.783 111.675 141.2 111.675C141 111.675 140.775 111.708 140.525 111.775C140.275 111.825 140.033 111.9 139.8 112C139.583 112.1 139.375 112.217 139.175 112.35C138.975 112.483 138.825 112.625 138.725 112.775C138.658 112.908 138.567 113.092 138.45 113.325C138.35 113.558 138.225 113.8 138.075 114.05C137.925 114.283 137.758 114.492 137.575 114.675C137.392 114.842 137.192 114.925 136.975 114.925C136.658 114.925 136.375 114.808 136.125 114.575C135.875 114.342 135.75 114.05 135.75 113.7C135.75 113.533 135.817 113.292 135.95 112.975C136.1 112.658 136.275 112.342 136.475 112.025C136.692 111.692 136.917 111.392 137.15 111.125C137.4 110.858 137.625 110.683 137.825 110.6C138.908 109.967 140.133 109.65 141.5 109.65C142.033 109.65 142.475 109.733 142.825 109.9C143.192 110.067 143.483 110.283 143.7 110.55C143.917 110.817 144.067 111.125 144.15 111.475C144.25 111.825 144.3 112.183 144.3 112.55C144.3 113.6 143.983 114.475 143.35 115.175C143.167 115.375 143 115.583 142.85 115.8C142.7 116.017 142.558 116.225 142.425 116.425C142.308 116.608 142.2 116.783 142.1 116.95C142 117.1 141.925 117.208 141.875 117.275C141.692 117.375 141.117 118.1 140.15 119.45L139.5 120.1C140.067 120.1 140.542 120.133 140.925 120.2C141.325 120.25 141.525 120.258 141.525 120.225C141.808 120.225 142.15 120.225 142.55 120.225C142.967 120.208 143.442 120.2 143.975 120.2C144.208 120.2 144.4 120.35 144.55 120.65C144.717 120.933 144.8 121.242 144.8 121.575C144.8 122.025 144.667 122.308 144.4 122.425ZM156.137 122.8C155.887 123.117 155.528 123.408 155.062 123.675C154.595 123.942 154.087 124.175 153.537 124.375C153.003 124.575 152.47 124.725 151.937 124.825C151.403 124.942 150.937 125 150.537 125C149.97 125 149.57 124.9 149.337 124.7C149.103 124.517 148.987 124.233 148.987 123.85C148.987 123.55 149.078 123.325 149.262 123.175C149.445 123.025 149.678 122.917 149.962 122.85C150.245 122.783 150.553 122.75 150.887 122.75C151.22 122.733 151.537 122.708 151.837 122.675C152.353 122.575 152.845 122.383 153.312 122.1C153.778 121.8 154.187 121.483 154.537 121.15C154.887 120.8 155.162 120.458 155.362 120.125C155.578 119.792 155.687 119.525 155.687 119.325C155.737 118.858 155.762 118.533 155.762 118.35C155.762 117.767 155.612 117.358 155.312 117.125C155.028 116.875 154.62 116.75 154.087 116.75C153.703 116.75 153.012 116.875 152.012 117.125C151.412 116.975 151.112 116.508 151.112 115.725C151.162 115.642 151.287 115.533 151.487 115.4C151.687 115.25 151.912 115.1 152.162 114.95C152.412 114.783 152.653 114.625 152.887 114.475C153.137 114.325 153.32 114.183 153.437 114.05C154.07 113.333 154.378 112.733 154.362 112.25C154.345 111.967 154.22 111.758 153.987 111.625C153.753 111.492 153.437 111.425 153.037 111.425C152.903 111.425 152.778 111.425 152.662 111.425C152.545 111.425 152.42 111.45 152.287 111.5C152.17 111.55 152.02 111.633 151.837 111.75C151.67 111.85 151.462 112.008 151.212 112.225C150.862 112.525 150.603 112.783 150.437 113C150.27 113.2 150.128 113.367 150.012 113.5C149.912 113.633 149.803 113.733 149.687 113.8C149.587 113.85 149.42 113.875 149.187 113.875C148.503 113.875 148.162 113.475 148.162 112.675C148.162 112.425 148.262 112.142 148.462 111.825C148.678 111.508 148.937 111.2 149.237 110.9C149.553 110.6 149.887 110.325 150.237 110.075C150.603 109.808 150.937 109.592 151.237 109.425C151.687 109.258 152.262 109.175 152.962 109.175C153.312 109.175 153.595 109.175 153.812 109.175C154.028 109.158 154.212 109.167 154.362 109.2C154.512 109.217 154.653 109.258 154.787 109.325C154.937 109.392 155.128 109.5 155.362 109.65C155.678 109.833 155.928 110.033 156.112 110.25C156.295 110.45 156.428 110.675 156.512 110.925C156.595 111.158 156.645 111.4 156.662 111.65C156.678 111.9 156.687 112.15 156.687 112.4C156.687 112.6 156.62 112.883 156.487 113.25C156.353 113.6 156.095 114.117 155.712 114.8C156.228 115 156.653 115.225 156.987 115.475C157.32 115.708 157.57 115.967 157.737 116.25C157.92 116.517 158.045 116.808 158.112 117.125C158.178 117.442 158.212 117.775 158.212 118.125C158.212 119.508 157.52 121.067 156.137 122.8Z" fill="#0A2CA5"/>
<path d="M311.575 213.175C311.542 214.125 311.375 215.117 311.075 216.15C310.775 217.183 310.408 218.183 309.975 219.15C309.558 220.117 309.117 221 308.65 221.8C308.2 222.6 307.808 223.242 307.475 223.725C306.958 224.558 306.508 225.117 306.125 225.4C305.358 225.35 304.85 225.175 304.6 224.875C303.967 224.075 303.45 223.1 303.05 221.95C302.833 221.667 302.633 221.383 302.45 221.1C302.283 220.817 302.142 220.533 302.025 220.25L301.2 218.225C300.483 216.658 300.083 215.375 300 214.375C300 214.092 300.117 213.825 300.35 213.575C300.583 213.308 300.875 213.175 301.225 213.175C301.658 213.175 301.967 213.392 302.15 213.825C302.333 214.258 302.525 214.8 302.725 215.45C302.942 216.15 303.125 216.725 303.275 217.175C303.442 217.608 303.592 217.992 303.725 218.325C303.875 218.642 304.017 218.942 304.15 219.225C304.283 219.492 304.442 219.8 304.625 220.15C304.875 220.683 305.083 221.125 305.25 221.475C305.417 221.825 305.567 222.092 305.7 222.275C305.967 221.908 306.267 221.417 306.6 220.8C306.933 220.167 307.258 219.517 307.575 218.85C307.892 218.167 308.167 217.525 308.4 216.925C308.65 216.308 308.817 215.825 308.9 215.475C309 215.075 309.108 214.633 309.225 214.15C309.342 213.667 309.5 213.142 309.7 212.575C309.85 212.508 310.058 212.475 310.325 212.475C310.942 212.475 311.358 212.708 311.575 213.175ZM318.299 214.225C318.333 214.358 318.349 214.483 318.349 214.6C318.349 215.133 318.191 215.583 317.874 215.95C317.374 216.15 316.874 216.25 316.374 216.25C316.058 216.05 315.791 215.825 315.574 215.575C315.374 215.308 315.274 215.05 315.274 214.8C315.274 214.583 315.524 214.05 316.024 213.2C316.241 213.233 316.466 213.258 316.699 213.275C316.949 213.292 317.174 213.333 317.374 213.4C317.591 213.467 317.774 213.567 317.924 213.7C318.091 213.817 318.216 213.992 318.299 214.225ZM317.499 218.4V218.725C317.499 218.808 317.499 218.9 317.499 219C317.499 219.1 317.483 219.192 317.449 219.275L317.249 220.4V220.625C317.249 220.725 317.241 220.858 317.224 221.025C317.208 221.192 317.183 221.358 317.149 221.525C317.133 221.692 317.116 221.85 317.099 222C317.083 222.15 317.074 222.275 317.074 222.375C317.074 222.458 317.074 222.525 317.074 222.575C317.091 222.625 317.099 222.692 317.099 222.775C317.099 222.925 317.083 223.092 317.049 223.275C317.016 223.442 316.999 223.633 316.999 223.85C316.999 224.05 317.024 224.258 317.074 224.475C316.891 225.225 316.508 225.6 315.924 225.6C315.108 225.6 314.699 224.833 314.699 223.3C314.699 222.783 314.724 222.275 314.774 221.775C314.824 221.258 314.883 220.783 314.949 220.35C315.016 219.917 315.083 219.542 315.149 219.225C315.233 218.892 315.299 218.633 315.349 218.45C315.599 218.083 315.949 217.9 316.399 217.9C316.833 217.9 317.199 218.067 317.499 218.4ZM329.989 223.6C329.672 224.267 329.156 224.8 328.439 225.2C327.722 225.583 326.922 225.775 326.039 225.775C325.922 225.775 325.731 225.758 325.464 225.725C325.197 225.692 324.897 225.625 324.564 225.525C324.247 225.425 323.914 225.292 323.564 225.125C323.231 224.942 322.922 224.708 322.639 224.425C322.356 224.125 322.122 223.767 321.939 223.35C321.756 222.933 321.664 222.442 321.664 221.875C321.647 221.125 321.747 220.442 321.964 219.825C322.197 219.208 322.564 218.583 323.064 217.95L323.864 216.925C324.797 216.292 325.847 215.975 327.014 215.975C327.647 215.975 328.147 216.092 328.514 216.325C328.897 216.558 329.089 216.892 329.089 217.325C329.089 217.658 328.964 217.933 328.714 218.15C328.481 218.35 328.172 218.45 327.789 218.45C327.772 218.45 327.706 218.442 327.589 218.425C327.489 218.392 327.372 218.358 327.239 218.325C327.106 218.292 326.972 218.267 326.839 218.25C326.706 218.217 326.597 218.2 326.514 218.2C326.131 218.2 325.689 218.4 325.189 218.8C324.706 219.2 324.322 219.833 324.039 220.7C323.922 221.067 323.864 221.367 323.864 221.6C323.864 222.067 323.989 222.433 324.239 222.7C324.506 222.967 324.797 223.175 325.114 223.325C325.431 223.458 325.722 223.55 325.989 223.6C326.256 223.633 326.397 223.65 326.414 223.65C326.647 223.65 326.881 223.583 327.114 223.45C327.347 223.317 327.556 223.167 327.739 223C327.939 222.833 328.097 222.692 328.214 222.575C328.331 222.442 328.381 222.375 328.364 222.375C328.531 222.225 328.722 222.15 328.939 222.15C329.206 222.15 329.447 222.292 329.664 222.575C329.897 222.842 330.014 223.117 330.014 223.4C330.014 223.483 330.006 223.55 329.989 223.6ZM338.833 216.575C339.016 216.725 339.108 217 339.108 217.4C339.108 218.133 338.833 218.5 338.283 218.5H338.183C337.933 218.517 337.641 218.542 337.308 218.575C336.975 218.592 336.6 218.625 336.183 218.675C336.15 218.942 336.116 219.3 336.083 219.75C336.05 220.183 336.033 220.708 336.033 221.325C336.033 221.375 336.033 221.425 336.033 221.475C336.05 221.525 336.058 221.583 336.058 221.65V222.8C336.058 223.067 336.1 223.283 336.183 223.45C336.283 223.6 336.4 223.708 336.533 223.775L337.233 224C337.783 224.183 338.058 224.517 338.058 225C338.058 225.283 337.941 225.533 337.708 225.75C337.491 225.967 337.208 226.075 336.858 226.075C336.758 226.075 336.583 226.05 336.333 226C336.1 225.933 335.85 225.85 335.583 225.75C335.333 225.65 335.091 225.525 334.858 225.375C334.641 225.225 334.491 225.058 334.408 224.875C334.225 224.492 334.075 224.092 333.958 223.675C333.841 223.242 333.783 222.792 333.783 222.325C333.783 221.808 333.791 221.442 333.808 221.225C333.825 221.008 333.841 220.817 333.858 220.65C333.875 220.483 333.891 220.283 333.908 220.05C333.925 219.817 333.933 219.433 333.933 218.9C333.616 218.933 333.15 219.033 332.533 219.2C332.166 219.2 331.85 219.108 331.583 218.925C331.333 218.725 331.208 218.467 331.208 218.15C331.208 217.917 331.275 217.7 331.408 217.5C331.558 217.3 331.858 217.125 332.308 216.975C332.458 216.925 332.591 216.892 332.708 216.875C332.841 216.858 332.966 216.842 333.083 216.825C333.216 216.808 333.358 216.8 333.508 216.8C333.658 216.783 333.841 216.758 334.058 216.725C334.075 216.308 334.1 215.842 334.133 215.325C334.183 214.792 334.258 214.3 334.358 213.85C334.475 213.4 334.633 213.025 334.833 212.725C335.05 212.408 335.333 212.25 335.683 212.25C336.283 212.25 336.65 212.525 336.783 213.075C336.783 213.092 336.758 213.208 336.708 213.425C336.675 213.625 336.633 213.85 336.583 214.1C336.533 214.35 336.483 214.592 336.433 214.825C336.4 215.058 336.383 215.208 336.383 215.275L336.308 216.5C336.425 216.483 336.533 216.475 336.633 216.475C336.733 216.458 336.841 216.45 336.958 216.45H337.183C337.3 216.45 337.408 216.45 337.508 216.45C337.608 216.433 337.7 216.425 337.783 216.425C338.283 216.425 338.633 216.475 338.833 216.575ZM347.725 225.375C347.508 225.525 347.158 225.675 346.675 225.825C346.192 225.958 345.692 226.075 345.175 226.175L344.15 225.975C344 225.925 343.75 225.808 343.4 225.625C343.067 225.442 342.725 225.167 342.375 224.8C342.025 224.417 341.717 223.933 341.45 223.35C341.183 222.75 341.05 222.025 341.05 221.175C341.05 220.875 341.117 220.525 341.25 220.125C341.4 219.708 341.617 219.325 341.9 218.975C342.183 218.608 342.533 218.3 342.95 218.05C343.383 217.8 343.883 217.675 344.45 217.675C345.583 217.675 346.608 218.042 347.525 218.775C348.325 219.875 348.725 221.092 348.725 222.425C348.725 223.408 348.392 224.392 347.725 225.375ZM346.5 221.825C346.417 221.175 346.208 220.667 345.875 220.3C345.558 219.917 345.15 219.725 344.65 219.725C344.317 219.725 344 219.892 343.7 220.225C343.417 220.542 343.275 221.008 343.275 221.625C343.275 221.875 343.308 222.142 343.375 222.425C343.442 222.692 343.55 222.942 343.7 223.175C343.85 223.392 344.042 223.575 344.275 223.725C344.508 223.858 344.792 223.925 345.125 223.925C345.658 223.925 346.025 223.767 346.225 223.45C346.425 223.117 346.525 222.708 346.525 222.225C346.525 222.158 346.517 222.1 346.5 222.05C346.5 221.983 346.5 221.908 346.5 221.825ZM358.647 217.5C358.914 217.667 359.047 217.983 359.047 218.45C359.047 218.8 358.955 219.1 358.772 219.35C358.589 219.6 358.339 219.725 358.022 219.725C357.822 219.725 357.614 219.675 357.397 219.575C357.197 219.458 356.98 219.4 356.747 219.4C356.547 219.4 356.347 219.442 356.147 219.525C355.964 219.592 355.747 219.75 355.497 220L354.747 220.75C354.747 220.867 354.747 220.983 354.747 221.1C354.764 221.217 354.772 221.342 354.772 221.475C354.772 221.675 354.764 221.883 354.747 222.1C354.747 222.317 354.739 222.55 354.722 222.8L354.947 225.075C354.897 225.842 354.505 226.225 353.772 226.225C353.389 226.225 353.105 226.108 352.922 225.875C352.739 225.625 352.614 225.283 352.547 224.85C352.48 224.417 352.447 223.908 352.447 223.325C352.464 222.742 352.464 222.1 352.447 221.4C352.414 220.35 352.389 219.825 352.372 219.825V219.85C352.305 219.6 352.255 219.383 352.222 219.2C352.189 219 352.172 218.825 352.172 218.675C352.172 218.375 352.28 218.133 352.497 217.95C352.714 217.75 353.03 217.65 353.447 217.65C353.714 217.65 354.03 217.858 354.397 218.275C354.78 217.975 355.072 217.75 355.272 217.6C355.489 217.45 355.664 217.342 355.797 217.275C355.947 217.208 356.089 217.175 356.222 217.175C356.355 217.158 356.53 217.15 356.747 217.15C356.93 217.133 357.097 217.142 357.247 217.175C357.414 217.208 357.589 217.242 357.772 217.275L358.647 217.5ZM365.443 214.225C365.476 214.358 365.493 214.483 365.493 214.6C365.493 215.133 365.334 215.583 365.018 215.95C364.518 216.15 364.018 216.25 363.518 216.25C363.201 216.05 362.934 215.825 362.718 215.575C362.518 215.308 362.418 215.05 362.418 214.8C362.418 214.583 362.668 214.05 363.168 213.2C363.384 213.233 363.609 213.258 363.843 213.275C364.093 213.292 364.318 213.333 364.518 213.4C364.734 213.467 364.918 213.567 365.068 213.7C365.234 213.817 365.359 213.992 365.443 214.225ZM364.643 218.4V218.725C364.643 218.808 364.643 218.9 364.643 219C364.643 219.1 364.626 219.192 364.593 219.275L364.393 220.4V220.625C364.393 220.725 364.384 220.858 364.368 221.025C364.351 221.192 364.326 221.358 364.293 221.525C364.276 221.692 364.259 221.85 364.243 222C364.226 222.15 364.218 222.275 364.218 222.375C364.218 222.458 364.218 222.525 364.218 222.575C364.234 222.625 364.243 222.692 364.243 222.775C364.243 222.925 364.226 223.092 364.193 223.275C364.159 223.442 364.143 223.633 364.143 223.85C364.143 224.05 364.168 224.258 364.218 224.475C364.034 225.225 363.651 225.6 363.068 225.6C362.251 225.6 361.843 224.833 361.843 223.3C361.843 222.783 361.868 222.275 361.918 221.775C361.968 221.258 362.026 220.783 362.093 220.35C362.159 219.917 362.226 219.542 362.293 219.225C362.376 218.892 362.443 218.633 362.493 218.45C362.743 218.083 363.093 217.9 363.543 217.9C363.976 217.9 364.343 218.067 364.643 218.4ZM378.108 223.05C378.408 223.25 378.558 223.492 378.558 223.775C378.558 223.925 378.516 224.083 378.433 224.25C378.349 224.4 378.241 224.542 378.108 224.675C377.974 224.792 377.833 224.892 377.683 224.975C377.533 225.058 377.383 225.1 377.233 225.1C377.099 225.05 376.941 224.967 376.758 224.85C376.574 224.717 376.391 224.575 376.208 224.425C376.024 224.258 375.849 224.075 375.683 223.875C375.533 223.675 375.416 223.475 375.333 223.275L375.158 223.7C374.841 224.3 374.341 224.867 373.658 225.4C372.824 225.55 372.341 225.625 372.208 225.625C371.891 225.625 371.508 225.575 371.058 225.475L369.683 224.5C369.083 223.933 368.783 223.158 368.783 222.175C368.783 221.825 368.833 221.442 368.933 221.025C369.049 220.592 369.208 220.158 369.408 219.725C369.624 219.292 369.883 218.867 370.183 218.45C370.483 218.033 370.833 217.658 371.233 217.325C371.716 217.142 372.183 216.992 372.633 216.875C373.083 216.742 373.424 216.658 373.658 216.625C373.974 216.275 374.349 216.1 374.783 216.1C375.033 216.1 375.249 216.225 375.433 216.475C375.633 216.708 375.799 217.008 375.933 217.375C376.083 217.742 376.199 218.15 376.283 218.6C376.366 219.033 376.424 219.45 376.458 219.85L376.783 221.175C376.883 221.592 377.041 221.95 377.258 222.25C377.491 222.55 377.774 222.817 378.108 223.05ZM374.308 220.275C374.274 220.258 374.149 219.733 373.933 218.7C373.849 218.7 373.724 218.7 373.558 218.7C373.391 218.7 373.191 218.75 372.958 218.85C372.741 218.933 372.499 219.092 372.233 219.325C371.983 219.542 371.741 219.875 371.508 220.325C371.158 220.975 370.983 221.625 370.983 222.275C371.266 222.825 371.708 223.258 372.308 223.575C372.491 223.525 372.641 223.467 372.758 223.4C372.891 223.333 373.008 223.242 373.108 223.125C373.208 223.008 373.299 222.867 373.383 222.7C373.483 222.517 373.591 222.292 373.708 222.025C373.924 221.642 374.074 221.308 374.158 221.025C374.258 220.725 374.308 220.475 374.308 220.275ZM400.401 220.95C400.385 221.45 400.368 221.85 400.351 222.15C400.335 222.433 400.31 222.675 400.276 222.875C400.26 223.058 400.218 223.225 400.151 223.375C400.101 223.525 400.026 223.708 399.926 223.925C399.576 224.725 399.035 225.342 398.301 225.775C397.568 226.208 396.635 226.425 395.501 226.425C395.101 226.425 394.785 226.425 394.551 226.425C394.318 226.425 394.06 226.383 393.776 226.3C393.51 226.217 393.168 226.075 392.751 225.875C392.335 225.658 391.743 225.35 390.976 224.95C390.376 224.633 390.076 224.233 390.076 223.75C390.076 223.45 390.176 223.183 390.376 222.95C390.576 222.7 390.835 222.558 391.151 222.525C392.351 222.908 393.176 223.308 393.626 223.725C394.226 223.992 394.951 224.125 395.801 224.125C396.518 224.125 397.093 223.917 397.526 223.5C397.593 223.317 397.66 223.058 397.726 222.725C397.81 222.392 397.851 221.992 397.851 221.525C397.851 221.158 397.743 220.858 397.526 220.625C397.31 220.375 397.035 220.158 396.701 219.975C396.368 219.792 395.993 219.625 395.576 219.475C395.176 219.325 394.793 219.167 394.426 219C394.143 218.883 393.86 218.75 393.576 218.6C393.293 218.45 393.01 218.258 392.726 218.025C392.01 216.808 391.651 215.95 391.651 215.45C391.651 214.2 392.393 213.008 393.876 211.875C395.26 211.358 396.201 211.1 396.701 211.1C396.885 211.1 397.126 211.167 397.426 211.3C397.726 211.433 398.018 211.6 398.301 211.8C398.601 212 398.851 212.225 399.051 212.475C399.268 212.708 399.376 212.942 399.376 213.175C399.376 213.458 399.26 213.708 399.026 213.925C398.81 214.125 398.526 214.225 398.176 214.225C398.143 214.225 398.051 214.175 397.901 214.075C397.751 213.975 397.568 213.867 397.351 213.75C397.151 213.633 396.943 213.525 396.726 213.425C396.526 213.325 396.36 213.275 396.226 213.275C395.943 213.275 395.668 213.342 395.401 213.475C395.151 213.608 394.926 213.775 394.726 213.975C394.526 214.175 394.368 214.4 394.251 214.65C394.135 214.883 394.076 215.1 394.076 215.3C394.076 215.683 394.193 216.025 394.426 216.325C394.66 216.625 394.943 216.867 395.276 217.05L396.851 217.6C397.251 217.75 397.643 217.942 398.026 218.175C398.41 218.408 398.76 218.675 399.076 218.975C399.393 219.258 399.668 219.575 399.901 219.925C400.135 220.258 400.301 220.6 400.401 220.95ZM408.344 225.25C408.344 225.4 408.294 225.55 408.194 225.7C408.11 225.85 407.994 225.975 407.844 226.075C407.71 226.192 407.552 226.283 407.369 226.35C407.202 226.433 407.044 226.475 406.894 226.475C406.494 226.475 406.169 226.417 405.919 226.3C405.669 226.2 405.477 226.067 405.344 225.9C405.227 225.733 405.144 225.558 405.094 225.375C405.06 225.175 405.044 224.992 405.044 224.825C405.044 224.625 405.077 224.425 405.144 224.225C405.227 224.008 405.335 223.817 405.469 223.65C405.602 223.483 405.76 223.35 405.944 223.25C406.127 223.133 406.335 223.075 406.569 223.075C406.719 223.075 406.894 223.092 407.094 223.125C407.31 223.158 407.51 223.25 407.694 223.4C407.877 223.55 408.027 223.775 408.144 224.075C408.277 224.358 408.344 224.75 408.344 225.25ZM437.261 225.625C437.178 226.075 436.803 226.3 436.136 226.3C435.669 226.3 435.353 226.142 435.186 225.825C435.103 225.375 435.044 224.967 435.011 224.6C434.978 224.217 434.936 223.808 434.886 223.375C434.853 222.925 434.803 222.417 434.736 221.85C434.686 221.283 434.586 220.583 434.436 219.75C434.403 219.433 434.378 219.125 434.361 218.825C434.361 218.525 434.353 218.233 434.336 217.95C434.019 218.383 433.711 218.783 433.411 219.15C433.111 219.517 432.803 219.85 432.486 220.15C432.103 220.733 431.536 221.342 430.786 221.975H430.636C430.286 221.975 429.944 221.9 429.611 221.75C429.294 221.583 429.086 221.408 428.986 221.225C428.803 220.925 428.569 220.525 428.286 220.025C428.019 219.525 427.669 218.942 427.236 218.275L426.611 217.325C426.528 217.758 426.436 218.308 426.336 218.975C426.253 219.625 426.153 220.4 426.036 221.3V221.675C426.036 221.925 426.028 222.208 426.011 222.525C425.994 222.842 425.961 223.2 425.911 223.6L425.686 226.075C425.636 226.558 425.244 226.8 424.511 226.8C424.278 226.8 424.094 226.783 423.961 226.75C423.828 226.717 423.719 226.642 423.636 226.525C423.553 226.425 423.494 226.275 423.461 226.075C423.444 225.875 423.436 225.6 423.436 225.25C423.436 224.25 423.444 223.75 423.461 223.75V223.775C423.528 223.608 423.578 223.383 423.611 223.1C423.661 222.817 423.694 222.542 423.711 222.275C423.744 221.992 423.761 221.75 423.761 221.55C423.778 221.333 423.786 221.225 423.786 221.225C423.786 221.192 423.803 221.058 423.836 220.825C423.869 220.575 423.903 220.308 423.936 220.025C423.986 219.725 424.028 219.442 424.061 219.175C424.094 218.892 424.111 218.7 424.111 218.6V218.45C424.144 218.05 424.178 217.608 424.211 217.125C424.244 216.642 424.294 216.108 424.361 215.525L424.836 213.375C425.103 213.158 425.494 213.05 426.011 213.05C426.278 213.05 426.511 213.1 426.711 213.2C426.978 213.583 427.236 213.958 427.486 214.325C427.753 214.692 428.019 215.092 428.286 215.525C428.569 215.958 428.878 216.458 429.211 217.025C429.544 217.592 429.936 218.275 430.386 219.075C431.069 218.442 431.486 217.942 431.636 217.575C431.686 217.558 432.211 216.858 433.211 215.475L434.311 214.075C434.444 214.008 434.628 213.975 434.861 213.975C435.328 213.975 435.753 214.117 436.136 214.4C436.436 215.783 436.586 216.767 436.586 217.35V217.575C436.586 217.658 436.603 217.858 436.636 218.175C436.669 218.475 436.711 218.808 436.761 219.175C436.811 219.525 436.853 219.858 436.886 220.175C436.936 220.492 436.978 220.708 437.011 220.825C437.011 221.308 437.028 221.808 437.061 222.325C437.111 222.842 437.178 223.375 437.261 223.925C437.294 224.125 437.319 224.308 437.336 224.475C437.353 224.642 437.361 224.8 437.361 224.95C437.361 225.083 437.353 225.208 437.336 225.325C437.319 225.442 437.294 225.542 437.261 225.625ZM449.934 223.05C450.234 223.25 450.384 223.492 450.384 223.775C450.384 223.925 450.342 224.083 450.259 224.25C450.175 224.4 450.067 224.542 449.934 224.675C449.8 224.792 449.659 224.892 449.509 224.975C449.359 225.058 449.209 225.1 449.059 225.1C448.925 225.05 448.767 224.967 448.584 224.85C448.4 224.717 448.217 224.575 448.034 224.425C447.85 224.258 447.675 224.075 447.509 223.875C447.359 223.675 447.242 223.475 447.159 223.275L446.984 223.7C446.667 224.3 446.167 224.867 445.484 225.4C444.65 225.55 444.167 225.625 444.034 225.625C443.717 225.625 443.334 225.575 442.884 225.475L441.509 224.5C440.909 223.933 440.609 223.158 440.609 222.175C440.609 221.825 440.659 221.442 440.759 221.025C440.875 220.592 441.034 220.158 441.234 219.725C441.45 219.292 441.709 218.867 442.009 218.45C442.309 218.033 442.659 217.658 443.059 217.325C443.542 217.142 444.009 216.992 444.459 216.875C444.909 216.742 445.25 216.658 445.484 216.625C445.8 216.275 446.175 216.1 446.609 216.1C446.859 216.1 447.075 216.225 447.259 216.475C447.459 216.708 447.625 217.008 447.759 217.375C447.909 217.742 448.025 218.15 448.109 218.6C448.192 219.033 448.25 219.45 448.284 219.85L448.609 221.175C448.709 221.592 448.867 221.95 449.084 222.25C449.317 222.55 449.6 222.817 449.934 223.05ZM446.134 220.275C446.1 220.258 445.975 219.733 445.759 218.7C445.675 218.7 445.55 218.7 445.384 218.7C445.217 218.7 445.017 218.75 444.784 218.85C444.567 218.933 444.325 219.092 444.059 219.325C443.809 219.542 443.567 219.875 443.334 220.325C442.984 220.975 442.809 221.625 442.809 222.275C443.092 222.825 443.534 223.258 444.134 223.575C444.317 223.525 444.467 223.467 444.584 223.4C444.717 223.333 444.834 223.242 444.934 223.125C445.034 223.008 445.125 222.867 445.209 222.7C445.309 222.517 445.417 222.292 445.534 222.025C445.75 221.642 445.9 221.308 445.984 221.025C446.084 220.725 446.134 220.475 446.134 220.275ZM459.379 217.5C459.646 217.667 459.779 217.983 459.779 218.45C459.779 218.8 459.688 219.1 459.504 219.35C459.321 219.6 459.071 219.725 458.754 219.725C458.554 219.725 458.346 219.675 458.129 219.575C457.929 219.458 457.713 219.4 457.479 219.4C457.279 219.4 457.079 219.442 456.879 219.525C456.696 219.592 456.479 219.75 456.229 220L455.479 220.75C455.479 220.867 455.479 220.983 455.479 221.1C455.496 221.217 455.504 221.342 455.504 221.475C455.504 221.675 455.496 221.883 455.479 222.1C455.479 222.317 455.471 222.55 455.454 222.8L455.679 225.075C455.629 225.842 455.238 226.225 454.504 226.225C454.121 226.225 453.838 226.108 453.654 225.875C453.471 225.625 453.346 225.283 453.279 224.85C453.213 224.417 453.179 223.908 453.179 223.325C453.196 222.742 453.196 222.1 453.179 221.4C453.146 220.35 453.121 219.825 453.104 219.825V219.85C453.038 219.6 452.988 219.383 452.954 219.2C452.921 219 452.904 218.825 452.904 218.675C452.904 218.375 453.013 218.133 453.229 217.95C453.446 217.75 453.763 217.65 454.179 217.65C454.446 217.65 454.763 217.858 455.129 218.275C455.513 217.975 455.804 217.75 456.004 217.6C456.221 217.45 456.396 217.342 456.529 217.275C456.679 217.208 456.821 217.175 456.954 217.175C457.088 217.158 457.263 217.15 457.479 217.15C457.663 217.133 457.829 217.142 457.979 217.175C458.146 217.208 458.321 217.242 458.504 217.275L459.379 217.5ZM470.075 223.825C470.092 223.892 470.1 223.95 470.1 224C470.117 224.05 470.125 224.108 470.125 224.175C470.125 224.525 470.017 224.808 469.8 225.025C469.584 225.242 469.334 225.35 469.05 225.35C468.8 225.35 468.575 225.242 468.375 225.025C468.175 224.808 467.959 224.533 467.725 224.2C467.509 223.867 467.259 223.5 466.975 223.1C466.692 222.7 466.342 222.317 465.925 221.95C465.859 221.883 465.734 221.792 465.55 221.675C465.367 221.542 465.134 221.375 464.85 221.175L464.7 221.25C464.667 221.367 464.642 221.508 464.625 221.675C464.575 221.958 464.55 222.333 464.55 222.8C464.55 222.933 464.567 223.083 464.6 223.25C464.6 223.283 464.592 223.317 464.575 223.35C464.575 223.383 464.575 223.425 464.575 223.475C464.575 223.625 464.575 223.825 464.575 224.075C464.592 224.308 464.609 224.542 464.625 224.775C464.642 224.992 464.65 225.183 464.65 225.35C464.667 225.517 464.675 225.592 464.675 225.575C464.675 225.858 464.55 226.075 464.3 226.225C464.05 226.375 463.775 226.45 463.475 226.45C463.042 226.45 462.75 226.242 462.6 225.825C462.467 225.408 462.4 224.7 462.4 223.7C462.4 223.033 462.425 222.433 462.475 221.9C462.525 221.35 462.55 220.867 462.55 220.45V220.025C462.55 219.942 462.559 219.8 462.575 219.6C462.609 219.4 462.634 219.175 462.65 218.925C462.684 218.675 462.709 218.425 462.725 218.175C462.759 217.908 462.775 217.683 462.775 217.5V217.225C462.792 217.175 462.817 216.95 462.85 216.55C462.884 216.15 462.942 215.692 463.025 215.175C463.109 214.642 463.209 214.1 463.325 213.55C463.459 212.983 463.617 212.508 463.8 212.125C463.917 211.875 464.175 211.75 464.575 211.75C465.325 211.75 465.7 212.042 465.7 212.625C465.7 212.758 465.667 213.008 465.6 213.375C465.534 213.742 465.459 214.142 465.375 214.575C465.309 214.992 465.242 215.4 465.175 215.8C465.125 216.2 465.1 216.5 465.1 216.7C465.067 216.75 464.992 217.375 464.875 218.575C465.125 218.408 465.35 218.242 465.55 218.075C465.767 217.892 465.992 217.708 466.225 217.525C466.459 217.342 466.734 217.15 467.05 216.95C467.367 216.733 467.759 216.492 468.225 216.225C468.259 216.225 468.284 216.225 468.3 216.225C468.317 216.208 468.342 216.2 468.375 216.2C468.625 216.2 468.875 216.317 469.125 216.55C469.375 216.783 469.5 217.05 469.5 217.35C469.5 217.533 469.492 217.667 469.475 217.75C469.459 217.817 469.384 217.9 469.25 218C469.134 218.1 468.934 218.233 468.65 218.4C468.367 218.567 467.967 218.825 467.45 219.175C467.417 219.258 467.142 219.45 466.625 219.75C466.825 219.917 466.95 220.025 467 220.075C467.067 220.125 467.15 220.208 467.25 220.325C467.35 220.425 467.517 220.608 467.75 220.875C468 221.125 468.417 221.542 469 222.125C469.317 222.558 469.675 223.125 470.075 223.825ZM481.369 217.025C481.402 217.225 481.419 217.425 481.419 217.625C481.419 217.825 481.419 218.017 481.419 218.2C481.419 218.967 481.335 219.658 481.169 220.275C481.102 220.692 481.052 221.125 481.019 221.575C480.985 222.008 480.952 222.467 480.919 222.95C480.919 222.983 480.935 223.167 480.969 223.5C481.019 223.817 481.044 224.292 481.044 224.925C481.044 225.208 480.927 225.425 480.694 225.575C480.477 225.708 480.219 225.775 479.919 225.775C479.552 225.775 479.294 225.7 479.144 225.55C478.994 225.383 478.902 225 478.869 224.4C478.585 224.667 478.31 224.875 478.044 225.025C477.777 225.158 477.519 225.258 477.269 225.325C477.035 225.392 476.81 225.433 476.594 225.45C476.394 225.467 476.202 225.475 476.019 225.475C475.069 225.475 474.352 225.192 473.869 224.625C473.385 224.058 473.144 223.275 473.144 222.275C473.144 222.158 473.144 222.042 473.144 221.925C473.144 221.792 473.152 221.642 473.169 221.475C473.152 221.442 473.144 221.367 473.144 221.25C473.144 221.067 473.144 220.883 473.144 220.7C473.16 220.5 473.194 220.258 473.244 219.975C473.294 219.692 473.369 219.342 473.469 218.925C473.585 218.492 473.744 217.942 473.944 217.275C474.16 217.008 474.452 216.875 474.819 216.875C475.102 216.875 475.344 216.95 475.544 217.1C475.76 217.25 475.869 217.483 475.869 217.8C475.869 217.883 475.844 218.05 475.794 218.3C475.744 218.55 475.685 218.825 475.619 219.125C475.552 219.425 475.494 219.725 475.444 220.025C475.394 220.325 475.369 220.558 475.369 220.725V220.85C475.335 221.033 475.31 221.217 475.294 221.4C475.277 221.567 475.269 221.725 475.269 221.875C475.269 222.308 475.327 222.667 475.444 222.95C475.577 223.233 475.852 223.375 476.269 223.375C476.569 223.375 476.852 223.308 477.119 223.175C477.385 223.025 477.627 222.85 477.844 222.65C478.077 222.433 478.277 222.208 478.444 221.975C478.61 221.725 478.735 221.492 478.819 221.275C478.902 220.658 479.052 219.85 479.269 218.85V218.6C479.269 218.317 479.277 218.042 479.294 217.775C479.327 217.508 479.377 217.275 479.444 217.075C479.527 216.858 479.644 216.692 479.794 216.575C479.944 216.442 480.152 216.375 480.419 216.375C480.919 216.375 481.235 216.592 481.369 217.025ZM491.725 223.125C491.675 223.642 491.5 224.117 491.2 224.55C490.917 224.967 490.625 225.392 490.325 225.825C490.142 225.975 489.875 226.1 489.525 226.2C489.192 226.317 488.858 226.408 488.525 226.475C488.192 226.542 487.9 226.592 487.65 226.625C487.417 226.658 487.317 226.675 487.35 226.675C487.183 226.675 486.967 226.642 486.7 226.575C486.45 226.525 486.2 226.467 485.95 226.4C485.717 226.35 485.517 226.292 485.35 226.225C485.2 226.175 485.133 226.15 485.15 226.15C485 226.133 484.808 226.083 484.575 226C484.342 225.9 484.117 225.792 483.9 225.675C483.7 225.542 483.525 225.408 483.375 225.275C483.208 225.125 483.125 224.983 483.125 224.85C483.125 224.717 483.158 224.583 483.225 224.45C483.292 224.3 483.383 224.167 483.5 224.05C483.617 223.917 483.733 223.817 483.85 223.75C483.983 223.667 484.117 223.625 484.25 223.625L485.975 224.275C486.292 224.375 486.6 224.45 486.9 224.5C487.217 224.533 487.525 224.55 487.825 224.55C488.108 224.55 488.358 224.5 488.575 224.4C488.808 224.283 488.983 224.15 489.1 224L489.475 223.25C489.442 222.95 489.317 222.717 489.1 222.55C488.9 222.383 488.642 222.242 488.325 222.125C488.025 222.008 487.7 221.9 487.35 221.8C487 221.7 486.675 221.567 486.375 221.4L485.3 220.725C484.95 220.275 484.767 219.583 484.75 218.65C484.85 218.067 485.1 217.6 485.5 217.25C485.517 217.233 485.625 217.158 485.825 217.025C486.025 216.875 486.333 216.667 486.75 216.4C486.817 216.4 487.025 216.383 487.375 216.35C487.742 216.317 488.242 216.267 488.875 216.2C489.158 216.2 489.85 216.4 490.95 216.8C491.167 217.017 491.275 217.317 491.275 217.7C491.275 218 491.2 218.258 491.05 218.475C490.917 218.675 490.717 218.775 490.45 218.775C490.167 218.775 489.85 218.708 489.5 218.575C489.167 218.425 488.85 218.35 488.55 218.35C488.133 218.35 487.75 218.392 487.4 218.475C487.067 218.542 486.9 218.708 486.9 218.975C486.9 219.358 487.067 219.592 487.4 219.675C489.95 220.242 491.392 221.392 491.725 223.125ZM501.564 223.125C501.514 223.642 501.339 224.117 501.039 224.55C500.756 224.967 500.464 225.392 500.164 225.825C499.981 225.975 499.714 226.1 499.364 226.2C499.031 226.317 498.697 226.408 498.364 226.475C498.031 226.542 497.739 226.592 497.489 226.625C497.256 226.658 497.156 226.675 497.189 226.675C497.022 226.675 496.806 226.642 496.539 226.575C496.289 226.525 496.039 226.467 495.789 226.4C495.556 226.35 495.356 226.292 495.189 226.225C495.039 226.175 494.972 226.15 494.989 226.15C494.839 226.133 494.647 226.083 494.414 226C494.181 225.9 493.956 225.792 493.739 225.675C493.539 225.542 493.364 225.408 493.214 225.275C493.047 225.125 492.964 224.983 492.964 224.85C492.964 224.717 492.997 224.583 493.064 224.45C493.131 224.3 493.222 224.167 493.339 224.05C493.456 223.917 493.572 223.817 493.689 223.75C493.822 223.667 493.956 223.625 494.089 223.625L495.814 224.275C496.131 224.375 496.439 224.45 496.739 224.5C497.056 224.533 497.364 224.55 497.664 224.55C497.947 224.55 498.197 224.5 498.414 224.4C498.647 224.283 498.822 224.15 498.939 224L499.314 223.25C499.281 222.95 499.156 222.717 498.939 222.55C498.739 222.383 498.481 222.242 498.164 222.125C497.864 222.008 497.539 221.9 497.189 221.8C496.839 221.7 496.514 221.567 496.214 221.4L495.139 220.725C494.789 220.275 494.606 219.583 494.589 218.65C494.689 218.067 494.939 217.6 495.339 217.25C495.356 217.233 495.464 217.158 495.664 217.025C495.864 216.875 496.172 216.667 496.589 216.4C496.656 216.4 496.864 216.383 497.214 216.35C497.581 216.317 498.081 216.267 498.714 216.2C498.997 216.2 499.689 216.4 500.789 216.8C501.006 217.017 501.114 217.317 501.114 217.7C501.114 218 501.039 218.258 500.889 218.475C500.756 218.675 500.556 218.775 500.289 218.775C500.006 218.775 499.689 218.708 499.339 218.575C499.006 218.425 498.689 218.35 498.389 218.35C497.972 218.35 497.589 218.392 497.239 218.475C496.906 218.542 496.739 218.708 496.739 218.975C496.739 219.358 496.906 219.592 497.239 219.675C499.789 220.242 501.231 221.392 501.564 223.125ZM513.428 225C512.894 225.533 512.294 225.983 511.628 226.35C510.961 226.733 510.286 226.925 509.603 226.925C508.986 226.925 508.194 226.825 507.228 226.625C506.894 226.408 506.561 226.15 506.228 225.85C505.894 225.533 505.594 225.192 505.328 224.825C505.061 224.442 504.844 224.033 504.678 223.6C504.511 223.15 504.428 222.692 504.428 222.225C504.428 222.092 504.436 221.917 504.453 221.7C504.469 221.467 504.486 221.242 504.503 221.025C504.536 220.792 504.561 220.592 504.578 220.425C504.594 220.258 504.603 220.175 504.603 220.175C504.936 219.642 505.286 219.117 505.653 218.6C506.036 218.067 506.569 217.6 507.253 217.2C508.336 216.967 509.119 216.85 509.603 216.85C509.853 216.85 510.069 216.867 510.253 216.9C510.436 216.917 510.611 216.967 510.778 217.05C510.961 217.117 511.136 217.225 511.303 217.375C511.486 217.525 511.694 217.717 511.928 217.95C512.194 218.233 512.403 218.425 512.553 218.525C512.719 218.625 512.803 218.717 512.803 218.8C512.803 220.333 512.328 221.375 511.378 221.925C510.961 222.075 510.419 222.242 509.753 222.425C509.086 222.592 508.178 222.75 507.028 222.9C507.261 223.533 507.569 224.008 507.953 224.325C508.336 224.642 508.769 224.8 509.253 224.8C509.969 224.8 510.869 224.375 511.953 223.525C512.119 223.375 512.328 223.3 512.578 223.3C512.844 223.3 513.078 223.4 513.278 223.6C513.494 223.8 513.603 224.05 513.603 224.35C513.603 224.567 513.544 224.783 513.428 225ZM510.603 219.65C510.286 219.133 509.911 218.875 509.478 218.875C509.294 218.875 509.094 218.9 508.878 218.95C508.661 219 508.436 219.075 508.203 219.175C507.986 219.258 507.778 219.367 507.578 219.5C507.394 219.633 507.244 219.792 507.128 219.975L506.878 220.725C507.444 220.675 507.944 220.633 508.378 220.6C508.811 220.567 509.186 220.517 509.503 220.45C509.819 220.383 510.069 220.292 510.253 220.175C510.436 220.058 510.553 219.883 510.603 219.65ZM524.841 223.225V223.425C524.841 223.525 524.841 223.708 524.841 223.975C524.858 224.225 524.833 224.483 524.766 224.75C524.716 225.017 524.608 225.258 524.441 225.475C524.275 225.675 524.025 225.775 523.691 225.775C523.041 225.775 522.658 225.517 522.541 225C522.558 224.9 522.566 224.792 522.566 224.675C522.566 224.542 522.566 224.4 522.566 224.25C522.566 224.183 522.566 223.942 522.566 223.525C522.566 223.092 522.55 222.625 522.516 222.125C522.5 221.625 522.45 221.158 522.366 220.725C522.283 220.275 522.158 219.992 521.991 219.875C521.608 219.608 521.266 219.475 520.966 219.475C520.566 219.475 520.225 219.6 519.941 219.85C519.675 220.083 519.45 220.55 519.266 221.25C519.25 221.483 519.233 221.75 519.216 222.05C519.2 222.333 519.175 222.658 519.141 223.025C519.141 223.308 519.15 223.625 519.166 223.975C519.183 224.308 519.208 224.692 519.241 225.125C519.241 225.442 519.116 225.708 518.866 225.925C518.616 226.125 518.333 226.225 518.016 226.225C517.766 226.225 517.566 226.158 517.416 226.025C517.266 225.892 517.15 225.717 517.066 225.5C517 225.283 516.95 225.05 516.916 224.8C516.9 224.55 516.891 224.3 516.891 224.05C516.891 223.867 516.9 223.683 516.916 223.5C516.933 223.3 516.958 223.1 516.991 222.9L517.191 220.5L517.391 219.3C517.358 219.1 517.291 218.883 517.191 218.65C517.091 218.417 517.041 218.233 517.041 218.1C517.041 217.817 517.15 217.558 517.366 217.325C517.6 217.092 517.883 216.975 518.216 216.975C518.45 216.975 518.625 217.025 518.741 217.125C518.858 217.208 519.05 217.425 519.316 217.775C519.65 217.625 519.916 217.533 520.116 217.5C520.316 217.45 520.55 217.425 520.816 217.425C521.683 217.425 522.441 217.633 523.091 218.05C523.758 218.45 524.175 219.125 524.341 220.075C524.391 220.425 524.433 220.717 524.466 220.95C524.516 221.183 524.558 221.408 524.591 221.625C524.625 221.842 524.658 222.075 524.691 222.325C524.725 222.558 524.775 222.858 524.841 223.225Z" fill="#0A2CA5"/>
<path d="M520.024 95.6433C520.024 99.1232 516.755 102.144 514.439 104.453C513.596 105.294 511.5 106.735 510.342 106.735C506.951 106.735 510.926 106.527 512.013 107.146C514.469 108.545 518.033 112.044 518.376 114.952C518.558 116.494 519.936 117.974 520.024 119.471C520.074 120.306 520.848 123.966 520.848 122.757C520.848 116.274 521.62 108.95 527.669 105.503C530.431 103.929 528.242 105.533 526.937 104.362C525.813 103.353 524.82 102.297 523.824 101.303C522.443 99.9265 520.024 95.9943 520.024 94" stroke="#0A2CA5" stroke-width="2" stroke-linecap="round"/>
<path d="M765.024 95.6433C765.024 99.1232 761.755 102.144 759.439 104.453C758.596 105.294 756.5 106.735 755.342 106.735C751.951 106.735 755.926 106.527 757.013 107.146C759.469 108.545 763.033 112.044 763.376 114.952C763.558 116.494 764.936 117.974 765.024 119.471C765.074 120.306 765.848 123.966 765.848 122.757C765.848 116.274 766.62 108.95 772.669 105.503C775.431 103.929 773.242 105.533 771.937 104.362C770.813 103.353 769.82 102.297 768.824 101.303C767.443 99.9265 765.024 95.9943 765.024 94" stroke="#0A2CA5" stroke-width="2" stroke-linecap="round"/>
</svg>
