<svg width="671" height="628" viewBox="0 0 671 628" fill="none" xmlns="http://www.w3.org/2000/svg">
<path d="M564.607 13.8552C563.717 16.0629 561.99 23.8118 559.986 24.9409C558.621 25.7094 557.695 26.6894 556.377 27.4322C554.008 28.7662 555.113 27.2676 556.85 27.9678C563.246 30.5452 569.172 38.0543 568.398 45.4163C568.043 48.7893 568.472 43.8713 568.687 43.0814C569.138 41.428 568.521 40.0725 569.294 38.1543C570.609 34.8907 570.455 28.4096 575.167 27.7646C577.062 27.5052 573.617 27.1399 572.53 26.7021C570.399 25.8431 569.646 24.5951 567.98 23.4507C565.484 21.737 564.193 17.2911 564.368 14.4484" stroke="#0A2CA5" stroke-width="3" stroke-linecap="round"/>
<path d="M39.0098 149.823C39.0098 158.231 39.8235 166.313 35.7368 173.669C33.6438 177.437 29.9031 180.821 27.996 184.423C27.0712 186.17 26.4246 188.913 24.4633 190.034C21.3244 191.828 24.7486 190.969 26.3855 190.969C30.0328 190.969 33.2929 196.202 34.8017 198.918C38.0888 204.834 39.0157 211.321 41.6074 217.153C42.7109 219.636 42.299 227.826 44.153 229.309C45.2966 230.224 44.6206 233.294 44.6206 229.309C44.6206 226.663 43.8208 224.265 43.6854 221.828C43.2209 213.466 44.7568 203.952 51.634 198.45C52.8504 197.477 53.2033 195.404 54.907 194.502C56.2903 193.769 58.2661 192.583 59.3748 191.696C60.8576 190.51 64.233 189.832 65.1934 188.631C67.0044 186.367 64.9385 189.778 62.44 187.696C60.0032 185.665 55.1022 184.667 53.0367 182.085C52.2189 181.063 49.4171 179.84 49.2962 178.812C49.083 177.001 46.6488 174.71 45.3479 173.409C43.2684 171.33 42.0072 165.318 40.4125 162.448C39.0398 159.977 39.718 153.918 37.1395 152.629" stroke="#0A2CA5" stroke-width="3" stroke-linecap="round"/>
<path d="M95.1653 379.026C88.2007 379.026 80.624 386.37 74.5063 389.769C69.6399 392.472 63.3641 395.416 59.1727 399.226C53.0666 404.777 46.7534 409.824 41.4519 416.304C34.2224 425.14 20.4901 436.291 19.1402 448.44C18.4634 454.531 15.8347 459.093 15.8347 465.794C15.8347 471.844 21.6671 476.536 27.4038 476.536C37.4195 476.536 57.7604 480.423 66.2427 475.71C80.2809 467.911 100.057 465.074 115.824 461.57C119.218 460.816 122.723 457.475 125.741 455.877C137.058 449.886 148.978 445.935 161.091 441.829C174.483 437.289 187.867 433.552 200.848 427.873C223.514 417.956 246.923 410.581 270.537 402.99C290.717 396.504 309.815 387.722 329.484 379.76C369.239 363.67 408.653 345.289 447.195 328.159C459.141 322.85 475.074 320.272 485.208 311.264C491.039 306.08 504.372 302.152 511.743 299.695C519.909 296.973 527.497 291.112 535.707 288.126C544.926 284.774 561.638 276.877 567.844 269.12C569.796 266.68 574.4 265.737 577.025 264.162C582.499 260.877 587.329 257.41 590.982 252.134C596.149 244.67 598.104 239.465 593.461 231.107C587.959 221.204 586.821 215.407 573.628 215.407C566.517 215.407 542.644 214.572 539.747 220.365" stroke="#0A2CA5" stroke-width="3" stroke-linecap="round"/>
<path d="M93.5126 349.277C89.2302 349.277 76.6303 359.146 73.3126 362.132C66.1454 368.582 55.3417 374.064 50.1745 382.331C46.3871 388.391 33.3227 394.478 32.3619 402.164C32.1415 403.927 26.3965 411.132 25.0164 412.907C21.6255 417.267 22.4455 422.697 22.4455 427.873C22.4455 435.259 21.2019 439.156 29.0564 441.829C44.2064 446.987 61.2617 441.62 76.8935 443.574C103.953 446.956 135.5 447.536 162.927 445.043C233.594 438.619 297.368 414.459 361.804 386.371C387.685 375.09 415.698 367.116 440.217 352.95C463.793 339.328 490.492 330.108 514.957 317.875C522.907 313.9 530.473 309.462 537.36 303.827C546.322 296.495 556.93 293.487 567.109 288.494C577.017 283.633 584.64 281.303 590.247 271.691C592.464 267.89 595.493 264.439 597.593 260.765C602.919 251.443 606.46 213.1 591.716 208.888C585.283 207.05 577.164 200.532 570.323 200.532C561.956 200.532 552.255 198.879 543.053 198.879" stroke="#0A2CA5" stroke-width="3" stroke-linecap="round"/>
<path d="M95.1653 269.946C83.1314 259.25 55.7104 251.125 43.5637 264.621C19.1221 291.778 60.8811 310.547 76.6181 324.853C81.6496 329.428 90.5816 332.718 96.818 335.688C104.318 339.26 111.583 343.262 118.671 347.624C125.075 351.566 132.498 355.245 139.422 357.908C146.108 360.48 151.506 366.572 158.887 368.742C169.307 371.807 179.325 373.304 188.085 380.311C191.85 383.324 198.145 387.653 202.592 390.228C213.304 396.43 222.837 406.268 234.361 410.795C250.792 417.25 267.012 430.914 281.556 441.095C302.752 455.933 329.028 463.212 349.684 478.557C385.601 505.238 428.56 514.898 468.68 532.729C482.692 538.956 498.612 538.684 512.569 544.665C520.679 548.141 538.486 547.43 546.358 543.931C564.695 535.781 562.953 509.636 548.011 499.675" stroke="#0A2CA5" stroke-width="3" stroke-linecap="round"/>
<path d="M10.625 117.825C10.6417 117.892 10.65 117.95 10.65 118C10.6667 118.05 10.675 118.108 10.675 118.175C10.675 118.525 10.5667 118.808 10.35 119.025C10.1333 119.242 9.88333 119.35 9.6 119.35C9.35 119.35 9.125 119.242 8.925 119.025C8.725 118.808 8.50833 118.533 8.275 118.2C8.05833 117.867 7.80833 117.5 7.525 117.1C7.24167 116.7 6.89167 116.317 6.475 115.95C6.40833 115.883 6.28333 115.792 6.1 115.675C5.91667 115.542 5.68333 115.375 5.4 115.175L5.25 115.25C5.21667 115.367 5.19167 115.508 5.175 115.675C5.125 115.958 5.1 116.333 5.1 116.8C5.1 116.933 5.11667 117.083 5.15 117.25C5.15 117.283 5.14167 117.317 5.125 117.35C5.125 117.383 5.125 117.425 5.125 117.475C5.125 117.625 5.125 117.825 5.125 118.075C5.14167 118.308 5.15833 118.542 5.175 118.775C5.19167 118.992 5.2 119.183 5.2 119.35C5.21667 119.517 5.225 119.592 5.225 119.575C5.225 119.858 5.1 120.075 4.85 120.225C4.6 120.375 4.325 120.45 4.025 120.45C3.59167 120.45 3.3 120.242 3.15 119.825C3.01667 119.408 2.95 118.7 2.95 117.7C2.95 117.033 2.975 116.433 3.025 115.9C3.075 115.35 3.1 114.867 3.1 114.45V114.025C3.1 113.942 3.10833 113.8 3.125 113.6C3.15833 113.4 3.18333 113.175 3.2 112.925C3.23333 112.675 3.25833 112.425 3.275 112.175C3.30833 111.908 3.325 111.683 3.325 111.5V111.225C3.34167 111.175 3.36667 110.95 3.4 110.55C3.43333 110.15 3.49167 109.692 3.575 109.175C3.65833 108.642 3.75833 108.1 3.875 107.55C4.00833 106.983 4.16667 106.508 4.35 106.125C4.46667 105.875 4.725 105.75 5.125 105.75C5.875 105.75 6.25 106.042 6.25 106.625C6.25 106.758 6.21667 107.008 6.15 107.375C6.08333 107.742 6.00833 108.142 5.925 108.575C5.85833 108.992 5.79167 109.4 5.725 109.8C5.675 110.2 5.65 110.5 5.65 110.7C5.61667 110.75 5.54167 111.375 5.425 112.575C5.675 112.408 5.9 112.242 6.1 112.075C6.31667 111.892 6.54167 111.708 6.775 111.525C7.00833 111.342 7.28333 111.15 7.6 110.95C7.91667 110.733 8.30833 110.492 8.775 110.225C8.80833 110.225 8.83333 110.225 8.85 110.225C8.86667 110.208 8.89167 110.2 8.925 110.2C9.175 110.2 9.425 110.317 9.675 110.55C9.925 110.783 10.05 111.05 10.05 111.35C10.05 111.533 10.0417 111.667 10.025 111.75C10.0083 111.817 9.93333 111.9 9.8 112C9.68333 112.1 9.48333 112.233 9.2 112.4C8.91667 112.567 8.51667 112.825 8 113.175C7.96667 113.258 7.69167 113.45 7.175 113.75C7.375 113.917 7.5 114.025 7.55 114.075C7.61667 114.125 7.7 114.208 7.8 114.325C7.9 114.425 8.06667 114.608 8.3 114.875C8.55 115.125 8.96667 115.542 9.55 116.125C9.86667 116.558 10.225 117.125 10.625 117.825ZM20.4184 111.5C20.685 111.667 20.8184 111.983 20.8184 112.45C20.8184 112.8 20.7267 113.1 20.5434 113.35C20.36 113.6 20.11 113.725 19.7934 113.725C19.5934 113.725 19.385 113.675 19.1684 113.575C18.9684 113.458 18.7517 113.4 18.5184 113.4C18.3184 113.4 18.1184 113.442 17.9184 113.525C17.735 113.592 17.5184 113.75 17.2684 114L16.5184 114.75C16.5184 114.867 16.5184 114.983 16.5184 115.1C16.535 115.217 16.5434 115.342 16.5434 115.475C16.5434 115.675 16.535 115.883 16.5184 116.1C16.5184 116.317 16.51 116.55 16.4934 116.8L16.7184 119.075C16.6684 119.842 16.2767 120.225 15.5434 120.225C15.16 120.225 14.8767 120.108 14.6934 119.875C14.51 119.625 14.385 119.283 14.3184 118.85C14.2517 118.417 14.2184 117.908 14.2184 117.325C14.235 116.742 14.235 116.1 14.2184 115.4C14.185 114.35 14.16 113.825 14.1434 113.825V113.85C14.0767 113.6 14.0267 113.383 13.9934 113.2C13.96 113 13.9434 112.825 13.9434 112.675C13.9434 112.375 14.0517 112.133 14.2684 111.95C14.485 111.75 14.8017 111.65 15.2184 111.65C15.485 111.65 15.8017 111.858 16.1684 112.275C16.5517 111.975 16.8434 111.75 17.0434 111.6C17.26 111.45 17.435 111.342 17.5684 111.275C17.7184 111.208 17.86 111.175 17.9934 111.175C18.1267 111.158 18.3017 111.15 18.5184 111.15C18.7017 111.133 18.8684 111.142 19.0184 111.175C19.185 111.208 19.36 111.242 19.5434 111.275L20.4184 111.5ZM32.1143 119C31.5809 119.533 30.9809 119.983 30.3143 120.35C29.6476 120.733 28.9726 120.925 28.2893 120.925C27.6726 120.925 26.8809 120.825 25.9143 120.625C25.5809 120.408 25.2476 120.15 24.9143 119.85C24.5809 119.533 24.2809 119.192 24.0143 118.825C23.7476 118.442 23.5309 118.033 23.3643 117.6C23.1976 117.15 23.1143 116.692 23.1143 116.225C23.1143 116.092 23.1226 115.917 23.1393 115.7C23.1559 115.467 23.1726 115.242 23.1893 115.025C23.2226 114.792 23.2476 114.592 23.2643 114.425C23.2809 114.258 23.2893 114.175 23.2893 114.175C23.6226 113.642 23.9726 113.117 24.3393 112.6C24.7226 112.067 25.2559 111.6 25.9393 111.2C27.0226 110.967 27.8059 110.85 28.2893 110.85C28.5393 110.85 28.7559 110.867 28.9393 110.9C29.1226 110.917 29.2976 110.967 29.4643 111.05C29.6476 111.117 29.8226 111.225 29.9893 111.375C30.1726 111.525 30.3809 111.717 30.6143 111.95C30.8809 112.233 31.0893 112.425 31.2393 112.525C31.4059 112.625 31.4893 112.717 31.4893 112.8C31.4893 114.333 31.0143 115.375 30.0643 115.925C29.6476 116.075 29.1059 116.242 28.4393 116.425C27.7726 116.592 26.8643 116.75 25.7143 116.9C25.9476 117.533 26.2559 118.008 26.6393 118.325C27.0226 118.642 27.4559 118.8 27.9393 118.8C28.6559 118.8 29.5559 118.375 30.6393 117.525C30.8059 117.375 31.0143 117.3 31.2643 117.3C31.5309 117.3 31.7643 117.4 31.9643 117.6C32.1809 117.8 32.2893 118.05 32.2893 118.35C32.2893 118.567 32.2309 118.783 32.1143 119ZM29.2893 113.65C28.9726 113.133 28.5976 112.875 28.1643 112.875C27.9809 112.875 27.7809 112.9 27.5643 112.95C27.3476 113 27.1226 113.075 26.8893 113.175C26.6726 113.258 26.4643 113.367 26.2643 113.5C26.0809 113.633 25.9309 113.792 25.8143 113.975L25.5643 114.725C26.1309 114.675 26.6309 114.633 27.0643 114.6C27.4976 114.567 27.8726 114.517 28.1893 114.45C28.5059 114.383 28.7559 114.292 28.9393 114.175C29.1226 114.058 29.2393 113.883 29.2893 113.65ZM44.6027 117.05C44.9027 117.25 45.0527 117.492 45.0527 117.775C45.0527 117.925 45.0111 118.083 44.9277 118.25C44.8444 118.4 44.7361 118.542 44.6027 118.675C44.4694 118.792 44.3277 118.892 44.1777 118.975C44.0277 119.058 43.8777 119.1 43.7277 119.1C43.5944 119.05 43.4361 118.967 43.2527 118.85C43.0694 118.717 42.8861 118.575 42.7027 118.425C42.5194 118.258 42.3444 118.075 42.1777 117.875C42.0277 117.675 41.9111 117.475 41.8277 117.275L41.6527 117.7C41.3361 118.3 40.8361 118.867 40.1527 119.4C39.3194 119.55 38.8361 119.625 38.7027 119.625C38.3861 119.625 38.0027 119.575 37.5527 119.475L36.1777 118.5C35.5777 117.933 35.2777 117.158 35.2777 116.175C35.2777 115.825 35.3277 115.442 35.4277 115.025C35.5444 114.592 35.7027 114.158 35.9027 113.725C36.1194 113.292 36.3777 112.867 36.6777 112.45C36.9777 112.033 37.3277 111.658 37.7277 111.325C38.2111 111.142 38.6777 110.992 39.1277 110.875C39.5777 110.742 39.9194 110.658 40.1527 110.625C40.4694 110.275 40.8444 110.1 41.2777 110.1C41.5277 110.1 41.7444 110.225 41.9277 110.475C42.1277 110.708 42.2944 111.008 42.4277 111.375C42.5777 111.742 42.6944 112.15 42.7777 112.6C42.8611 113.033 42.9194 113.45 42.9527 113.85L43.2777 115.175C43.3777 115.592 43.5361 115.95 43.7527 116.25C43.9861 116.55 44.2694 116.817 44.6027 117.05ZM40.8027 114.275C40.7694 114.258 40.6444 113.733 40.4277 112.7C40.3444 112.7 40.2194 112.7 40.0527 112.7C39.8861 112.7 39.6861 112.75 39.4527 112.85C39.2361 112.933 38.9944 113.092 38.7277 113.325C38.4777 113.542 38.2361 113.875 38.0027 114.325C37.6527 114.975 37.4777 115.625 37.4777 116.275C37.7611 116.825 38.2027 117.258 38.8027 117.575C38.9861 117.525 39.1361 117.467 39.2527 117.4C39.3861 117.333 39.5027 117.242 39.6027 117.125C39.7027 117.008 39.7944 116.867 39.8777 116.7C39.9777 116.517 40.0861 116.292 40.2027 116.025C40.4194 115.642 40.5694 115.308 40.6527 115.025C40.7527 114.725 40.8027 114.475 40.8027 114.275ZM53.6982 110.575C53.8816 110.725 53.9732 111 53.9732 111.4C53.9732 112.133 53.6982 112.5 53.1482 112.5H53.0482C52.7982 112.517 52.5066 112.542 52.1732 112.575C51.8399 112.592 51.4649 112.625 51.0482 112.675C51.0149 112.942 50.9816 113.3 50.9482 113.75C50.9149 114.183 50.8982 114.708 50.8982 115.325C50.8982 115.375 50.8982 115.425 50.8982 115.475C50.9149 115.525 50.9232 115.583 50.9232 115.65V116.8C50.9232 117.067 50.9649 117.283 51.0482 117.45C51.1482 117.6 51.2649 117.708 51.3982 117.775L52.0982 118C52.6482 118.183 52.9232 118.517 52.9232 119C52.9232 119.283 52.8066 119.533 52.5732 119.75C52.3566 119.967 52.0732 120.075 51.7232 120.075C51.6232 120.075 51.4482 120.05 51.1982 120C50.9649 119.933 50.7149 119.85 50.4482 119.75C50.1982 119.65 49.9566 119.525 49.7232 119.375C49.5066 119.225 49.3566 119.058 49.2732 118.875C49.0899 118.492 48.9399 118.092 48.8232 117.675C48.7066 117.242 48.6482 116.792 48.6482 116.325C48.6482 115.808 48.6566 115.442 48.6732 115.225C48.6899 115.008 48.7066 114.817 48.7232 114.65C48.7399 114.483 48.7566 114.283 48.7732 114.05C48.7899 113.817 48.7982 113.433 48.7982 112.9C48.4816 112.933 48.0149 113.033 47.3982 113.2C47.0316 113.2 46.7149 113.108 46.4482 112.925C46.1982 112.725 46.0732 112.467 46.0732 112.15C46.0732 111.917 46.1399 111.7 46.2732 111.5C46.4232 111.3 46.7232 111.125 47.1732 110.975C47.3232 110.925 47.4566 110.892 47.5732 110.875C47.7066 110.858 47.8316 110.842 47.9482 110.825C48.0816 110.808 48.2232 110.8 48.3732 110.8C48.5232 110.783 48.7066 110.758 48.9232 110.725C48.9399 110.308 48.9649 109.842 48.9982 109.325C49.0482 108.792 49.1232 108.3 49.2232 107.85C49.3399 107.4 49.4982 107.025 49.6982 106.725C49.9149 106.408 50.1982 106.25 50.5482 106.25C51.1482 106.25 51.5149 106.525 51.6482 107.075C51.6482 107.092 51.6232 107.208 51.5732 107.425C51.5399 107.625 51.4982 107.85 51.4482 108.1C51.3982 108.35 51.3482 108.592 51.2982 108.825C51.2649 109.058 51.2482 109.208 51.2482 109.275L51.1732 110.5C51.2899 110.483 51.3982 110.475 51.4982 110.475C51.5982 110.458 51.7066 110.45 51.8232 110.45H52.0482C52.1649 110.45 52.2732 110.45 52.3732 110.45C52.4732 110.433 52.5649 110.425 52.6482 110.425C53.1482 110.425 53.4982 110.475 53.6982 110.575ZM60.4652 108.225C60.4986 108.358 60.5152 108.483 60.5152 108.6C60.5152 109.133 60.3569 109.583 60.0402 109.95C59.5402 110.15 59.0402 110.25 58.5402 110.25C58.2236 110.05 57.9569 109.825 57.7402 109.575C57.5402 109.308 57.4402 109.05 57.4402 108.8C57.4402 108.583 57.6902 108.05 58.1902 107.2C58.4069 107.233 58.6319 107.258 58.8652 107.275C59.1152 107.292 59.3402 107.333 59.5402 107.4C59.7569 107.467 59.9402 107.567 60.0902 107.7C60.2569 107.817 60.3819 107.992 60.4652 108.225ZM59.6652 112.4V112.725C59.6652 112.808 59.6652 112.9 59.6652 113C59.6652 113.1 59.6486 113.192 59.6152 113.275L59.4152 114.4V114.625C59.4152 114.725 59.4069 114.858 59.3902 115.025C59.3736 115.192 59.3486 115.358 59.3152 115.525C59.2986 115.692 59.2819 115.85 59.2652 116C59.2486 116.15 59.2402 116.275 59.2402 116.375C59.2402 116.458 59.2402 116.525 59.2402 116.575C59.2569 116.625 59.2652 116.692 59.2652 116.775C59.2652 116.925 59.2486 117.092 59.2152 117.275C59.1819 117.442 59.1652 117.633 59.1652 117.85C59.1652 118.05 59.1902 118.258 59.2402 118.475C59.0569 119.225 58.6736 119.6 58.0902 119.6C57.2736 119.6 56.8652 118.833 56.8652 117.3C56.8652 116.783 56.8902 116.275 56.9402 115.775C56.9902 115.258 57.0486 114.783 57.1152 114.35C57.1819 113.917 57.2486 113.542 57.3152 113.225C57.3986 112.892 57.4652 112.633 57.5152 112.45C57.7652 112.083 58.1152 111.9 58.5652 111.9C58.9986 111.9 59.3652 112.067 59.6652 112.4ZM73.0051 111.575C72.9551 111.942 72.5967 112.733 71.9301 113.95L71.1801 115.625C71.0301 116.008 70.8967 116.333 70.7801 116.6C70.6634 116.867 70.5551 117.1 70.4551 117.3C70.3717 117.483 70.2801 117.65 70.1801 117.8C70.0967 117.933 70.0051 118.067 69.9051 118.2C69.8217 118.4 69.7051 118.608 69.5551 118.825C69.4051 119.025 69.2301 119.217 69.0301 119.4C68.8301 119.583 68.6134 119.733 68.3801 119.85C68.1467 119.967 67.9051 120.025 67.6551 120.025C66.9551 120.025 66.4551 119.583 66.1551 118.7C65.9717 118.5 65.7967 118.242 65.6301 117.925C65.4634 117.608 65.3134 117.3 65.1801 117C65.0634 116.7 64.9634 116.442 64.8801 116.225C64.7967 115.992 64.7467 115.858 64.7301 115.825C64.5301 115.408 64.4301 114.917 64.4301 114.35V114.15C64.1134 113.35 63.9551 112.617 63.9551 111.95C63.9551 111.633 64.0801 111.4 64.3301 111.25C64.5967 111.1 64.8967 111.025 65.2301 111.025C65.4301 111.025 65.5884 111.075 65.7051 111.175C65.8384 111.258 65.9384 111.392 66.0051 111.575C66.0884 111.742 66.1551 111.95 66.2051 112.2C66.2551 112.45 66.3134 112.733 66.3801 113.05C66.4967 113.6 66.5967 114.058 66.6801 114.425C66.7801 114.792 66.8801 115.117 66.9801 115.4C67.0967 115.683 67.2301 115.967 67.3801 116.25C67.5301 116.517 67.7217 116.833 67.9551 117.2C68.3717 116.733 68.6551 116.183 68.8051 115.55C68.9217 115.333 69.0134 115.125 69.0801 114.925C69.1634 114.708 69.2717 114.433 69.4051 114.1C69.5384 113.767 69.7301 113.342 69.9801 112.825C70.2301 112.292 70.5967 111.608 71.0801 110.775C71.2634 110.542 71.4884 110.425 71.7551 110.425C72.0551 110.425 72.3384 110.542 72.6051 110.775C72.8717 111.008 73.0051 111.25 73.0051 111.5V111.575Z" fill="#0A2CA5"/>
<path d="M31.575 8.85C31.5417 9.26667 31.4417 9.74167 31.275 10.275C31.125 10.7917 31.0167 11.2167 30.95 11.55V11.85C30.95 12.0833 30.9333 12.3333 30.9 12.6C30.8667 12.8667 30.8333 13.125 30.8 13.375C30.7667 13.6083 30.725 13.8167 30.675 14C30.6417 14.1833 30.625 14.3083 30.625 14.375C30.6083 14.4583 30.6 14.6583 30.6 14.975C30.6 15.2917 30.6 15.7167 30.6 16.25V16.55C30.6 16.8833 30.5833 17.175 30.55 17.425C30.5167 17.675 30.475 17.9 30.425 18.1L30.65 19.975C30.7167 20.1583 30.9417 20.4333 31.325 20.8C31.2417 21.1 31.025 21.375 30.675 21.625C30.325 21.8583 29.9667 21.975 29.6 21.975C29.1 21.975 28.7167 21.7417 28.45 21.275C28.2 20.7917 28.075 19.9917 28.075 18.875C28.075 18.6917 28.0833 18.5333 28.1 18.4C28.1333 18.2667 28.15 18.1 28.15 17.9C28.15 17.5 28.1 17 28 16.4C28.0833 16.2167 28.1417 15.9833 28.175 15.7C28.225 15.4167 28.2583 15.15 28.275 14.9C28.2917 14.6333 28.3 14.4083 28.3 14.225C28.3 14.0417 28.3 13.9667 28.3 14C28.3 14.0167 28.3167 13.9 28.35 13.65C28.4 13.4 28.45 13.1083 28.5 12.775C28.55 12.425 28.5917 12.0667 28.625 11.7C28.675 11.3333 28.7 11.0417 28.7 10.825V10.625L29.125 8.525C29.3417 8.15833 29.7167 7.975 30.25 7.975C30.8333 7.975 31.275 8.26667 31.575 8.85ZM44.4689 19.05C44.7689 19.25 44.9189 19.4917 44.9189 19.775C44.9189 19.925 44.8773 20.0833 44.7939 20.25C44.7106 20.4 44.6023 20.5417 44.4689 20.675C44.3356 20.7917 44.1939 20.8917 44.0439 20.975C43.8939 21.0583 43.7439 21.1 43.5939 21.1C43.4606 21.05 43.3023 20.9667 43.1189 20.85C42.9356 20.7167 42.7523 20.575 42.5689 20.425C42.3856 20.2583 42.2106 20.075 42.0439 19.875C41.8939 19.675 41.7773 19.475 41.6939 19.275L41.5189 19.7C41.2023 20.3 40.7023 20.8667 40.0189 21.4C39.1856 21.55 38.7023 21.625 38.5689 21.625C38.2523 21.625 37.8689 21.575 37.4189 21.475L36.0439 20.5C35.4439 19.9333 35.1439 19.1583 35.1439 18.175C35.1439 17.825 35.1939 17.4417 35.2939 17.025C35.4106 16.5917 35.5689 16.1583 35.7689 15.725C35.9856 15.2917 36.2439 14.8667 36.5439 14.45C36.8439 14.0333 37.1939 13.6583 37.5939 13.325C38.0773 13.1417 38.5439 12.9917 38.9939 12.875C39.4439 12.7417 39.7856 12.6583 40.0189 12.625C40.3356 12.275 40.7106 12.1 41.1439 12.1C41.3939 12.1 41.6106 12.225 41.7939 12.475C41.9939 12.7083 42.1606 13.0083 42.2939 13.375C42.4439 13.7417 42.5606 14.15 42.6439 14.6C42.7273 15.0333 42.7856 15.45 42.8189 15.85L43.1439 17.175C43.2439 17.5917 43.4023 17.95 43.6189 18.25C43.8523 18.55 44.1356 18.8167 44.4689 19.05ZM40.6689 16.275C40.6356 16.2583 40.5106 15.7333 40.2939 14.7C40.2106 14.7 40.0856 14.7 39.9189 14.7C39.7523 14.7 39.5523 14.75 39.3189 14.85C39.1023 14.9333 38.8606 15.0917 38.5939 15.325C38.3439 15.5417 38.1023 15.875 37.8689 16.325C37.5189 16.975 37.3439 17.625 37.3439 18.275C37.6273 18.825 38.0689 19.2583 38.6689 19.575C38.8523 19.525 39.0023 19.4667 39.1189 19.4C39.2523 19.3333 39.3689 19.2417 39.4689 19.125C39.5689 19.0083 39.6606 18.8667 39.7439 18.7C39.8439 18.5167 39.9523 18.2917 40.0689 18.025C40.2856 17.6417 40.4356 17.3083 40.5189 17.025C40.6189 16.725 40.6689 16.475 40.6689 16.275ZM56.0645 21C55.5311 21.5333 54.9311 21.9833 54.2645 22.35C53.5978 22.7333 52.9228 22.925 52.2395 22.925C51.6228 22.925 50.8311 22.825 49.8645 22.625C49.5311 22.4083 49.1978 22.15 48.8645 21.85C48.5311 21.5333 48.2311 21.1917 47.9645 20.825C47.6978 20.4417 47.4811 20.0333 47.3145 19.6C47.1478 19.15 47.0645 18.6917 47.0645 18.225C47.0645 18.0917 47.0728 17.9167 47.0895 17.7C47.1061 17.4667 47.1228 17.2417 47.1395 17.025C47.1728 16.7917 47.1978 16.5917 47.2145 16.425C47.2311 16.2583 47.2395 16.175 47.2395 16.175C47.5728 15.6417 47.9228 15.1167 48.2895 14.6C48.6728 14.0667 49.2061 13.6 49.8895 13.2C50.9728 12.9667 51.7561 12.85 52.2395 12.85C52.4895 12.85 52.7061 12.8667 52.8895 12.9C53.0728 12.9167 53.2478 12.9667 53.4145 13.05C53.5978 13.1167 53.7728 13.225 53.9395 13.375C54.1228 13.525 54.3311 13.7167 54.5645 13.95C54.8311 14.2333 55.0395 14.425 55.1895 14.525C55.3561 14.625 55.4395 14.7167 55.4395 14.8C55.4395 16.3333 54.9645 17.375 54.0145 17.925C53.5978 18.075 53.0561 18.2417 52.3895 18.425C51.7228 18.5917 50.8145 18.75 49.6645 18.9C49.8978 19.5333 50.2061 20.0083 50.5895 20.325C50.9728 20.6417 51.4061 20.8 51.8895 20.8C52.6061 20.8 53.5061 20.375 54.5895 19.525C54.7561 19.375 54.9645 19.3 55.2145 19.3C55.4811 19.3 55.7145 19.4 55.9145 19.6C56.1311 19.8 56.2395 20.05 56.2395 20.35C56.2395 20.5667 56.1811 20.7833 56.0645 21ZM53.2395 15.65C52.9228 15.1333 52.5478 14.875 52.1145 14.875C51.9311 14.875 51.7311 14.9 51.5145 14.95C51.2978 15 51.0728 15.075 50.8395 15.175C50.6228 15.2583 50.4145 15.3667 50.2145 15.5C50.0311 15.6333 49.8811 15.7917 49.7645 15.975L49.5145 16.725C50.0811 16.675 50.5811 16.6333 51.0145 16.6C51.4478 16.5667 51.8228 16.5167 52.1395 16.45C52.4561 16.3833 52.7061 16.2917 52.8895 16.175C53.0728 16.0583 53.1895 15.8833 53.2395 15.65ZM66.3529 13.5C66.6196 13.6667 66.7529 13.9833 66.7529 14.45C66.7529 14.8 66.6613 15.1 66.4779 15.35C66.2946 15.6 66.0446 15.725 65.7279 15.725C65.5279 15.725 65.3196 15.675 65.1029 15.575C64.9029 15.4583 64.6863 15.4 64.4529 15.4C64.2529 15.4 64.0529 15.4417 63.8529 15.525C63.6696 15.5917 63.4529 15.75 63.2029 16L62.4529 16.75C62.4529 16.8667 62.4529 16.9833 62.4529 17.1C62.4696 17.2167 62.4779 17.3417 62.4779 17.475C62.4779 17.675 62.4696 17.8833 62.4529 18.1C62.4529 18.3167 62.4446 18.55 62.4279 18.8L62.6529 21.075C62.6029 21.8417 62.2113 22.225 61.4779 22.225C61.0946 22.225 60.8113 22.1083 60.6279 21.875C60.4446 21.625 60.3196 21.2833 60.2529 20.85C60.1863 20.4167 60.1529 19.9083 60.1529 19.325C60.1696 18.7417 60.1696 18.1 60.1529 17.4C60.1196 16.35 60.0946 15.825 60.0779 15.825V15.85C60.0113 15.6 59.9613 15.3833 59.9279 15.2C59.8946 15 59.8779 14.825 59.8779 14.675C59.8779 14.375 59.9863 14.1333 60.2029 13.95C60.4196 13.75 60.7363 13.65 61.1529 13.65C61.4196 13.65 61.7363 13.8583 62.1029 14.275C62.4863 13.975 62.7779 13.75 62.9779 13.6C63.1946 13.45 63.3696 13.3417 63.5029 13.275C63.6529 13.2083 63.7946 13.175 63.9279 13.175C64.0613 13.1583 64.2363 13.15 64.4529 13.15C64.6363 13.1333 64.8029 13.1417 64.9529 13.175C65.1196 13.2083 65.2946 13.2417 65.4779 13.275L66.3529 13.5ZM78.0488 21C77.5155 21.5333 76.9155 21.9833 76.2488 22.35C75.5822 22.7333 74.9072 22.925 74.2238 22.925C73.6072 22.925 72.8155 22.825 71.8488 22.625C71.5155 22.4083 71.1822 22.15 70.8488 21.85C70.5155 21.5333 70.2155 21.1917 69.9488 20.825C69.6822 20.4417 69.4655 20.0333 69.2988 19.6C69.1322 19.15 69.0488 18.6917 69.0488 18.225C69.0488 18.0917 69.0572 17.9167 69.0738 17.7C69.0905 17.4667 69.1072 17.2417 69.1238 17.025C69.1572 16.7917 69.1822 16.5917 69.1988 16.425C69.2155 16.2583 69.2238 16.175 69.2238 16.175C69.5572 15.6417 69.9072 15.1167 70.2738 14.6C70.6572 14.0667 71.1905 13.6 71.8738 13.2C72.9572 12.9667 73.7405 12.85 74.2238 12.85C74.4738 12.85 74.6905 12.8667 74.8738 12.9C75.0572 12.9167 75.2322 12.9667 75.3988 13.05C75.5822 13.1167 75.7572 13.225 75.9238 13.375C76.1072 13.525 76.3155 13.7167 76.5488 13.95C76.8155 14.2333 77.0238 14.425 77.1738 14.525C77.3405 14.625 77.4238 14.7167 77.4238 14.8C77.4238 16.3333 76.9488 17.375 75.9988 17.925C75.5822 18.075 75.0405 18.2417 74.3738 18.425C73.7072 18.5917 72.7988 18.75 71.6488 18.9C71.8822 19.5333 72.1905 20.0083 72.5738 20.325C72.9572 20.6417 73.3905 20.8 73.8738 20.8C74.5905 20.8 75.4905 20.375 76.5738 19.525C76.7405 19.375 76.9488 19.3 77.1988 19.3C77.4655 19.3 77.6988 19.4 77.8988 19.6C78.1155 19.8 78.2238 20.05 78.2238 20.35C78.2238 20.5667 78.1655 20.7833 78.0488 21ZM75.2238 15.65C74.9072 15.1333 74.5322 14.875 74.0988 14.875C73.9155 14.875 73.7155 14.9 73.4988 14.95C73.2822 15 73.0572 15.075 72.8238 15.175C72.6072 15.2583 72.3988 15.3667 72.1988 15.5C72.0155 15.6333 71.8655 15.7917 71.7488 15.975L71.4988 16.725C72.0655 16.675 72.5655 16.6333 72.9988 16.6C73.4322 16.5667 73.8072 16.5167 74.1238 16.45C74.4405 16.3833 74.6905 16.2917 74.8738 16.175C75.0572 16.0583 75.1738 15.8833 75.2238 15.65ZM89.7123 19.225V19.425C89.7123 19.525 89.7123 19.7083 89.7123 19.975C89.729 20.225 89.704 20.4833 89.6373 20.75C89.5873 21.0167 89.479 21.2583 89.3123 21.475C89.1456 21.675 88.8956 21.775 88.5623 21.775C87.9123 21.775 87.529 21.5167 87.4123 21C87.429 20.9 87.4373 20.7917 87.4373 20.675C87.4373 20.5417 87.4373 20.4 87.4373 20.25C87.4373 20.1833 87.4373 19.9417 87.4373 19.525C87.4373 19.0917 87.4206 18.625 87.3873 18.125C87.3706 17.625 87.3206 17.1583 87.2373 16.725C87.154 16.275 87.029 15.9917 86.8623 15.875C86.479 15.6083 86.1373 15.475 85.8373 15.475C85.4373 15.475 85.0956 15.6 84.8123 15.85C84.5456 16.0833 84.3206 16.55 84.1373 17.25C84.1206 17.4833 84.104 17.75 84.0873 18.05C84.0706 18.3333 84.0456 18.6583 84.0123 19.025C84.0123 19.3083 84.0206 19.625 84.0373 19.975C84.054 20.3083 84.079 20.6917 84.1123 21.125C84.1123 21.4417 83.9873 21.7083 83.7373 21.925C83.4873 22.125 83.204 22.225 82.8873 22.225C82.6373 22.225 82.4373 22.1583 82.2873 22.025C82.1373 21.8917 82.0206 21.7167 81.9373 21.5C81.8706 21.2833 81.8206 21.05 81.7873 20.8C81.7706 20.55 81.7623 20.3 81.7623 20.05C81.7623 19.8667 81.7706 19.6833 81.7873 19.5C81.804 19.3 81.829 19.1 81.8623 18.9L82.0623 16.5L82.2623 15.3C82.229 15.1 82.1623 14.8833 82.0623 14.65C81.9623 14.4167 81.9123 14.2333 81.9123 14.1C81.9123 13.8167 82.0206 13.5583 82.2373 13.325C82.4706 13.0917 82.754 12.975 83.0873 12.975C83.3206 12.975 83.4956 13.025 83.6123 13.125C83.729 13.2083 83.9206 13.425 84.1873 13.775C84.5206 13.625 84.7873 13.5333 84.9873 13.5C85.1873 13.45 85.4206 13.425 85.6873 13.425C86.554 13.425 87.3123 13.6333 87.9623 14.05C88.629 14.45 89.0456 15.125 89.2123 16.075C89.2623 16.425 89.304 16.7167 89.3373 16.95C89.3873 17.1833 89.429 17.4083 89.4623 17.625C89.4956 17.8417 89.529 18.075 89.5623 18.325C89.5956 18.5583 89.6456 18.8583 89.7123 19.225ZM102.328 21C101.795 21.5333 101.195 21.9833 100.528 22.35C99.8615 22.7333 99.1865 22.925 98.5031 22.925C97.8865 22.925 97.0948 22.825 96.1281 22.625C95.7948 22.4083 95.4615 22.15 95.1281 21.85C94.7948 21.5333 94.4948 21.1917 94.2281 20.825C93.9615 20.4417 93.7448 20.0333 93.5781 19.6C93.4115 19.15 93.3281 18.6917 93.3281 18.225C93.3281 18.0917 93.3365 17.9167 93.3531 17.7C93.3698 17.4667 93.3865 17.2417 93.4031 17.025C93.4365 16.7917 93.4615 16.5917 93.4781 16.425C93.4948 16.2583 93.5031 16.175 93.5031 16.175C93.8365 15.6417 94.1865 15.1167 94.5531 14.6C94.9365 14.0667 95.4698 13.6 96.1531 13.2C97.2365 12.9667 98.0198 12.85 98.5031 12.85C98.7531 12.85 98.9698 12.8667 99.1531 12.9C99.3365 12.9167 99.5115 12.9667 99.6781 13.05C99.8615 13.1167 100.036 13.225 100.203 13.375C100.386 13.525 100.595 13.7167 100.828 13.95C101.095 14.2333 101.303 14.425 101.453 14.525C101.62 14.625 101.703 14.7167 101.703 14.8C101.703 16.3333 101.228 17.375 100.278 17.925C99.8615 18.075 99.3198 18.2417 98.6531 18.425C97.9865 18.5917 97.0781 18.75 95.9281 18.9C96.1615 19.5333 96.4698 20.0083 96.8531 20.325C97.2365 20.6417 97.6698 20.8 98.1531 20.8C98.8698 20.8 99.7698 20.375 100.853 19.525C101.02 19.375 101.228 19.3 101.478 19.3C101.745 19.3 101.978 19.4 102.178 19.6C102.395 19.8 102.503 20.05 102.503 20.35C102.503 20.5667 102.445 20.7833 102.328 21ZM99.5031 15.65C99.1865 15.1333 98.8115 14.875 98.3781 14.875C98.1948 14.875 97.9948 14.9 97.7781 14.95C97.5615 15 97.3365 15.075 97.1031 15.175C96.8865 15.2583 96.6781 15.3667 96.4781 15.5C96.2948 15.6333 96.1448 15.7917 96.0281 15.975L95.7781 16.725C96.3448 16.675 96.8448 16.6333 97.2781 16.6C97.7115 16.5667 98.0865 16.5167 98.4031 16.45C98.7198 16.3833 98.9698 16.2917 99.1531 16.175C99.3365 16.0583 99.4531 15.8833 99.5031 15.65ZM120.367 20.575C120.367 20.7917 120.242 20.975 119.992 21.125C119.758 21.2583 119.5 21.325 119.217 21.325C118.883 21.325 118.633 21.2167 118.467 21C118.317 20.7833 118.208 20.5083 118.142 20.175C118.075 19.825 118.033 19.4417 118.017 19.025C118.017 18.6083 118.008 18.2083 117.992 17.825C117.958 17.7083 117.917 17.5417 117.867 17.325C117.817 17.1083 117.775 16.8333 117.742 16.5C117.292 16 116.75 15.75 116.117 15.75C115.883 15.75 115.65 15.775 115.417 15.825C115.183 15.8583 114.967 15.95 114.767 16.1C114.567 16.2333 114.383 16.4417 114.217 16.725C114.05 17.0083 113.917 17.3917 113.817 17.875C113.833 17.9583 113.842 18.1083 113.842 18.325C113.842 18.5083 113.825 18.7333 113.792 19C113.775 19.25 113.75 19.5417 113.717 19.875V20C113.717 20.0667 113.717 20.2333 113.717 20.5C113.717 20.75 113.683 21.0167 113.617 21.3C113.55 21.5667 113.425 21.8083 113.242 22.025C113.075 22.2417 112.825 22.35 112.492 22.35C112.192 22.35 111.925 22.2583 111.692 22.075C111.458 21.9083 111.342 21.7 111.342 21.45C111.342 21.4167 111.35 21.2917 111.367 21.075C111.4 20.8583 111.433 20.6167 111.467 20.35C111.517 20.0667 111.55 19.7917 111.567 19.525C111.6 19.2417 111.617 19.0167 111.617 18.85C111.617 18.5667 111.592 18.2833 111.542 18V17.675C111.542 16.825 111.375 16.025 111.042 15.275C110.792 15.075 110.4 14.9417 109.867 14.875C109.767 14.9083 109.642 14.9583 109.492 15.025C109.342 15.0917 109.192 15.2333 109.042 15.45C108.892 15.65 108.758 15.9417 108.642 16.325C108.525 16.7083 108.442 17.225 108.392 17.875L108.317 18.9C108.417 19.4 108.467 19.8333 108.467 20.2C108.467 20.6333 108.392 20.9833 108.242 21.25C108.108 21.5 107.8 21.625 107.317 21.625C107.067 21.625 106.858 21.6 106.692 21.55C106.542 21.4833 106.417 21.35 106.317 21.15C106.233 20.9333 106.175 20.625 106.142 20.225C106.108 19.8083 106.092 19.2583 106.092 18.575C106.092 18.025 106.125 17.4917 106.192 16.975C106.258 16.4417 106.358 15.7583 106.492 14.925C106.442 14.6417 106.367 14.3833 106.267 14.15C106.183 13.9 106.142 13.7083 106.142 13.575C106.142 13.2917 106.267 13.0417 106.517 12.825C106.767 12.6083 107.058 12.5 107.392 12.5C107.642 12.5 107.867 12.575 108.067 12.725L108.492 13.275C108.692 13.1083 108.867 12.9833 109.017 12.9C109.167 12.8 109.3 12.725 109.417 12.675C109.533 12.625 109.65 12.6 109.767 12.6C109.883 12.5833 110.017 12.575 110.167 12.575C110.383 12.575 110.55 12.575 110.667 12.575C110.8 12.575 110.933 12.6 111.067 12.65C111.2 12.7 111.35 12.7833 111.517 12.9C111.7 13 111.95 13.1583 112.267 13.375C112.467 13.5083 112.733 13.9417 113.067 14.675L113.217 14.5C113.35 14.3833 113.533 14.2667 113.767 14.15C114 14.0333 114.25 13.9333 114.517 13.85C114.8 13.75 115.083 13.675 115.367 13.625C115.667 13.5583 115.933 13.525 116.167 13.525C116.717 13.525 117.192 13.5833 117.592 13.7C117.992 13.8 118.333 13.9583 118.617 14.175C118.9 14.375 119.15 14.6417 119.367 14.975C119.583 15.2917 119.792 15.6583 119.992 16.075V16.25C119.992 16.3833 120.008 16.625 120.042 16.975C120.075 17.325 120.108 17.675 120.142 18.025C120.175 18.375 120.208 18.6833 120.242 18.95C120.275 19.2 120.292 19.3083 120.292 19.275C120.292 19.2917 120.292 19.35 120.292 19.45C120.308 19.5333 120.317 19.6417 120.317 19.775C120.333 19.8917 120.342 20.0167 120.342 20.15C120.358 20.2667 120.367 20.3583 120.367 20.425V20.575Z" fill="#0A2CA5"/>
<path d="M472.925 60.775C472.875 60.925 472.85 61.2167 472.85 61.65C472.85 61.9 472.85 62.2167 472.85 62.6C472.867 62.9833 472.875 63.3 472.875 63.55C472.875 63.7833 472.875 63.9917 472.875 64.175C472.875 64.3583 472.858 64.5083 472.825 64.625C472.842 64.6917 472.85 64.7667 472.85 64.85C472.85 64.9333 472.85 65.025 472.85 65.125C472.85 65.3583 472.833 65.6583 472.8 66.025C472.767 66.375 472.75 66.6167 472.75 66.75C472.75 66.7833 472.75 66.8167 472.75 66.85C472.767 66.8667 472.775 66.8917 472.775 66.925C472.625 67.825 472.525 68.6417 472.475 69.375C472.442 70.0917 472.383 70.7083 472.3 71.225C472.233 71.7417 472.108 72.1417 471.925 72.425C471.758 72.6917 471.467 72.825 471.05 72.825C470.7 72.825 470.392 72.7417 470.125 72.575V72.4C469.625 72.6167 468.958 72.725 468.125 72.725C467.575 72.725 467.067 72.625 466.6 72.425C466.15 72.225 465.758 71.95 465.425 71.6C465.092 71.2333 464.833 70.8083 464.65 70.325C464.467 69.8417 464.375 69.3167 464.375 68.75C464.375 68.4333 464.408 68.125 464.475 67.825C464.558 67.5083 464.658 67.2167 464.775 66.95C464.892 66.6667 465.017 66.4167 465.15 66.2C465.3 65.9667 465.442 65.775 465.575 65.625C465.908 65.2583 466.392 64.925 467.025 64.625C467.658 64.325 468.333 64.175 469.05 64.175C469.533 64.175 470.025 64.2667 470.525 64.45C470.525 64.2 470.533 63.9 470.55 63.55C470.583 63.2 470.617 62.7917 470.65 62.325L470.55 60.625C470.55 60.5417 470.542 60.475 470.525 60.425C470.525 60.3583 470.525 60.2917 470.525 60.225C470.525 59.675 470.592 59.2583 470.725 58.975C470.875 58.6917 471.167 58.55 471.6 58.55C471.867 58.55 472.075 58.5833 472.225 58.65C472.392 58.7167 472.517 58.8333 472.6 59C472.7 59.15 472.767 59.375 472.8 59.675C472.833 59.9583 472.875 60.325 472.925 60.775ZM470.35 66.75C470.017 66.5167 469.608 66.4 469.125 66.4C468.775 66.4 468.475 66.425 468.225 66.475C467.992 66.525 467.792 66.6167 467.625 66.75C467.458 66.8667 467.317 67.0333 467.2 67.25C467.083 67.45 466.967 67.7 466.85 68C466.75 68.2833 466.7 68.55 466.7 68.8C466.7 69.3333 466.883 69.75 467.25 70.05C467.633 70.35 468.092 70.5 468.625 70.5C469.092 70.5 469.542 70.3333 469.975 70C470.125 69.3167 470.225 68.8417 470.275 68.575C470.342 68.2917 470.375 68.05 470.375 67.85C470.375 67.6667 470.367 67.5 470.35 67.35C470.333 67.1833 470.325 67.0417 470.325 66.925C470.325 66.8917 470.325 66.8667 470.325 66.85C470.342 66.8167 470.35 66.7833 470.35 66.75ZM485.539 72C485.006 72.5333 484.406 72.9833 483.739 73.35C483.072 73.7333 482.397 73.925 481.714 73.925C481.097 73.925 480.306 73.825 479.339 73.625C479.006 73.4083 478.672 73.15 478.339 72.85C478.006 72.5333 477.706 72.1917 477.439 71.825C477.172 71.4417 476.956 71.0333 476.789 70.6C476.622 70.15 476.539 69.6917 476.539 69.225C476.539 69.0917 476.547 68.9167 476.564 68.7C476.581 68.4667 476.597 68.2417 476.614 68.025C476.647 67.7917 476.672 67.5917 476.689 67.425C476.706 67.2583 476.714 67.175 476.714 67.175C477.047 66.6417 477.397 66.1167 477.764 65.6C478.147 65.0667 478.681 64.6 479.364 64.2C480.447 63.9667 481.231 63.85 481.714 63.85C481.964 63.85 482.181 63.8667 482.364 63.9C482.547 63.9167 482.722 63.9667 482.889 64.05C483.072 64.1167 483.247 64.225 483.414 64.375C483.597 64.525 483.806 64.7167 484.039 64.95C484.306 65.2333 484.514 65.425 484.664 65.525C484.831 65.625 484.914 65.7167 484.914 65.8C484.914 67.3333 484.439 68.375 483.489 68.925C483.072 69.075 482.531 69.2417 481.864 69.425C481.197 69.5917 480.289 69.75 479.139 69.9C479.372 70.5333 479.681 71.0083 480.064 71.325C480.447 71.6417 480.881 71.8 481.364 71.8C482.081 71.8 482.981 71.375 484.064 70.525C484.231 70.375 484.439 70.3 484.689 70.3C484.956 70.3 485.189 70.4 485.389 70.6C485.606 70.8 485.714 71.05 485.714 71.35C485.714 71.5667 485.656 71.7833 485.539 72ZM482.714 66.65C482.397 66.1333 482.022 65.875 481.589 65.875C481.406 65.875 481.206 65.9 480.989 65.95C480.772 66 480.547 66.075 480.314 66.175C480.097 66.2583 479.889 66.3667 479.689 66.5C479.506 66.6333 479.356 66.7917 479.239 66.975L478.989 67.725C479.556 67.675 480.056 67.6333 480.489 67.6C480.922 67.5667 481.297 67.5167 481.614 67.45C481.931 67.3833 482.181 67.2917 482.364 67.175C482.547 67.0583 482.664 66.8833 482.714 66.65ZM495.228 63.575C495.411 63.725 495.503 64 495.503 64.4C495.503 65.1333 495.228 65.5 494.678 65.5H494.578C494.328 65.5167 494.036 65.5417 493.703 65.575C493.369 65.5917 492.994 65.625 492.578 65.675C492.544 65.9417 492.511 66.3 492.478 66.75C492.444 67.1833 492.428 67.7083 492.428 68.325C492.428 68.375 492.428 68.425 492.428 68.475C492.444 68.525 492.453 68.5833 492.453 68.65V69.8C492.453 70.0667 492.494 70.2833 492.578 70.45C492.678 70.6 492.794 70.7083 492.928 70.775L493.628 71C494.178 71.1833 494.453 71.5167 494.453 72C494.453 72.2833 494.336 72.5333 494.103 72.75C493.886 72.9667 493.603 73.075 493.253 73.075C493.153 73.075 492.978 73.05 492.728 73C492.494 72.9333 492.244 72.85 491.978 72.75C491.728 72.65 491.486 72.525 491.253 72.375C491.036 72.225 490.886 72.0583 490.803 71.875C490.619 71.4917 490.469 71.0917 490.353 70.675C490.236 70.2417 490.178 69.7917 490.178 69.325C490.178 68.8083 490.186 68.4417 490.203 68.225C490.219 68.0083 490.236 67.8167 490.253 67.65C490.269 67.4833 490.286 67.2833 490.303 67.05C490.319 66.8167 490.328 66.4333 490.328 65.9C490.011 65.9333 489.544 66.0333 488.928 66.2C488.561 66.2 488.244 66.1083 487.978 65.925C487.728 65.725 487.603 65.4667 487.603 65.15C487.603 64.9167 487.669 64.7 487.803 64.5C487.953 64.3 488.253 64.125 488.703 63.975C488.853 63.925 488.986 63.8917 489.103 63.875C489.236 63.8583 489.361 63.8417 489.478 63.825C489.611 63.8083 489.753 63.8 489.903 63.8C490.053 63.7833 490.236 63.7583 490.453 63.725C490.469 63.3083 490.494 62.8417 490.528 62.325C490.578 61.7917 490.653 61.3 490.753 60.85C490.869 60.4 491.028 60.025 491.228 59.725C491.444 59.4083 491.728 59.25 492.078 59.25C492.678 59.25 493.044 59.525 493.178 60.075C493.178 60.0917 493.153 60.2083 493.103 60.425C493.069 60.625 493.028 60.85 492.978 61.1C492.928 61.35 492.878 61.5917 492.828 61.825C492.794 62.0583 492.778 62.2083 492.778 62.275L492.703 63.5C492.819 63.4833 492.928 63.475 493.028 63.475C493.128 63.4583 493.236 63.45 493.353 63.45H493.578C493.694 63.45 493.803 63.45 493.903 63.45C494.003 63.4333 494.094 63.425 494.178 63.425C494.678 63.425 495.028 63.475 495.228 63.575ZM506.945 70.05C507.245 70.25 507.395 70.4917 507.395 70.775C507.395 70.925 507.353 71.0833 507.27 71.25C507.186 71.4 507.078 71.5417 506.945 71.675C506.811 71.7917 506.67 71.8917 506.52 71.975C506.37 72.0583 506.22 72.1 506.07 72.1C505.936 72.05 505.778 71.9667 505.595 71.85C505.411 71.7167 505.228 71.575 505.045 71.425C504.861 71.2583 504.686 71.075 504.52 70.875C504.37 70.675 504.253 70.475 504.17 70.275L503.995 70.7C503.678 71.3 503.178 71.8667 502.495 72.4C501.661 72.55 501.178 72.625 501.045 72.625C500.728 72.625 500.345 72.575 499.895 72.475L498.52 71.5C497.92 70.9333 497.62 70.1583 497.62 69.175C497.62 68.825 497.67 68.4417 497.77 68.025C497.886 67.5917 498.045 67.1583 498.245 66.725C498.461 66.2917 498.72 65.8667 499.02 65.45C499.32 65.0333 499.67 64.6583 500.07 64.325C500.553 64.1417 501.02 63.9917 501.47 63.875C501.92 63.7417 502.261 63.6583 502.495 63.625C502.811 63.275 503.186 63.1 503.62 63.1C503.87 63.1 504.086 63.225 504.27 63.475C504.47 63.7083 504.636 64.0083 504.77 64.375C504.92 64.7417 505.036 65.15 505.12 65.6C505.203 66.0333 505.261 66.45 505.295 66.85L505.62 68.175C505.72 68.5917 505.878 68.95 506.095 69.25C506.328 69.55 506.611 69.8167 506.945 70.05ZM503.145 67.275C503.111 67.2583 502.986 66.7333 502.77 65.7C502.686 65.7 502.561 65.7 502.395 65.7C502.228 65.7 502.028 65.75 501.795 65.85C501.578 65.9333 501.336 66.0917 501.07 66.325C500.82 66.5417 500.578 66.875 500.345 67.325C499.995 67.975 499.82 68.625 499.82 69.275C500.103 69.825 500.545 70.2583 501.145 70.575C501.328 70.525 501.478 70.4667 501.595 70.4C501.728 70.3333 501.845 70.2417 501.945 70.125C502.045 70.0083 502.136 69.8667 502.22 69.7C502.32 69.5167 502.428 69.2917 502.545 69.025C502.761 68.6417 502.911 68.3083 502.995 68.025C503.095 67.725 503.145 67.475 503.145 67.275ZM513.74 59.85C513.707 60.2667 513.607 60.7417 513.44 61.275C513.29 61.7917 513.182 62.2167 513.115 62.55V62.85C513.115 63.0833 513.098 63.3333 513.065 63.6C513.032 63.8667 512.998 64.125 512.965 64.375C512.932 64.6083 512.89 64.8167 512.84 65C512.807 65.1833 512.79 65.3083 512.79 65.375C512.773 65.4583 512.765 65.6583 512.765 65.975C512.765 66.2917 512.765 66.7167 512.765 67.25V67.55C512.765 67.8833 512.748 68.175 512.715 68.425C512.682 68.675 512.64 68.9 512.59 69.1L512.815 70.975C512.882 71.1583 513.107 71.4333 513.49 71.8C513.407 72.1 513.19 72.375 512.84 72.625C512.49 72.8583 512.132 72.975 511.765 72.975C511.265 72.975 510.882 72.7417 510.615 72.275C510.365 71.7917 510.24 70.9917 510.24 69.875C510.24 69.6917 510.248 69.5333 510.265 69.4C510.298 69.2667 510.315 69.1 510.315 68.9C510.315 68.5 510.265 68 510.165 67.4C510.248 67.2167 510.307 66.9833 510.34 66.7C510.39 66.4167 510.423 66.15 510.44 65.9C510.457 65.6333 510.465 65.4083 510.465 65.225C510.465 65.0417 510.465 64.9667 510.465 65C510.465 65.0167 510.482 64.9 510.515 64.65C510.565 64.4 510.615 64.1083 510.665 63.775C510.715 63.425 510.757 63.0667 510.79 62.7C510.84 62.3333 510.865 62.0417 510.865 61.825V61.625L511.29 59.525C511.507 59.1583 511.882 58.975 512.415 58.975C512.998 58.975 513.44 59.2667 513.74 59.85ZM520.534 61.3L520.609 62.2V62.4C520.609 62.85 520.442 63.1917 520.109 63.425C519.792 63.6417 519.392 63.7917 518.909 63.875C518.842 63.8583 518.734 63.8167 518.584 63.75C518.451 63.6667 518.309 63.5667 518.159 63.45C518.009 63.3333 517.876 63.2 517.759 63.05C517.659 62.9 517.609 62.7333 517.609 62.55C517.609 61.9833 517.726 61.55 517.959 61.25C518.192 60.95 518.484 60.8 518.834 60.8C519.051 60.8 519.309 60.8583 519.609 60.975L520.534 61.3ZM520.959 70.05V70.45C520.959 70.8333 520.942 71.3 520.909 71.85C520.892 72.3833 520.842 73.0167 520.759 73.75C520.426 75.3333 519.909 76.45 519.209 77.1C518.509 77.7667 517.609 78.1 516.509 78.1C516.309 78.1 516.101 78.0833 515.884 78.05C515.651 78.0333 515.434 77.9833 515.234 77.9C515.034 77.8333 514.876 77.725 514.759 77.575C514.626 77.425 514.559 77.2333 514.559 77C514.559 76.6833 514.667 76.3917 514.884 76.125C515.084 75.875 515.326 75.75 515.609 75.75C515.709 75.75 515.826 75.7667 515.959 75.8C516.092 75.85 516.226 75.875 516.359 75.875C517.109 75.875 517.684 75.5167 518.084 74.8C518.501 74.0833 518.709 73.0667 518.709 71.75V71.425C518.726 71.325 518.734 71.2083 518.734 71.075C518.734 70.9417 518.734 70.7833 518.734 70.6C518.734 70.05 518.709 69.6333 518.659 69.35C518.626 69.05 518.626 68.9 518.659 68.9C518.609 68.65 518.551 68.35 518.484 68C518.434 67.6333 518.376 67.2167 518.309 66.75C518.476 66.05 518.817 65.7 519.334 65.7C519.717 65.7 520.001 65.7917 520.184 65.975C520.384 66.1583 520.526 66.4333 520.609 66.8C520.709 67.15 520.776 67.6 520.809 68.15C520.842 68.7 520.892 69.3333 520.959 70.05ZM534.226 72C533.692 72.5333 533.092 72.9833 532.426 73.35C531.759 73.7333 531.084 73.925 530.401 73.925C529.784 73.925 528.992 73.825 528.026 73.625C527.692 73.4083 527.359 73.15 527.026 72.85C526.692 72.5333 526.392 72.1917 526.126 71.825C525.859 71.4417 525.642 71.0333 525.476 70.6C525.309 70.15 525.226 69.6917 525.226 69.225C525.226 69.0917 525.234 68.9167 525.251 68.7C525.267 68.4667 525.284 68.2417 525.301 68.025C525.334 67.7917 525.359 67.5917 525.376 67.425C525.392 67.2583 525.401 67.175 525.401 67.175C525.734 66.6417 526.084 66.1167 526.451 65.6C526.834 65.0667 527.367 64.6 528.051 64.2C529.134 63.9667 529.917 63.85 530.401 63.85C530.651 63.85 530.867 63.8667 531.051 63.9C531.234 63.9167 531.409 63.9667 531.576 64.05C531.759 64.1167 531.934 64.225 532.101 64.375C532.284 64.525 532.492 64.7167 532.726 64.95C532.992 65.2333 533.201 65.425 533.351 65.525C533.517 65.625 533.601 65.7167 533.601 65.8C533.601 67.3333 533.126 68.375 532.176 68.925C531.759 69.075 531.217 69.2417 530.551 69.425C529.884 69.5917 528.976 69.75 527.826 69.9C528.059 70.5333 528.367 71.0083 528.751 71.325C529.134 71.6417 529.567 71.8 530.051 71.8C530.767 71.8 531.667 71.375 532.751 70.525C532.917 70.375 533.126 70.3 533.376 70.3C533.642 70.3 533.876 70.4 534.076 70.6C534.292 70.8 534.401 71.05 534.401 71.35C534.401 71.5667 534.342 71.7833 534.226 72ZM531.401 66.65C531.084 66.1333 530.709 65.875 530.276 65.875C530.092 65.875 529.892 65.9 529.676 65.95C529.459 66 529.234 66.075 529.001 66.175C528.784 66.2583 528.576 66.3667 528.376 66.5C528.192 66.6333 528.042 66.7917 527.926 66.975L527.676 67.725C528.242 67.675 528.742 67.6333 529.176 67.6C529.609 67.5667 529.984 67.5167 530.301 67.45C530.617 67.3833 530.867 67.2917 531.051 67.175C531.234 67.0583 531.351 66.8833 531.401 66.65ZM554.887 72.375C554.67 72.525 554.32 72.675 553.837 72.825C553.354 72.9583 552.854 73.075 552.337 73.175L551.312 72.975C551.162 72.925 550.912 72.8083 550.562 72.625C550.229 72.4417 549.887 72.1667 549.537 71.8C549.187 71.4167 548.879 70.9333 548.612 70.35C548.345 69.75 548.212 69.025 548.212 68.175C548.212 67.875 548.279 67.525 548.412 67.125C548.562 66.7083 548.779 66.325 549.062 65.975C549.345 65.6083 549.695 65.3 550.112 65.05C550.545 64.8 551.045 64.675 551.612 64.675C552.745 64.675 553.77 65.0417 554.687 65.775C555.487 66.875 555.887 68.0917 555.887 69.425C555.887 70.4083 555.554 71.3917 554.887 72.375ZM553.662 68.825C553.579 68.175 553.37 67.6667 553.037 67.3C552.72 66.9167 552.312 66.725 551.812 66.725C551.479 66.725 551.162 66.8917 550.862 67.225C550.579 67.5417 550.437 68.0083 550.437 68.625C550.437 68.875 550.47 69.1417 550.537 69.425C550.604 69.6917 550.712 69.9417 550.862 70.175C551.012 70.3917 551.204 70.575 551.437 70.725C551.67 70.8583 551.954 70.925 552.287 70.925C552.82 70.925 553.187 70.7667 553.387 70.45C553.587 70.1167 553.687 69.7083 553.687 69.225C553.687 69.1583 553.679 69.1 553.662 69.05C553.662 68.9833 553.662 68.9083 553.662 68.825ZM566.059 64.5C566.326 64.6667 566.459 64.9833 566.459 65.45C566.459 65.8 566.367 66.1 566.184 66.35C566.001 66.6 565.751 66.725 565.434 66.725C565.234 66.725 565.026 66.675 564.809 66.575C564.609 66.4583 564.392 66.4 564.159 66.4C563.959 66.4 563.759 66.4417 563.559 66.525C563.376 66.5917 563.159 66.75 562.909 67L562.159 67.75C562.159 67.8667 562.159 67.9833 562.159 68.1C562.176 68.2167 562.184 68.3417 562.184 68.475C562.184 68.675 562.176 68.8833 562.159 69.1C562.159 69.3167 562.151 69.55 562.134 69.8L562.359 72.075C562.309 72.8417 561.917 73.225 561.184 73.225C560.801 73.225 560.517 73.1083 560.334 72.875C560.151 72.625 560.026 72.2833 559.959 71.85C559.892 71.4167 559.859 70.9083 559.859 70.325C559.876 69.7417 559.876 69.1 559.859 68.4C559.826 67.35 559.801 66.825 559.784 66.825V66.85C559.717 66.6 559.667 66.3833 559.634 66.2C559.601 66 559.584 65.825 559.584 65.675C559.584 65.375 559.692 65.1333 559.909 64.95C560.126 64.75 560.442 64.65 560.859 64.65C561.126 64.65 561.442 64.8583 561.809 65.275C562.192 64.975 562.484 64.75 562.684 64.6C562.901 64.45 563.076 64.3417 563.209 64.275C563.359 64.2083 563.501 64.175 563.634 64.175C563.767 64.1583 563.942 64.15 564.159 64.15C564.342 64.1333 564.509 64.1417 564.659 64.175C564.826 64.2083 565.001 64.2417 565.184 64.275L566.059 64.5ZM573.105 61.225C573.138 61.3583 573.155 61.4833 573.155 61.6C573.155 62.1333 572.997 62.5833 572.68 62.95C572.18 63.15 571.68 63.25 571.18 63.25C570.863 63.05 570.597 62.825 570.38 62.575C570.18 62.3083 570.08 62.05 570.08 61.8C570.08 61.5833 570.33 61.05 570.83 60.2C571.047 60.2333 571.272 60.2583 571.505 60.275C571.755 60.2917 571.98 60.3333 572.18 60.4C572.397 60.4667 572.58 60.5667 572.73 60.7C572.897 60.8167 573.022 60.9917 573.105 61.225ZM572.305 65.4V65.725C572.305 65.8083 572.305 65.9 572.305 66C572.305 66.1 572.288 66.1917 572.255 66.275L572.055 67.4V67.625C572.055 67.725 572.047 67.8583 572.03 68.025C572.013 68.1917 571.988 68.3583 571.955 68.525C571.938 68.6917 571.922 68.85 571.905 69C571.888 69.15 571.88 69.275 571.88 69.375C571.88 69.4583 571.88 69.525 571.88 69.575C571.897 69.625 571.905 69.6917 571.905 69.775C571.905 69.925 571.888 70.0917 571.855 70.275C571.822 70.4417 571.805 70.6333 571.805 70.85C571.805 71.05 571.83 71.2583 571.88 71.475C571.697 72.225 571.313 72.6 570.73 72.6C569.913 72.6 569.505 71.8333 569.505 70.3C569.505 69.7833 569.53 69.275 569.58 68.775C569.63 68.2583 569.688 67.7833 569.755 67.35C569.822 66.9167 569.888 66.5417 569.955 66.225C570.038 65.8917 570.105 65.6333 570.155 65.45C570.405 65.0833 570.755 64.9 571.205 64.9C571.638 64.9 572.005 65.0667 572.305 65.4ZM585.72 72C585.186 72.5333 584.586 72.9833 583.92 73.35C583.253 73.7333 582.578 73.925 581.895 73.925C581.278 73.925 580.486 73.825 579.52 73.625C579.186 73.4083 578.853 73.15 578.52 72.85C578.186 72.5333 577.886 72.1917 577.62 71.825C577.353 71.4417 577.136 71.0333 576.97 70.6C576.803 70.15 576.72 69.6917 576.72 69.225C576.72 69.0917 576.728 68.9167 576.745 68.7C576.761 68.4667 576.778 68.2417 576.795 68.025C576.828 67.7917 576.853 67.5917 576.87 67.425C576.886 67.2583 576.895 67.175 576.895 67.175C577.228 66.6417 577.578 66.1167 577.945 65.6C578.328 65.0667 578.861 64.6 579.545 64.2C580.628 63.9667 581.411 63.85 581.895 63.85C582.145 63.85 582.361 63.8667 582.545 63.9C582.728 63.9167 582.903 63.9667 583.07 64.05C583.253 64.1167 583.428 64.225 583.595 64.375C583.778 64.525 583.986 64.7167 584.22 64.95C584.486 65.2333 584.695 65.425 584.845 65.525C585.011 65.625 585.095 65.7167 585.095 65.8C585.095 67.3333 584.62 68.375 583.67 68.925C583.253 69.075 582.711 69.2417 582.045 69.425C581.378 69.5917 580.47 69.75 579.32 69.9C579.553 70.5333 579.861 71.0083 580.245 71.325C580.628 71.6417 581.061 71.8 581.545 71.8C582.261 71.8 583.161 71.375 584.245 70.525C584.411 70.375 584.62 70.3 584.87 70.3C585.136 70.3 585.37 70.4 585.57 70.6C585.786 70.8 585.895 71.05 585.895 71.35C585.895 71.5667 585.836 71.7833 585.72 72ZM582.895 66.65C582.578 66.1333 582.203 65.875 581.77 65.875C581.586 65.875 581.386 65.9 581.17 65.95C580.953 66 580.728 66.075 580.495 66.175C580.278 66.2583 580.07 66.3667 579.87 66.5C579.686 66.6333 579.536 66.7917 579.42 66.975L579.17 67.725C579.736 67.675 580.236 67.6333 580.67 67.6C581.103 67.5667 581.478 67.5167 581.795 67.45C582.111 67.3833 582.361 67.2917 582.545 67.175C582.728 67.0583 582.845 66.8833 582.895 66.65ZM597.383 70.225V70.425C597.383 70.525 597.383 70.7083 597.383 70.975C597.4 71.225 597.375 71.4833 597.308 71.75C597.258 72.0167 597.15 72.2583 596.983 72.475C596.817 72.675 596.567 72.775 596.233 72.775C595.583 72.775 595.2 72.5167 595.083 72C595.1 71.9 595.108 71.7917 595.108 71.675C595.108 71.5417 595.108 71.4 595.108 71.25C595.108 71.1833 595.108 70.9417 595.108 70.525C595.108 70.0917 595.092 69.625 595.058 69.125C595.042 68.625 594.992 68.1583 594.908 67.725C594.825 67.275 594.7 66.9917 594.533 66.875C594.15 66.6083 593.808 66.475 593.508 66.475C593.108 66.475 592.767 66.6 592.483 66.85C592.217 67.0833 591.992 67.55 591.808 68.25C591.792 68.4833 591.775 68.75 591.758 69.05C591.742 69.3333 591.717 69.6583 591.683 70.025C591.683 70.3083 591.692 70.625 591.708 70.975C591.725 71.3083 591.75 71.6917 591.783 72.125C591.783 72.4417 591.658 72.7083 591.408 72.925C591.158 73.125 590.875 73.225 590.558 73.225C590.308 73.225 590.108 73.1583 589.958 73.025C589.808 72.8917 589.692 72.7167 589.608 72.5C589.542 72.2833 589.492 72.05 589.458 71.8C589.442 71.55 589.433 71.3 589.433 71.05C589.433 70.8667 589.442 70.6833 589.458 70.5C589.475 70.3 589.5 70.1 589.533 69.9L589.733 67.5L589.933 66.3C589.9 66.1 589.833 65.8833 589.733 65.65C589.633 65.4167 589.583 65.2333 589.583 65.1C589.583 64.8167 589.692 64.5583 589.908 64.325C590.142 64.0917 590.425 63.975 590.758 63.975C590.992 63.975 591.167 64.025 591.283 64.125C591.4 64.2083 591.592 64.425 591.858 64.775C592.192 64.625 592.458 64.5333 592.658 64.5C592.858 64.45 593.092 64.425 593.358 64.425C594.225 64.425 594.983 64.6333 595.633 65.05C596.3 65.45 596.717 66.125 596.883 67.075C596.933 67.425 596.975 67.7167 597.008 67.95C597.058 68.1833 597.1 68.4083 597.133 68.625C597.167 68.8417 597.2 69.075 597.233 69.325C597.267 69.5583 597.317 69.8583 597.383 70.225ZM607.499 63.575C607.682 63.725 607.774 64 607.774 64.4C607.774 65.1333 607.499 65.5 606.949 65.5H606.849C606.599 65.5167 606.307 65.5417 605.974 65.575C605.641 65.5917 605.266 65.625 604.849 65.675C604.816 65.9417 604.782 66.3 604.749 66.75C604.716 67.1833 604.699 67.7083 604.699 68.325C604.699 68.375 604.699 68.425 604.699 68.475C604.716 68.525 604.724 68.5833 604.724 68.65V69.8C604.724 70.0667 604.766 70.2833 604.849 70.45C604.949 70.6 605.066 70.7083 605.199 70.775L605.899 71C606.449 71.1833 606.724 71.5167 606.724 72C606.724 72.2833 606.607 72.5333 606.374 72.75C606.157 72.9667 605.874 73.075 605.524 73.075C605.424 73.075 605.249 73.05 604.999 73C604.766 72.9333 604.516 72.85 604.249 72.75C603.999 72.65 603.757 72.525 603.524 72.375C603.307 72.225 603.157 72.0583 603.074 71.875C602.891 71.4917 602.741 71.0917 602.624 70.675C602.507 70.2417 602.449 69.7917 602.449 69.325C602.449 68.8083 602.457 68.4417 602.474 68.225C602.491 68.0083 602.507 67.8167 602.524 67.65C602.541 67.4833 602.557 67.2833 602.574 67.05C602.591 66.8167 602.599 66.4333 602.599 65.9C602.282 65.9333 601.816 66.0333 601.199 66.2C600.832 66.2 600.516 66.1083 600.249 65.925C599.999 65.725 599.874 65.4667 599.874 65.15C599.874 64.9167 599.941 64.7 600.074 64.5C600.224 64.3 600.524 64.125 600.974 63.975C601.124 63.925 601.257 63.8917 601.374 63.875C601.507 63.8583 601.632 63.8417 601.749 63.825C601.882 63.8083 602.024 63.8 602.174 63.8C602.324 63.7833 602.507 63.7583 602.724 63.725C602.741 63.3083 602.766 62.8417 602.799 62.325C602.849 61.7917 602.924 61.3 603.024 60.85C603.141 60.4 603.299 60.025 603.499 59.725C603.716 59.4083 603.999 59.25 604.349 59.25C604.949 59.25 605.316 59.525 605.449 60.075C605.449 60.0917 605.424 60.2083 605.374 60.425C605.341 60.625 605.299 60.85 605.249 61.1C605.199 61.35 605.149 61.5917 605.099 61.825C605.066 62.0583 605.049 62.2083 605.049 62.275L604.974 63.5C605.091 63.4833 605.199 63.475 605.299 63.475C605.399 63.4583 605.507 63.45 605.624 63.45H605.849C605.966 63.45 606.074 63.45 606.174 63.45C606.274 63.4333 606.366 63.425 606.449 63.425C606.949 63.425 607.299 63.475 607.499 63.575ZM618.916 72C618.383 72.5333 617.783 72.9833 617.116 73.35C616.449 73.7333 615.774 73.925 615.091 73.925C614.474 73.925 613.683 73.825 612.716 73.625C612.383 73.4083 612.049 73.15 611.716 72.85C611.383 72.5333 611.083 72.1917 610.816 71.825C610.549 71.4417 610.333 71.0333 610.166 70.6C609.999 70.15 609.916 69.6917 609.916 69.225C609.916 69.0917 609.924 68.9167 609.941 68.7C609.958 68.4667 609.974 68.2417 609.991 68.025C610.024 67.7917 610.049 67.5917 610.066 67.425C610.083 67.2583 610.091 67.175 610.091 67.175C610.424 66.6417 610.774 66.1167 611.141 65.6C611.524 65.0667 612.058 64.6 612.741 64.2C613.824 63.9667 614.608 63.85 615.091 63.85C615.341 63.85 615.558 63.8667 615.741 63.9C615.924 63.9167 616.099 63.9667 616.266 64.05C616.449 64.1167 616.624 64.225 616.791 64.375C616.974 64.525 617.183 64.7167 617.416 64.95C617.683 65.2333 617.891 65.425 618.041 65.525C618.208 65.625 618.291 65.7167 618.291 65.8C618.291 67.3333 617.816 68.375 616.866 68.925C616.449 69.075 615.908 69.2417 615.241 69.425C614.574 69.5917 613.666 69.75 612.516 69.9C612.749 70.5333 613.058 71.0083 613.441 71.325C613.824 71.6417 614.258 71.8 614.741 71.8C615.458 71.8 616.358 71.375 617.441 70.525C617.608 70.375 617.816 70.3 618.066 70.3C618.333 70.3 618.566 70.4 618.766 70.6C618.983 70.8 619.091 71.05 619.091 71.35C619.091 71.5667 619.033 71.7833 618.916 72ZM616.091 66.65C615.774 66.1333 615.399 65.875 614.966 65.875C614.783 65.875 614.583 65.9 614.366 65.95C614.149 66 613.924 66.075 613.691 66.175C613.474 66.2583 613.266 66.3667 613.066 66.5C612.883 66.6333 612.733 66.7917 612.616 66.975L612.366 67.725C612.933 67.675 613.433 67.6333 613.866 67.6C614.299 67.5667 614.674 67.5167 614.991 67.45C615.308 67.3833 615.558 67.2917 615.741 67.175C615.924 67.0583 616.041 66.8833 616.091 66.65ZM629.204 64.5C629.471 64.6667 629.604 64.9833 629.604 65.45C629.604 65.8 629.513 66.1 629.329 66.35C629.146 66.6 628.896 66.725 628.579 66.725C628.379 66.725 628.171 66.675 627.954 66.575C627.754 66.4583 627.538 66.4 627.304 66.4C627.104 66.4 626.904 66.4417 626.704 66.525C626.521 66.5917 626.304 66.75 626.054 67L625.304 67.75C625.304 67.8667 625.304 67.9833 625.304 68.1C625.321 68.2167 625.329 68.3417 625.329 68.475C625.329 68.675 625.321 68.8833 625.304 69.1C625.304 69.3167 625.296 69.55 625.279 69.8L625.504 72.075C625.454 72.8417 625.063 73.225 624.329 73.225C623.946 73.225 623.663 73.1083 623.479 72.875C623.296 72.625 623.171 72.2833 623.104 71.85C623.038 71.4167 623.004 70.9083 623.004 70.325C623.021 69.7417 623.021 69.1 623.004 68.4C622.971 67.35 622.946 66.825 622.929 66.825V66.85C622.863 66.6 622.813 66.3833 622.779 66.2C622.746 66 622.729 65.825 622.729 65.675C622.729 65.375 622.838 65.1333 623.054 64.95C623.271 64.75 623.588 64.65 624.004 64.65C624.271 64.65 624.588 64.8583 624.954 65.275C625.338 64.975 625.629 64.75 625.829 64.6C626.046 64.45 626.221 64.3417 626.354 64.275C626.504 64.2083 626.646 64.175 626.779 64.175C626.913 64.1583 627.088 64.15 627.304 64.15C627.488 64.1333 627.654 64.1417 627.804 64.175C627.971 64.2083 628.146 64.2417 628.329 64.275L629.204 64.5ZM640.9 72C640.367 72.5333 639.767 72.9833 639.1 73.35C638.434 73.7333 637.759 73.925 637.075 73.925C636.459 73.925 635.667 73.825 634.7 73.625C634.367 73.4083 634.034 73.15 633.7 72.85C633.367 72.5333 633.067 72.1917 632.8 71.825C632.534 71.4417 632.317 71.0333 632.15 70.6C631.984 70.15 631.9 69.6917 631.9 69.225C631.9 69.0917 631.909 68.9167 631.925 68.7C631.942 68.4667 631.959 68.2417 631.975 68.025C632.009 67.7917 632.034 67.5917 632.05 67.425C632.067 67.2583 632.075 67.175 632.075 67.175C632.409 66.6417 632.759 66.1167 633.125 65.6C633.509 65.0667 634.042 64.6 634.725 64.2C635.809 63.9667 636.592 63.85 637.075 63.85C637.325 63.85 637.542 63.8667 637.725 63.9C637.909 63.9167 638.084 63.9667 638.25 64.05C638.434 64.1167 638.609 64.225 638.775 64.375C638.959 64.525 639.167 64.7167 639.4 64.95C639.667 65.2333 639.875 65.425 640.025 65.525C640.192 65.625 640.275 65.7167 640.275 65.8C640.275 67.3333 639.8 68.375 638.85 68.925C638.434 69.075 637.892 69.2417 637.225 69.425C636.559 69.5917 635.65 69.75 634.5 69.9C634.734 70.5333 635.042 71.0083 635.425 71.325C635.809 71.6417 636.242 71.8 636.725 71.8C637.442 71.8 638.342 71.375 639.425 70.525C639.592 70.375 639.8 70.3 640.05 70.3C640.317 70.3 640.55 70.4 640.75 70.6C640.967 70.8 641.075 71.05 641.075 71.35C641.075 71.5667 641.017 71.7833 640.9 72ZM638.075 66.65C637.759 66.1333 637.384 65.875 636.95 65.875C636.767 65.875 636.567 65.9 636.35 65.95C636.134 66 635.909 66.075 635.675 66.175C635.459 66.2583 635.25 66.3667 635.05 66.5C634.867 66.6333 634.717 66.7917 634.6 66.975L634.35 67.725C634.917 67.675 635.417 67.6333 635.85 67.6C636.284 67.5667 636.659 67.5167 636.975 67.45C637.292 67.3833 637.542 67.2917 637.725 67.175C637.909 67.0583 638.025 66.8833 638.075 66.65ZM650.589 63.575C650.772 63.725 650.864 64 650.864 64.4C650.864 65.1333 650.589 65.5 650.039 65.5H649.939C649.689 65.5167 649.397 65.5417 649.064 65.575C648.731 65.5917 648.356 65.625 647.939 65.675C647.906 65.9417 647.872 66.3 647.839 66.75C647.806 67.1833 647.789 67.7083 647.789 68.325C647.789 68.375 647.789 68.425 647.789 68.475C647.806 68.525 647.814 68.5833 647.814 68.65V69.8C647.814 70.0667 647.856 70.2833 647.939 70.45C648.039 70.6 648.156 70.7083 648.289 70.775L648.989 71C649.539 71.1833 649.814 71.5167 649.814 72C649.814 72.2833 649.697 72.5333 649.464 72.75C649.247 72.9667 648.964 73.075 648.614 73.075C648.514 73.075 648.339 73.05 648.089 73C647.856 72.9333 647.606 72.85 647.339 72.75C647.089 72.65 646.847 72.525 646.614 72.375C646.397 72.225 646.247 72.0583 646.164 71.875C645.981 71.4917 645.831 71.0917 645.714 70.675C645.597 70.2417 645.539 69.7917 645.539 69.325C645.539 68.8083 645.547 68.4417 645.564 68.225C645.581 68.0083 645.597 67.8167 645.614 67.65C645.631 67.4833 645.647 67.2833 645.664 67.05C645.681 66.8167 645.689 66.4333 645.689 65.9C645.372 65.9333 644.906 66.0333 644.289 66.2C643.922 66.2 643.606 66.1083 643.339 65.925C643.089 65.725 642.964 65.4667 642.964 65.15C642.964 64.9167 643.031 64.7 643.164 64.5C643.314 64.3 643.614 64.125 644.064 63.975C644.214 63.925 644.347 63.8917 644.464 63.875C644.597 63.8583 644.722 63.8417 644.839 63.825C644.972 63.8083 645.114 63.8 645.264 63.8C645.414 63.7833 645.597 63.7583 645.814 63.725C645.831 63.3083 645.856 62.8417 645.889 62.325C645.939 61.7917 646.014 61.3 646.114 60.85C646.231 60.4 646.389 60.025 646.589 59.725C646.806 59.4083 647.089 59.25 647.439 59.25C648.039 59.25 648.406 59.525 648.539 60.075C648.539 60.0917 648.514 60.2083 648.464 60.425C648.431 60.625 648.389 60.85 648.339 61.1C648.289 61.35 648.239 61.5917 648.189 61.825C648.156 62.0583 648.139 62.2083 648.139 62.275L648.064 63.5C648.181 63.4833 648.289 63.475 648.389 63.475C648.489 63.4583 648.597 63.45 648.714 63.45H648.939C649.056 63.45 649.164 63.45 649.264 63.45C649.364 63.4333 649.456 63.425 649.539 63.425C650.039 63.425 650.389 63.475 650.589 63.575Z" fill="#0A2CA5"/>
</svg>
