<svg width="297" height="165" viewBox="0 0 297 165" fill="none" xmlns="http://www.w3.org/2000/svg">
<g clip-path="url(#clip0_199_1004)">
<path d="M25.3281 42.5078V67H16.2266V6.6875H26.5391C31.5911 6.6875 35.4062 7.03906 37.9844 7.74219C40.5885 8.44531 42.8802 9.77344 44.8594 11.7266C48.3229 15.112 50.0547 19.3828 50.0547 24.5391C50.0547 30.0599 48.2057 34.4349 44.5078 37.6641C40.8099 40.8932 35.8229 42.5078 29.5469 42.5078H25.3281ZM25.3281 34.0703H28.7266C37.0859 34.0703 41.2656 30.8542 41.2656 24.4219C41.2656 18.1979 36.9557 15.0859 28.3359 15.0859H25.3281V34.0703ZM53.6094 47.7031C53.6094 42.2083 55.5755 37.5339 59.5078 33.6797C63.4401 29.8255 68.2318 27.8984 73.8828 27.8984C79.5599 27.8984 84.3776 29.8385 88.3359 33.7188C92.2422 37.599 94.1953 42.3646 94.1953 48.0156C94.1953 53.7188 92.2292 58.4974 88.2969 62.3516C84.3385 66.1797 79.4818 68.0938 73.7266 68.0938C68.0234 68.0938 63.2448 66.1406 59.3906 62.2344C55.5365 58.3802 53.6094 53.5365 53.6094 47.7031ZM62.5938 47.8594C62.5938 51.6615 63.6094 54.6693 65.6406 56.8828C67.724 59.1224 70.4714 60.2422 73.8828 60.2422C77.3203 60.2422 80.0677 59.1354 82.125 56.9219C84.1823 54.7083 85.2109 51.7526 85.2109 48.0547C85.2109 44.3568 84.1823 41.401 82.125 39.1875C80.0417 36.9479 77.2943 35.8281 73.8828 35.8281C70.5234 35.8281 67.8021 36.9479 65.7188 39.1875C63.6354 41.4271 62.5938 44.3177 62.5938 47.8594ZM103.531 28.9531H112.32V32.3516C113.935 30.6589 115.367 29.5 116.617 28.875C117.893 28.224 119.404 27.8984 121.148 27.8984C123.466 27.8984 125.888 28.6536 128.414 30.1641L124.391 38.2109C122.724 37.013 121.096 36.4141 119.508 36.4141C114.716 36.4141 112.32 40.0339 112.32 47.2734V67H103.531V28.9531ZM145.406 37.1562V67H136.617V37.1562H132.867V28.9531H136.617V15.0078H145.406V28.9531H152.242V37.1562H145.406Z" fill="black"/>
<path d="M119.648 127.156V157H110.82V127.156H107.695V118.953H110.82V104.266C110.82 99.474 111.654 96.0885 113.32 94.1094C115.612 91.349 118.945 89.9688 123.32 89.9688C124.883 89.9688 126.849 90.4245 129.219 91.3359V100.32L128.32 99.8516C126.419 98.888 124.857 98.4062 123.633 98.4062C122.07 98.4062 121.016 98.9661 120.469 100.086C119.922 101.18 119.648 103.289 119.648 106.414V118.953H129.219V127.156H119.648ZM133.516 137.703C133.516 132.208 135.482 127.534 139.414 123.68C143.346 119.826 148.138 117.898 153.789 117.898C159.466 117.898 164.284 119.839 168.242 123.719C172.148 127.599 174.102 132.365 174.102 138.016C174.102 143.719 172.135 148.497 168.203 152.352C164.245 156.18 159.388 158.094 153.633 158.094C147.93 158.094 143.151 156.141 139.297 152.234C135.443 148.38 133.516 143.536 133.516 137.703ZM142.5 137.859C142.5 141.661 143.516 144.669 145.547 146.883C147.63 149.122 150.378 150.242 153.789 150.242C157.227 150.242 159.974 149.135 162.031 146.922C164.089 144.708 165.117 141.753 165.117 138.055C165.117 134.357 164.089 131.401 162.031 129.188C159.948 126.948 157.201 125.828 153.789 125.828C150.43 125.828 147.708 126.948 145.625 129.188C143.542 131.427 142.5 134.318 142.5 137.859ZM192.227 91.0234V157H183.438V91.0234H192.227ZM212.148 118.953V157H203.359V118.953H212.148ZM202.031 103.133C202.031 101.596 202.591 100.268 203.711 99.1484C204.831 98.0286 206.172 97.4688 207.734 97.4688C209.323 97.4688 210.677 98.0286 211.797 99.1484C212.917 100.242 213.477 101.583 213.477 103.172C213.477 104.76 212.917 106.115 211.797 107.234C210.703 108.354 209.362 108.914 207.773 108.914C206.185 108.914 204.831 108.354 203.711 107.234C202.591 106.115 202.031 104.747 202.031 103.133ZM221.484 137.703C221.484 132.208 223.451 127.534 227.383 123.68C231.315 119.826 236.107 117.898 241.758 117.898C247.435 117.898 252.253 119.839 256.211 123.719C260.117 127.599 262.07 132.365 262.07 138.016C262.07 143.719 260.104 148.497 256.172 152.352C252.214 156.18 247.357 158.094 241.602 158.094C235.898 158.094 231.12 156.141 227.266 152.234C223.411 148.38 221.484 143.536 221.484 137.703ZM230.469 137.859C230.469 141.661 231.484 144.669 233.516 146.883C235.599 149.122 238.346 150.242 241.758 150.242C245.195 150.242 247.943 149.135 250 146.922C252.057 144.708 253.086 141.753 253.086 138.055C253.086 134.357 252.057 131.401 250 129.188C247.917 126.948 245.169 125.828 241.758 125.828C238.398 125.828 235.677 126.948 233.594 129.188C231.51 131.427 230.469 134.318 230.469 137.859Z" fill="black"/>
<path d="M59.9 107.575C59.65 107.558 59.4583 107.55 59.325 107.55C59.2083 107.533 59.1083 107.525 59.025 107.525C58.9583 107.525 58.8917 107.525 58.825 107.525C58.7583 107.525 58.6583 107.525 58.525 107.525C58.3917 107.525 58.25 107.533 58.1 107.55C57.95 107.55 57.7917 107.55 57.625 107.55C57.2083 107.55 56.7 107.45 56.1 107.25C55.9333 107.25 55.75 107.25 55.55 107.25C55.35 107.25 55.1333 107.258 54.9 107.275C54.7167 107.242 54.4583 107.2 54.125 107.15C53.7917 107.1 53.3917 107.042 52.925 106.975C52.6417 106.692 52.5 106.425 52.5 106.175C52.5 105.942 52.5583 105.7 52.675 105.45C53.2417 104.883 53.6667 104.425 53.95 104.075C54.2333 103.725 54.475 103.417 54.675 103.15C54.875 102.867 55.0833 102.592 55.3 102.325C55.5167 102.042 55.8333 101.692 56.25 101.275C56.3167 101.208 56.4083 101.092 56.525 100.925C56.6417 100.758 56.7667 100.575 56.9 100.375C57.05 100.158 57.2 99.95 57.35 99.75C57.5 99.55 57.625 99.3833 57.725 99.25C58.2417 98.6667 58.5 98.0083 58.5 97.275C58.5 96.925 58.4083 96.6417 58.225 96.425C58.0583 96.2083 57.7333 96.1 57.25 96.1C56.4 96.1 55.6833 96.3 55.1 96.7C54.5167 97.0833 54.0583 97.5917 53.725 98.225C53.5583 98.5583 53.425 98.8083 53.325 98.975C53.2417 99.1417 53.1667 99.2667 53.1 99.35C53.0333 99.4333 52.9667 99.4833 52.9 99.5C52.8333 99.5 52.7417 99.5 52.625 99.5C52.4083 99.5 52.2083 99.4167 52.025 99.25C51.8417 99.0667 51.75 98.8417 51.75 98.575C51.75 98.4083 51.8167 98.175 51.95 97.875C52.1 97.5583 52.275 97.25 52.475 96.95C52.6917 96.6333 52.9083 96.35 53.125 96.1C53.3583 95.85 53.5583 95.6917 53.725 95.625C54.8417 94.975 56.1083 94.65 57.525 94.65C58.025 94.65 58.4417 94.725 58.775 94.875C59.125 95.025 59.4 95.225 59.6 95.475C59.8 95.725 59.9417 96.025 60.025 96.375C60.1083 96.7083 60.15 97.0667 60.15 97.45C60.15 98.4167 59.85 99.225 59.25 99.875C59.0667 100.075 58.9 100.283 58.75 100.5C58.6 100.717 58.4583 100.933 58.325 101.15C58.1917 101.35 58.0667 101.533 57.95 101.7C57.85 101.867 57.7667 101.983 57.7 102.05C57.6333 102.083 57.5333 102.175 57.4 102.325C57.2667 102.458 57.1083 102.633 56.925 102.85C56.7583 103.067 56.575 103.317 56.375 103.6C56.1917 103.867 56.0083 104.133 55.825 104.4C55.175 104.933 54.7833 105.342 54.65 105.625C55.1 105.658 55.65 105.708 56.3 105.775C56.5667 105.875 56.8333 105.925 57.1 105.925C57.2833 105.925 57.45 105.9 57.6 105.85C57.6833 105.85 57.775 105.858 57.875 105.875C57.975 105.875 58.0833 105.875 58.2 105.875C58.4833 105.875 58.7917 105.867 59.125 105.85C59.4583 105.833 59.825 105.825 60.225 105.825C60.375 105.825 60.5083 105.933 60.625 106.15C60.7417 106.35 60.8 106.567 60.8 106.8C60.8 107.15 60.7 107.367 60.5 107.45C60.3 107.533 60.1 107.575 59.9 107.575ZM74.8865 100.875C74.8532 101.258 74.7699 101.692 74.6365 102.175C74.5032 102.642 74.3449 103.117 74.1615 103.6C73.9949 104.067 73.8032 104.508 73.5865 104.925C73.3699 105.342 73.1615 105.675 72.9615 105.925C72.4449 106.308 72.0365 106.608 71.7365 106.825C71.4365 107.025 71.1782 107.175 70.9615 107.275C70.7449 107.375 70.5365 107.433 70.3365 107.45C70.1365 107.467 69.8865 107.475 69.5865 107.475C69.1532 107.475 68.6949 107.375 68.2115 107.175C67.7282 106.958 67.2782 106.675 66.8615 106.325C66.4449 105.958 66.0865 105.533 65.7865 105.05C65.4865 104.567 65.3032 104.042 65.2365 103.475C64.9532 102.625 64.8115 101.85 64.8115 101.15C64.8115 100.267 64.9949 99.4583 65.3615 98.725C65.7449 97.975 66.4032 97.2167 67.3365 96.45C67.7532 96.1 68.1615 95.8333 68.5615 95.65C68.9615 95.4667 69.3282 95.3333 69.6615 95.25C70.0115 95.15 70.3282 95.1 70.6115 95.1C70.8949 95.0833 71.1365 95.075 71.3365 95.075C71.9532 95.075 72.4699 95.1667 72.8865 95.35C73.3199 95.5333 73.6699 95.85 73.9365 96.3C74.2032 96.7333 74.4115 97.325 74.5615 98.075C74.7115 98.825 74.8199 99.7583 74.8865 100.875ZM72.9115 102.5C73.1615 101.8 73.2865 101.075 73.2865 100.325C73.2865 99.9083 73.2365 99.475 73.1365 99.025C73.0365 98.575 72.8949 98.175 72.7115 97.825C72.5449 97.4583 72.3282 97.1583 72.0615 96.925C71.8115 96.6917 71.5365 96.575 71.2365 96.575C69.1032 96.575 67.6199 97.6167 66.7865 99.7C66.6199 100.1 66.5365 100.567 66.5365 101.1C66.5365 101.517 66.6032 102.042 66.7365 102.675L66.9865 103.8C67.7699 105.183 68.6365 105.875 69.5865 105.875C70.2865 105.875 70.9199 105.583 71.4865 105C72.0532 104.417 72.5282 103.583 72.9115 102.5Z" fill="#0A2CA5"/>
<path d="M59.9 129.575C59.65 129.558 59.4583 129.55 59.325 129.55C59.2083 129.533 59.1083 129.525 59.025 129.525C58.9583 129.525 58.8917 129.525 58.825 129.525C58.7583 129.525 58.6583 129.525 58.525 129.525C58.3917 129.525 58.25 129.533 58.1 129.55C57.95 129.55 57.7917 129.55 57.625 129.55C57.2083 129.55 56.7 129.45 56.1 129.25C55.9333 129.25 55.75 129.25 55.55 129.25C55.35 129.25 55.1333 129.258 54.9 129.275C54.7167 129.242 54.4583 129.2 54.125 129.15C53.7917 129.1 53.3917 129.042 52.925 128.975C52.6417 128.692 52.5 128.425 52.5 128.175C52.5 127.942 52.5583 127.7 52.675 127.45C53.2417 126.883 53.6667 126.425 53.95 126.075C54.2333 125.725 54.475 125.417 54.675 125.15C54.875 124.867 55.0833 124.592 55.3 124.325C55.5167 124.042 55.8333 123.692 56.25 123.275C56.3167 123.208 56.4083 123.092 56.525 122.925C56.6417 122.758 56.7667 122.575 56.9 122.375C57.05 122.158 57.2 121.95 57.35 121.75C57.5 121.55 57.625 121.383 57.725 121.25C58.2417 120.667 58.5 120.008 58.5 119.275C58.5 118.925 58.4083 118.642 58.225 118.425C58.0583 118.208 57.7333 118.1 57.25 118.1C56.4 118.1 55.6833 118.3 55.1 118.7C54.5167 119.083 54.0583 119.592 53.725 120.225C53.5583 120.558 53.425 120.808 53.325 120.975C53.2417 121.142 53.1667 121.267 53.1 121.35C53.0333 121.433 52.9667 121.483 52.9 121.5C52.8333 121.5 52.7417 121.5 52.625 121.5C52.4083 121.5 52.2083 121.417 52.025 121.25C51.8417 121.067 51.75 120.842 51.75 120.575C51.75 120.408 51.8167 120.175 51.95 119.875C52.1 119.558 52.275 119.25 52.475 118.95C52.6917 118.633 52.9083 118.35 53.125 118.1C53.3583 117.85 53.5583 117.692 53.725 117.625C54.8417 116.975 56.1083 116.65 57.525 116.65C58.025 116.65 58.4417 116.725 58.775 116.875C59.125 117.025 59.4 117.225 59.6 117.475C59.8 117.725 59.9417 118.025 60.025 118.375C60.1083 118.708 60.15 119.067 60.15 119.45C60.15 120.417 59.85 121.225 59.25 121.875C59.0667 122.075 58.9 122.283 58.75 122.5C58.6 122.717 58.4583 122.933 58.325 123.15C58.1917 123.35 58.0667 123.533 57.95 123.7C57.85 123.867 57.7667 123.983 57.7 124.05C57.6333 124.083 57.5333 124.175 57.4 124.325C57.2667 124.458 57.1083 124.633 56.925 124.85C56.7583 125.067 56.575 125.317 56.375 125.6C56.1917 125.867 56.0083 126.133 55.825 126.4C55.175 126.933 54.7833 127.342 54.65 127.625C55.1 127.658 55.65 127.708 56.3 127.775C56.5667 127.875 56.8333 127.925 57.1 127.925C57.2833 127.925 57.45 127.9 57.6 127.85C57.6833 127.85 57.775 127.858 57.875 127.875C57.975 127.875 58.0833 127.875 58.2 127.875C58.4833 127.875 58.7917 127.867 59.125 127.85C59.4583 127.833 59.825 127.825 60.225 127.825C60.375 127.825 60.5083 127.933 60.625 128.15C60.7417 128.35 60.8 128.567 60.8 128.8C60.8 129.15 60.7 129.367 60.5 129.45C60.3 129.533 60.1 129.575 59.9 129.575ZM72.0615 129.85C71.8115 130.15 71.4449 130.425 70.9615 130.675C70.4949 130.942 69.9782 131.167 69.4115 131.35C68.8615 131.55 68.3032 131.708 67.7365 131.825C67.1865 131.942 66.7032 132 66.2865 132C65.8365 132 65.5199 131.942 65.3365 131.825C65.1532 131.708 65.0615 131.508 65.0615 131.225C65.0615 130.792 65.3115 130.55 65.8115 130.5C66.5115 130.433 67.0282 130.383 67.3615 130.35C67.6949 130.317 67.8699 130.3 67.8865 130.3C68.5032 130.167 69.0782 129.942 69.6115 129.625C70.1449 129.292 70.6032 128.933 70.9865 128.55C71.3699 128.15 71.6699 127.758 71.8865 127.375C72.1199 126.992 72.2365 126.683 72.2365 126.45C72.2865 126.033 72.3115 125.708 72.3115 125.475C72.3115 124.742 72.1365 124.208 71.7865 123.875C71.4365 123.542 70.9282 123.375 70.2615 123.375C69.9282 123.375 69.1532 123.508 67.9365 123.775C67.5199 123.658 67.3115 123.317 67.3115 122.75C67.3615 122.65 67.4949 122.542 67.7115 122.425C67.9282 122.292 68.1615 122.158 68.4115 122.025C68.6782 121.875 68.9365 121.733 69.1865 121.6C69.4365 121.45 69.6199 121.308 69.7365 121.175C70.4532 120.408 70.8115 119.725 70.8115 119.125C70.8115 118.258 70.1949 117.825 68.9615 117.825C68.7949 117.825 68.6449 117.833 68.5115 117.85C68.3949 117.85 68.2615 117.875 68.1115 117.925C67.9615 117.975 67.7865 118.067 67.5865 118.2C67.3865 118.317 67.1365 118.5 66.8365 118.75C66.4532 119.05 66.1782 119.308 66.0115 119.525C65.8449 119.725 65.7115 119.892 65.6115 120.025C65.5282 120.142 65.4449 120.233 65.3615 120.3C65.2782 120.35 65.1365 120.375 64.9365 120.375C64.4365 120.375 64.1865 120.075 64.1865 119.475C64.1865 119.225 64.2699 118.967 64.4365 118.7C64.6199 118.417 64.8532 118.142 65.1365 117.875C65.4365 117.592 65.7615 117.325 66.1115 117.075C66.4782 116.825 66.8532 116.6 67.2365 116.4C67.4865 116.317 67.7532 116.258 68.0365 116.225C68.3365 116.192 68.6615 116.175 69.0115 116.175C69.5782 116.175 70.0782 116.217 70.5115 116.3C70.9615 116.367 71.3365 116.508 71.6365 116.725C71.9365 116.925 72.1615 117.225 72.3115 117.625C72.4782 118.008 72.5615 118.517 72.5615 119.15C72.5615 119.367 72.5199 119.617 72.4365 119.9C72.3699 120.167 72.2199 120.492 71.9865 120.875L71.3615 121.9C71.7615 122.05 72.0865 122.175 72.3365 122.275C72.5865 122.375 72.7865 122.475 72.9365 122.575C73.0865 122.658 73.2115 122.758 73.3115 122.875C73.4115 122.975 73.5199 123.1 73.6365 123.25C74.0199 123.783 74.2115 124.425 74.2115 125.175C74.2115 126.558 73.4949 128.117 72.0615 129.85Z" fill="#0A2CA5"/>
<path d="M183.036 55.844C183.02 56.3 182.94 56.776 182.796 57.272C182.652 57.768 182.476 58.248 182.268 58.712C182.068 59.176 181.856 59.6 181.632 59.984C181.416 60.368 181.228 60.676 181.068 60.908C180.82 61.308 180.604 61.576 180.42 61.712C180.052 61.688 179.808 61.604 179.688 61.46C179.384 61.076 179.136 60.608 178.944 60.056C178.84 59.92 178.744 59.784 178.656 59.648C178.576 59.512 178.508 59.376 178.452 59.24L178.056 58.268C177.712 57.516 177.52 56.9 177.48 56.42C177.48 56.284 177.536 56.156 177.648 56.036C177.76 55.908 177.9 55.844 178.068 55.844C178.276 55.844 178.424 55.948 178.512 56.156C178.6 56.364 178.692 56.624 178.788 56.936C178.892 57.272 178.98 57.548 179.052 57.764C179.132 57.972 179.204 58.156 179.268 58.316C179.34 58.468 179.408 58.612 179.472 58.748C179.536 58.876 179.612 59.024 179.7 59.192C179.82 59.448 179.92 59.66 180 59.828C180.08 59.996 180.152 60.124 180.216 60.212C180.344 60.036 180.488 59.8 180.648 59.504C180.808 59.2 180.964 58.888 181.116 58.568C181.268 58.24 181.4 57.932 181.512 57.644C181.632 57.348 181.712 57.116 181.752 56.948C181.8 56.756 181.852 56.544 181.908 56.312C181.964 56.08 182.04 55.828 182.136 55.556C182.208 55.524 182.308 55.508 182.436 55.508C182.732 55.508 182.932 55.62 183.036 55.844ZM186.264 56.348C186.28 56.412 186.288 56.472 186.288 56.528C186.288 56.784 186.212 57 186.06 57.176C185.82 57.272 185.58 57.32 185.34 57.32C185.188 57.224 185.06 57.116 184.956 56.996C184.86 56.868 184.812 56.744 184.812 56.624C184.812 56.52 184.932 56.264 185.172 55.856C185.276 55.872 185.384 55.884 185.496 55.892C185.616 55.9 185.724 55.92 185.82 55.952C185.924 55.984 186.012 56.032 186.084 56.096C186.164 56.152 186.224 56.236 186.264 56.348ZM185.88 58.352V58.508C185.88 58.548 185.88 58.592 185.88 58.64C185.88 58.688 185.872 58.732 185.856 58.772L185.76 59.312V59.42C185.76 59.468 185.756 59.532 185.748 59.612C185.74 59.692 185.728 59.772 185.712 59.852C185.704 59.932 185.696 60.008 185.688 60.08C185.68 60.152 185.676 60.212 185.676 60.26C185.676 60.3 185.676 60.332 185.676 60.356C185.684 60.38 185.688 60.412 185.688 60.452C185.688 60.524 185.68 60.604 185.664 60.692C185.648 60.772 185.64 60.864 185.64 60.968C185.64 61.064 185.652 61.164 185.676 61.268C185.588 61.628 185.404 61.808 185.124 61.808C184.732 61.808 184.536 61.44 184.536 60.704C184.536 60.456 184.548 60.212 184.572 59.972C184.596 59.724 184.624 59.496 184.656 59.288C184.688 59.08 184.72 58.9 184.752 58.748C184.792 58.588 184.824 58.464 184.848 58.376C184.968 58.2 185.136 58.112 185.352 58.112C185.56 58.112 185.736 58.192 185.88 58.352ZM191.875 60.848C191.723 61.168 191.475 61.424 191.131 61.616C190.787 61.8 190.403 61.892 189.979 61.892C189.923 61.892 189.831 61.884 189.703 61.868C189.575 61.852 189.431 61.82 189.271 61.772C189.119 61.724 188.959 61.66 188.791 61.58C188.631 61.492 188.483 61.38 188.347 61.244C188.211 61.1 188.099 60.928 188.011 60.728C187.923 60.528 187.879 60.292 187.879 60.02C187.871 59.66 187.919 59.332 188.023 59.036C188.135 58.74 188.311 58.44 188.551 58.136L188.935 57.644C189.383 57.34 189.887 57.188 190.447 57.188C190.751 57.188 190.991 57.244 191.167 57.356C191.351 57.468 191.443 57.628 191.443 57.836C191.443 57.996 191.383 58.128 191.263 58.232C191.151 58.328 191.003 58.376 190.819 58.376C190.811 58.376 190.779 58.372 190.723 58.364C190.675 58.348 190.619 58.332 190.555 58.316C190.491 58.3 190.427 58.288 190.363 58.28C190.299 58.264 190.247 58.256 190.207 58.256C190.023 58.256 189.811 58.352 189.571 58.544C189.339 58.736 189.155 59.04 189.019 59.456C188.963 59.632 188.935 59.776 188.935 59.888C188.935 60.112 188.995 60.288 189.115 60.416C189.243 60.544 189.383 60.644 189.535 60.716C189.687 60.78 189.827 60.824 189.955 60.848C190.083 60.864 190.151 60.872 190.159 60.872C190.271 60.872 190.383 60.84 190.495 60.776C190.607 60.712 190.707 60.64 190.795 60.56C190.891 60.48 190.967 60.412 191.023 60.356C191.079 60.292 191.103 60.26 191.095 60.26C191.175 60.188 191.267 60.152 191.371 60.152C191.499 60.152 191.615 60.22 191.719 60.356C191.831 60.484 191.887 60.616 191.887 60.752C191.887 60.792 191.883 60.824 191.875 60.848ZM196.12 57.476C196.208 57.548 196.252 57.68 196.252 57.872C196.252 58.224 196.12 58.4 195.856 58.4H195.808C195.688 58.408 195.548 58.42 195.388 58.436C195.228 58.444 195.048 58.46 194.848 58.484C194.832 58.612 194.816 58.784 194.8 59C194.784 59.208 194.776 59.46 194.776 59.756C194.776 59.78 194.776 59.804 194.776 59.828C194.784 59.852 194.788 59.88 194.788 59.912V60.464C194.788 60.592 194.808 60.696 194.848 60.776C194.896 60.848 194.952 60.9 195.016 60.932L195.352 61.04C195.616 61.128 195.748 61.288 195.748 61.52C195.748 61.656 195.692 61.776 195.58 61.88C195.476 61.984 195.34 62.036 195.172 62.036C195.124 62.036 195.04 62.024 194.92 62C194.808 61.968 194.688 61.928 194.56 61.88C194.44 61.832 194.324 61.772 194.212 61.7C194.108 61.628 194.036 61.548 193.996 61.46C193.908 61.276 193.836 61.084 193.78 60.884C193.724 60.676 193.696 60.46 193.696 60.236C193.696 59.988 193.7 59.812 193.708 59.708C193.716 59.604 193.724 59.512 193.732 59.432C193.74 59.352 193.748 59.256 193.756 59.144C193.764 59.032 193.768 58.848 193.768 58.592C193.616 58.608 193.392 58.656 193.096 58.736C192.92 58.736 192.768 58.692 192.64 58.604C192.52 58.508 192.46 58.384 192.46 58.232C192.46 58.12 192.492 58.016 192.556 57.92C192.628 57.824 192.772 57.74 192.988 57.668C193.06 57.644 193.124 57.628 193.18 57.62C193.244 57.612 193.304 57.604 193.36 57.596C193.424 57.588 193.492 57.584 193.564 57.584C193.636 57.576 193.724 57.564 193.828 57.548C193.836 57.348 193.848 57.124 193.864 56.876C193.888 56.62 193.924 56.384 193.972 56.168C194.028 55.952 194.104 55.772 194.2 55.628C194.304 55.476 194.44 55.4 194.608 55.4C194.896 55.4 195.072 55.532 195.136 55.796C195.136 55.804 195.124 55.86 195.1 55.964C195.084 56.06 195.064 56.168 195.04 56.288C195.016 56.408 194.992 56.524 194.968 56.636C194.952 56.748 194.944 56.82 194.944 56.852L194.908 57.44C194.964 57.432 195.016 57.428 195.064 57.428C195.112 57.42 195.164 57.416 195.22 57.416H195.328C195.384 57.416 195.436 57.416 195.484 57.416C195.532 57.408 195.576 57.404 195.616 57.404C195.856 57.404 196.024 57.428 196.12 57.476ZM200.388 61.7C200.284 61.772 200.116 61.844 199.884 61.916C199.652 61.98 199.412 62.036 199.164 62.084L198.672 61.988C198.6 61.964 198.48 61.908 198.312 61.82C198.152 61.732 197.988 61.6 197.82 61.424C197.652 61.24 197.504 61.008 197.376 60.728C197.248 60.44 197.184 60.092 197.184 59.684C197.184 59.54 197.216 59.372 197.28 59.18C197.352 58.98 197.456 58.796 197.592 58.628C197.728 58.452 197.896 58.304 198.096 58.184C198.304 58.064 198.544 58.004 198.816 58.004C199.36 58.004 199.852 58.18 200.292 58.532C200.676 59.06 200.868 59.644 200.868 60.284C200.868 60.756 200.708 61.228 200.388 61.7ZM199.8 59.996C199.76 59.684 199.66 59.44 199.5 59.264C199.348 59.08 199.152 58.988 198.912 58.988C198.752 58.988 198.6 59.068 198.456 59.228C198.32 59.38 198.252 59.604 198.252 59.9C198.252 60.02 198.268 60.148 198.3 60.284C198.332 60.412 198.384 60.532 198.456 60.644C198.528 60.748 198.62 60.836 198.732 60.908C198.844 60.972 198.98 61.004 199.14 61.004C199.396 61.004 199.572 60.928 199.668 60.776C199.764 60.616 199.812 60.42 199.812 60.188C199.812 60.156 199.808 60.128 199.8 60.104C199.8 60.072 199.8 60.036 199.8 59.996ZM205.631 57.92C205.759 58 205.823 58.152 205.823 58.376C205.823 58.544 205.779 58.688 205.691 58.808C205.603 58.928 205.483 58.988 205.331 58.988C205.235 58.988 205.135 58.964 205.031 58.916C204.935 58.86 204.831 58.832 204.719 58.832C204.623 58.832 204.527 58.852 204.431 58.892C204.343 58.924 204.239 59 204.119 59.12L203.759 59.48C203.759 59.536 203.759 59.592 203.759 59.648C203.767 59.704 203.771 59.764 203.771 59.828C203.771 59.924 203.767 60.024 203.759 60.128C203.759 60.232 203.755 60.344 203.747 60.464L203.855 61.556C203.831 61.924 203.643 62.108 203.291 62.108C203.107 62.108 202.971 62.052 202.883 61.94C202.795 61.82 202.735 61.656 202.703 61.448C202.671 61.24 202.655 60.996 202.655 60.716C202.663 60.436 202.663 60.128 202.655 59.792C202.639 59.288 202.627 59.036 202.619 59.036V59.048C202.587 58.928 202.563 58.824 202.547 58.736C202.531 58.64 202.523 58.556 202.523 58.484C202.523 58.34 202.575 58.224 202.679 58.136C202.783 58.04 202.935 57.992 203.135 57.992C203.263 57.992 203.415 58.092 203.591 58.292C203.775 58.148 203.915 58.04 204.011 57.968C204.115 57.896 204.199 57.844 204.263 57.812C204.335 57.78 204.403 57.764 204.467 57.764C204.531 57.756 204.615 57.752 204.719 57.752C204.807 57.744 204.887 57.748 204.959 57.764C205.039 57.78 205.123 57.796 205.211 57.812L205.631 57.92ZM208.893 56.348C208.909 56.412 208.917 56.472 208.917 56.528C208.917 56.784 208.841 57 208.689 57.176C208.449 57.272 208.209 57.32 207.969 57.32C207.817 57.224 207.689 57.116 207.585 56.996C207.489 56.868 207.441 56.744 207.441 56.624C207.441 56.52 207.561 56.264 207.801 55.856C207.905 55.872 208.013 55.884 208.125 55.892C208.245 55.9 208.353 55.92 208.449 55.952C208.553 55.984 208.641 56.032 208.713 56.096C208.793 56.152 208.853 56.236 208.893 56.348ZM208.509 58.352V58.508C208.509 58.548 208.509 58.592 208.509 58.64C208.509 58.688 208.501 58.732 208.485 58.772L208.389 59.312V59.42C208.389 59.468 208.385 59.532 208.377 59.612C208.369 59.692 208.357 59.772 208.341 59.852C208.333 59.932 208.325 60.008 208.317 60.08C208.309 60.152 208.305 60.212 208.305 60.26C208.305 60.3 208.305 60.332 208.305 60.356C208.313 60.38 208.317 60.412 208.317 60.452C208.317 60.524 208.309 60.604 208.293 60.692C208.277 60.772 208.269 60.864 208.269 60.968C208.269 61.064 208.281 61.164 208.305 61.268C208.217 61.628 208.033 61.808 207.753 61.808C207.361 61.808 207.165 61.44 207.165 60.704C207.165 60.456 207.177 60.212 207.201 59.972C207.225 59.724 207.253 59.496 207.285 59.288C207.317 59.08 207.349 58.9 207.381 58.748C207.421 58.588 207.453 58.464 207.477 58.376C207.597 58.2 207.765 58.112 207.981 58.112C208.189 58.112 208.365 58.192 208.509 58.352ZM214.972 60.584C215.116 60.68 215.188 60.796 215.188 60.932C215.188 61.004 215.168 61.08 215.128 61.16C215.088 61.232 215.036 61.3 214.972 61.364C214.908 61.42 214.84 61.468 214.768 61.508C214.696 61.548 214.624 61.568 214.552 61.568C214.488 61.544 214.412 61.504 214.324 61.448C214.236 61.384 214.148 61.316 214.06 61.244C213.972 61.164 213.888 61.076 213.808 60.98C213.736 60.884 213.68 60.788 213.64 60.692L213.556 60.896C213.404 61.184 213.164 61.456 212.836 61.712C212.436 61.784 212.204 61.82 212.14 61.82C211.988 61.82 211.804 61.796 211.588 61.748L210.928 61.28C210.64 61.008 210.496 60.636 210.496 60.164C210.496 59.996 210.52 59.812 210.568 59.612C210.624 59.404 210.7 59.196 210.796 58.988C210.9 58.78 211.024 58.576 211.168 58.376C211.312 58.176 211.48 57.996 211.672 57.836C211.904 57.748 212.128 57.676 212.344 57.62C212.56 57.556 212.724 57.516 212.836 57.5C212.988 57.332 213.168 57.248 213.376 57.248C213.496 57.248 213.6 57.308 213.688 57.428C213.784 57.54 213.864 57.684 213.928 57.86C214 58.036 214.056 58.232 214.096 58.448C214.136 58.656 214.164 58.856 214.18 59.048L214.336 59.684C214.384 59.884 214.46 60.056 214.564 60.2C214.676 60.344 214.812 60.472 214.972 60.584ZM213.148 59.252C213.132 59.244 213.072 58.992 212.968 58.496C212.928 58.496 212.868 58.496 212.788 58.496C212.708 58.496 212.612 58.52 212.5 58.568C212.396 58.608 212.28 58.684 212.152 58.796C212.032 58.9 211.916 59.06 211.804 59.276C211.636 59.588 211.552 59.9 211.552 60.212C211.688 60.476 211.9 60.684 212.188 60.836C212.276 60.812 212.348 60.784 212.404 60.752C212.468 60.72 212.524 60.676 212.572 60.62C212.62 60.564 212.664 60.496 212.704 60.416C212.752 60.328 212.804 60.22 212.86 60.092C212.964 59.908 213.036 59.748 213.076 59.612C213.124 59.468 213.148 59.348 213.148 59.252ZM225.673 59.576C225.665 59.816 225.657 60.008 225.649 60.152C225.641 60.288 225.629 60.404 225.613 60.5C225.605 60.588 225.585 60.668 225.553 60.74C225.529 60.812 225.493 60.9 225.445 61.004C225.277 61.388 225.017 61.684 224.665 61.892C224.313 62.1 223.865 62.204 223.321 62.204C223.129 62.204 222.977 62.204 222.865 62.204C222.753 62.204 222.629 62.184 222.493 62.144C222.365 62.104 222.201 62.036 222.001 61.94C221.801 61.836 221.517 61.688 221.149 61.496C220.861 61.344 220.717 61.152 220.717 60.92C220.717 60.776 220.765 60.648 220.861 60.536C220.957 60.416 221.081 60.348 221.233 60.332C221.809 60.516 222.205 60.708 222.421 60.908C222.709 61.036 223.057 61.1 223.465 61.1C223.809 61.1 224.085 61 224.293 60.8C224.325 60.712 224.357 60.588 224.389 60.428C224.429 60.268 224.449 60.076 224.449 59.852C224.449 59.676 224.397 59.532 224.293 59.42C224.189 59.3 224.057 59.196 223.897 59.108C223.737 59.02 223.557 58.94 223.357 58.868C223.165 58.796 222.981 58.72 222.805 58.64C222.669 58.584 222.533 58.52 222.397 58.448C222.261 58.376 222.125 58.284 221.989 58.172C221.645 57.588 221.473 57.176 221.473 56.936C221.473 56.336 221.829 55.764 222.541 55.22C223.205 54.972 223.657 54.848 223.897 54.848C223.985 54.848 224.101 54.88 224.245 54.944C224.389 55.008 224.529 55.088 224.665 55.184C224.809 55.28 224.929 55.388 225.025 55.508C225.129 55.62 225.181 55.732 225.181 55.844C225.181 55.98 225.125 56.1 225.013 56.204C224.909 56.3 224.773 56.348 224.605 56.348C224.589 56.348 224.545 56.324 224.473 56.276C224.401 56.228 224.313 56.176 224.209 56.12C224.113 56.064 224.013 56.012 223.909 55.964C223.813 55.916 223.733 55.892 223.669 55.892C223.533 55.892 223.401 55.924 223.273 55.988C223.153 56.052 223.045 56.132 222.949 56.228C222.853 56.324 222.777 56.432 222.721 56.552C222.665 56.664 222.637 56.768 222.637 56.864C222.637 57.048 222.693 57.212 222.805 57.356C222.917 57.5 223.053 57.616 223.213 57.704L223.969 57.968C224.161 58.04 224.349 58.132 224.533 58.244C224.717 58.356 224.885 58.484 225.037 58.628C225.189 58.764 225.321 58.916 225.433 59.084C225.545 59.244 225.625 59.408 225.673 59.576ZM229.485 61.64C229.485 61.712 229.461 61.784 229.413 61.856C229.373 61.928 229.317 61.988 229.245 62.036C229.181 62.092 229.105 62.136 229.017 62.168C228.937 62.208 228.861 62.228 228.789 62.228C228.597 62.228 228.441 62.2 228.321 62.144C228.201 62.096 228.109 62.032 228.045 61.952C227.989 61.872 227.949 61.788 227.925 61.7C227.909 61.604 227.901 61.516 227.901 61.436C227.901 61.34 227.917 61.244 227.949 61.148C227.989 61.044 228.041 60.952 228.105 60.872C228.169 60.792 228.245 60.728 228.333 60.68C228.421 60.624 228.521 60.596 228.633 60.596C228.705 60.596 228.789 60.604 228.885 60.62C228.989 60.636 229.085 60.68 229.173 60.752C229.261 60.824 229.333 60.932 229.389 61.076C229.453 61.212 229.485 61.4 229.485 61.64ZM243.365 61.82C243.325 62.036 243.145 62.144 242.825 62.144C242.601 62.144 242.449 62.068 242.369 61.916C242.329 61.7 242.301 61.504 242.285 61.328C242.269 61.144 242.249 60.948 242.225 60.74C242.209 60.524 242.185 60.28 242.153 60.008C242.129 59.736 242.081 59.4 242.009 59C241.993 58.848 241.981 58.7 241.973 58.556C241.973 58.412 241.969 58.272 241.961 58.136C241.809 58.344 241.661 58.536 241.517 58.712C241.373 58.888 241.225 59.048 241.073 59.192C240.889 59.472 240.617 59.764 240.257 60.068H240.185C240.017 60.068 239.853 60.032 239.693 59.96C239.541 59.88 239.441 59.796 239.393 59.708C239.305 59.564 239.193 59.372 239.057 59.132C238.929 58.892 238.761 58.612 238.553 58.292L238.253 57.836C238.213 58.044 238.169 58.308 238.121 58.628C238.081 58.94 238.033 59.312 237.977 59.744V59.924C237.977 60.044 237.973 60.18 237.965 60.332C237.957 60.484 237.941 60.656 237.917 60.848L237.809 62.036C237.785 62.268 237.597 62.384 237.245 62.384C237.133 62.384 237.045 62.376 236.981 62.36C236.917 62.344 236.865 62.308 236.825 62.252C236.785 62.204 236.757 62.132 236.741 62.036C236.733 61.94 236.729 61.808 236.729 61.64C236.729 61.16 236.733 60.92 236.741 60.92V60.932C236.773 60.852 236.797 60.744 236.813 60.608C236.837 60.472 236.853 60.34 236.861 60.212C236.877 60.076 236.885 59.96 236.885 59.864C236.893 59.76 236.897 59.708 236.897 59.708C236.897 59.692 236.905 59.628 236.921 59.516C236.937 59.396 236.953 59.268 236.969 59.132C236.993 58.988 237.013 58.852 237.029 58.724C237.045 58.588 237.053 58.496 237.053 58.448V58.376C237.069 58.184 237.085 57.972 237.101 57.74C237.117 57.508 237.141 57.252 237.173 56.972L237.401 55.94C237.529 55.836 237.717 55.784 237.965 55.784C238.093 55.784 238.205 55.808 238.301 55.856C238.429 56.04 238.553 56.22 238.673 56.396C238.801 56.572 238.929 56.764 239.057 56.972C239.193 57.18 239.341 57.42 239.501 57.692C239.661 57.964 239.849 58.292 240.065 58.676C240.393 58.372 240.593 58.132 240.665 57.956C240.689 57.948 240.941 57.612 241.421 56.948L241.949 56.276C242.013 56.244 242.101 56.228 242.213 56.228C242.437 56.228 242.641 56.296 242.825 56.432C242.969 57.096 243.041 57.568 243.041 57.848V57.956C243.041 57.996 243.049 58.092 243.065 58.244C243.081 58.388 243.101 58.548 243.125 58.724C243.149 58.892 243.169 59.052 243.185 59.204C243.209 59.356 243.229 59.46 243.245 59.516C243.245 59.748 243.253 59.988 243.269 60.236C243.293 60.484 243.325 60.74 243.365 61.004C243.381 61.1 243.393 61.188 243.401 61.268C243.409 61.348 243.413 61.424 243.413 61.496C243.413 61.56 243.409 61.62 243.401 61.676C243.393 61.732 243.381 61.78 243.365 61.82ZM249.448 60.584C249.592 60.68 249.664 60.796 249.664 60.932C249.664 61.004 249.644 61.08 249.604 61.16C249.564 61.232 249.512 61.3 249.448 61.364C249.384 61.42 249.316 61.468 249.244 61.508C249.172 61.548 249.1 61.568 249.028 61.568C248.964 61.544 248.888 61.504 248.8 61.448C248.712 61.384 248.624 61.316 248.536 61.244C248.448 61.164 248.364 61.076 248.284 60.98C248.212 60.884 248.156 60.788 248.116 60.692L248.032 60.896C247.88 61.184 247.64 61.456 247.312 61.712C246.912 61.784 246.68 61.82 246.616 61.82C246.464 61.82 246.28 61.796 246.064 61.748L245.404 61.28C245.116 61.008 244.972 60.636 244.972 60.164C244.972 59.996 244.996 59.812 245.044 59.612C245.1 59.404 245.176 59.196 245.272 58.988C245.376 58.78 245.5 58.576 245.644 58.376C245.788 58.176 245.956 57.996 246.148 57.836C246.38 57.748 246.604 57.676 246.82 57.62C247.036 57.556 247.2 57.516 247.312 57.5C247.464 57.332 247.644 57.248 247.852 57.248C247.972 57.248 248.076 57.308 248.164 57.428C248.26 57.54 248.34 57.684 248.404 57.86C248.476 58.036 248.532 58.232 248.572 58.448C248.612 58.656 248.64 58.856 248.656 59.048L248.812 59.684C248.86 59.884 248.936 60.056 249.04 60.2C249.152 60.344 249.288 60.472 249.448 60.584ZM247.624 59.252C247.608 59.244 247.548 58.992 247.444 58.496C247.404 58.496 247.344 58.496 247.264 58.496C247.184 58.496 247.088 58.52 246.976 58.568C246.872 58.608 246.756 58.684 246.628 58.796C246.508 58.9 246.392 59.06 246.28 59.276C246.112 59.588 246.028 59.9 246.028 60.212C246.164 60.476 246.376 60.684 246.664 60.836C246.752 60.812 246.824 60.784 246.88 60.752C246.944 60.72 247 60.676 247.048 60.62C247.096 60.564 247.14 60.496 247.18 60.416C247.228 60.328 247.28 60.22 247.336 60.092C247.44 59.908 247.512 59.748 247.552 59.612C247.6 59.468 247.624 59.348 247.624 59.252ZM253.982 57.92C254.11 58 254.174 58.152 254.174 58.376C254.174 58.544 254.13 58.688 254.042 58.808C253.954 58.928 253.834 58.988 253.682 58.988C253.586 58.988 253.486 58.964 253.382 58.916C253.286 58.86 253.182 58.832 253.07 58.832C252.974 58.832 252.878 58.852 252.782 58.892C252.694 58.924 252.59 59 252.47 59.12L252.11 59.48C252.11 59.536 252.11 59.592 252.11 59.648C252.118 59.704 252.122 59.764 252.122 59.828C252.122 59.924 252.118 60.024 252.11 60.128C252.11 60.232 252.106 60.344 252.098 60.464L252.206 61.556C252.182 61.924 251.994 62.108 251.642 62.108C251.458 62.108 251.322 62.052 251.234 61.94C251.146 61.82 251.086 61.656 251.054 61.448C251.022 61.24 251.006 60.996 251.006 60.716C251.014 60.436 251.014 60.128 251.006 59.792C250.99 59.288 250.978 59.036 250.97 59.036V59.048C250.938 58.928 250.914 58.824 250.898 58.736C250.882 58.64 250.874 58.556 250.874 58.484C250.874 58.34 250.926 58.224 251.03 58.136C251.134 58.04 251.286 57.992 251.486 57.992C251.614 57.992 251.766 58.092 251.942 58.292C252.126 58.148 252.266 58.04 252.362 57.968C252.466 57.896 252.55 57.844 252.614 57.812C252.686 57.78 252.754 57.764 252.818 57.764C252.882 57.756 252.966 57.752 253.07 57.752C253.158 57.744 253.238 57.748 253.31 57.764C253.39 57.78 253.474 57.796 253.562 57.812L253.982 57.92ZM259.116 60.956C259.124 60.988 259.128 61.016 259.128 61.04C259.136 61.064 259.14 61.092 259.14 61.124C259.14 61.292 259.088 61.428 258.984 61.532C258.88 61.636 258.76 61.688 258.624 61.688C258.504 61.688 258.396 61.636 258.3 61.532C258.204 61.428 258.1 61.296 257.988 61.136C257.884 60.976 257.764 60.8 257.628 60.608C257.492 60.416 257.324 60.232 257.124 60.056C257.092 60.024 257.032 59.98 256.944 59.924C256.856 59.86 256.744 59.78 256.608 59.684L256.536 59.72C256.52 59.776 256.508 59.844 256.5 59.924C256.476 60.06 256.464 60.24 256.464 60.464C256.464 60.528 256.472 60.6 256.488 60.68C256.488 60.696 256.484 60.712 256.476 60.728C256.476 60.744 256.476 60.764 256.476 60.788C256.476 60.86 256.476 60.956 256.476 61.076C256.484 61.188 256.492 61.3 256.5 61.412C256.508 61.516 256.512 61.608 256.512 61.688C256.52 61.768 256.524 61.804 256.524 61.796C256.524 61.932 256.464 62.036 256.344 62.108C256.224 62.18 256.092 62.216 255.948 62.216C255.74 62.216 255.6 62.116 255.528 61.916C255.464 61.716 255.432 61.376 255.432 60.896C255.432 60.576 255.444 60.288 255.468 60.032C255.492 59.768 255.504 59.536 255.504 59.336V59.132C255.504 59.092 255.508 59.024 255.516 58.928C255.532 58.832 255.544 58.724 255.552 58.604C255.568 58.484 255.58 58.364 255.588 58.244C255.604 58.116 255.612 58.008 255.612 57.92V57.788C255.62 57.764 255.632 57.656 255.648 57.464C255.664 57.272 255.692 57.052 255.732 56.804C255.772 56.548 255.82 56.288 255.876 56.024C255.94 55.752 256.016 55.524 256.104 55.34C256.16 55.22 256.284 55.16 256.476 55.16C256.836 55.16 257.016 55.3 257.016 55.58C257.016 55.644 257 55.764 256.968 55.94C256.936 56.116 256.9 56.308 256.86 56.516C256.828 56.716 256.796 56.912 256.764 57.104C256.74 57.296 256.728 57.44 256.728 57.536C256.712 57.56 256.676 57.86 256.62 58.436C256.74 58.356 256.848 58.276 256.944 58.196C257.048 58.108 257.156 58.02 257.268 57.932C257.38 57.844 257.512 57.752 257.664 57.656C257.816 57.552 258.004 57.436 258.228 57.308C258.244 57.308 258.256 57.308 258.264 57.308C258.272 57.3 258.284 57.296 258.3 57.296C258.42 57.296 258.54 57.352 258.66 57.464C258.78 57.576 258.84 57.704 258.84 57.848C258.84 57.936 258.836 58 258.828 58.04C258.82 58.072 258.784 58.112 258.72 58.16C258.664 58.208 258.568 58.272 258.432 58.352C258.296 58.432 258.104 58.556 257.856 58.724C257.84 58.764 257.708 58.856 257.46 59C257.556 59.08 257.616 59.132 257.64 59.156C257.672 59.18 257.712 59.22 257.76 59.276C257.808 59.324 257.888 59.412 258 59.54C258.12 59.66 258.32 59.86 258.6 60.14C258.752 60.348 258.924 60.62 259.116 60.956ZM264.537 57.692C264.553 57.788 264.561 57.884 264.561 57.98C264.561 58.076 264.561 58.168 264.561 58.256C264.561 58.624 264.521 58.956 264.441 59.252C264.409 59.452 264.385 59.66 264.369 59.876C264.353 60.084 264.337 60.304 264.321 60.536C264.321 60.552 264.329 60.64 264.345 60.8C264.369 60.952 264.381 61.18 264.381 61.484C264.381 61.62 264.325 61.724 264.213 61.796C264.109 61.86 263.985 61.892 263.841 61.892C263.665 61.892 263.541 61.856 263.469 61.784C263.397 61.704 263.353 61.52 263.337 61.232C263.201 61.36 263.069 61.46 262.941 61.532C262.813 61.596 262.689 61.644 262.569 61.676C262.457 61.708 262.349 61.728 262.245 61.736C262.149 61.744 262.057 61.748 261.969 61.748C261.513 61.748 261.169 61.612 260.937 61.34C260.705 61.068 260.589 60.692 260.589 60.212C260.589 60.156 260.589 60.1 260.589 60.044C260.589 59.98 260.593 59.908 260.601 59.828C260.593 59.812 260.589 59.776 260.589 59.72C260.589 59.632 260.589 59.544 260.589 59.456C260.597 59.36 260.613 59.244 260.637 59.108C260.661 58.972 260.697 58.804 260.745 58.604C260.801 58.396 260.877 58.132 260.973 57.812C261.077 57.684 261.217 57.62 261.393 57.62C261.529 57.62 261.645 57.656 261.741 57.728C261.845 57.8 261.897 57.912 261.897 58.064C261.897 58.104 261.885 58.184 261.861 58.304C261.837 58.424 261.809 58.556 261.777 58.7C261.745 58.844 261.717 58.988 261.693 59.132C261.669 59.276 261.657 59.388 261.657 59.468V59.528C261.641 59.616 261.629 59.704 261.621 59.792C261.613 59.872 261.609 59.948 261.609 60.02C261.609 60.228 261.637 60.4 261.693 60.536C261.757 60.672 261.889 60.74 262.089 60.74C262.233 60.74 262.369 60.708 262.497 60.644C262.625 60.572 262.741 60.488 262.845 60.392C262.957 60.288 263.053 60.18 263.133 60.068C263.213 59.948 263.273 59.836 263.313 59.732C263.353 59.436 263.425 59.048 263.529 58.568V58.448C263.529 58.312 263.533 58.18 263.541 58.052C263.557 57.924 263.581 57.812 263.613 57.716C263.653 57.612 263.709 57.532 263.781 57.476C263.853 57.412 263.953 57.38 264.081 57.38C264.321 57.38 264.473 57.484 264.537 57.692ZM269.508 60.62C269.484 60.868 269.4 61.096 269.256 61.304C269.12 61.504 268.98 61.708 268.836 61.916C268.748 61.988 268.62 62.048 268.452 62.096C268.292 62.152 268.132 62.196 267.972 62.228C267.812 62.26 267.672 62.284 267.552 62.3C267.44 62.316 267.392 62.324 267.408 62.324C267.328 62.324 267.224 62.308 267.096 62.276C266.976 62.252 266.856 62.224 266.736 62.192C266.624 62.168 266.528 62.14 266.448 62.108C266.376 62.084 266.344 62.072 266.352 62.072C266.28 62.064 266.188 62.04 266.076 62C265.964 61.952 265.856 61.9 265.752 61.844C265.656 61.78 265.572 61.716 265.5 61.652C265.42 61.58 265.38 61.512 265.38 61.448C265.38 61.384 265.396 61.32 265.428 61.256C265.46 61.184 265.504 61.12 265.56 61.064C265.616 61 265.672 60.952 265.728 60.92C265.792 60.88 265.856 60.86 265.92 60.86L266.748 61.172C266.9 61.22 267.048 61.256 267.192 61.28C267.344 61.296 267.492 61.304 267.636 61.304C267.772 61.304 267.892 61.28 267.996 61.232C268.108 61.176 268.192 61.112 268.248 61.04L268.428 60.68C268.412 60.536 268.352 60.424 268.248 60.344C268.152 60.264 268.028 60.196 267.876 60.14C267.732 60.084 267.576 60.032 267.408 59.984C267.24 59.936 267.084 59.872 266.94 59.792L266.424 59.468C266.256 59.252 266.168 58.92 266.16 58.472C266.208 58.192 266.328 57.968 266.52 57.8C266.528 57.792 266.58 57.756 266.676 57.692C266.772 57.62 266.92 57.52 267.12 57.392C267.152 57.392 267.252 57.384 267.42 57.368C267.596 57.352 267.836 57.328 268.14 57.296C268.276 57.296 268.608 57.392 269.136 57.584C269.24 57.688 269.292 57.832 269.292 58.016C269.292 58.16 269.256 58.284 269.184 58.388C269.12 58.484 269.024 58.532 268.896 58.532C268.76 58.532 268.608 58.5 268.44 58.436C268.28 58.364 268.128 58.328 267.984 58.328C267.784 58.328 267.6 58.348 267.432 58.388C267.272 58.42 267.192 58.5 267.192 58.628C267.192 58.812 267.272 58.924 267.432 58.964C268.656 59.236 269.348 59.788 269.508 60.62ZM274.231 60.62C274.207 60.868 274.123 61.096 273.979 61.304C273.843 61.504 273.703 61.708 273.559 61.916C273.471 61.988 273.343 62.048 273.175 62.096C273.015 62.152 272.855 62.196 272.695 62.228C272.535 62.26 272.395 62.284 272.275 62.3C272.163 62.316 272.115 62.324 272.131 62.324C272.051 62.324 271.947 62.308 271.819 62.276C271.699 62.252 271.579 62.224 271.459 62.192C271.347 62.168 271.251 62.14 271.171 62.108C271.099 62.084 271.067 62.072 271.075 62.072C271.003 62.064 270.911 62.04 270.799 62C270.687 61.952 270.579 61.9 270.475 61.844C270.379 61.78 270.295 61.716 270.223 61.652C270.143 61.58 270.103 61.512 270.103 61.448C270.103 61.384 270.119 61.32 270.151 61.256C270.183 61.184 270.227 61.12 270.283 61.064C270.339 61 270.395 60.952 270.451 60.92C270.515 60.88 270.579 60.86 270.643 60.86L271.471 61.172C271.623 61.22 271.771 61.256 271.915 61.28C272.067 61.296 272.215 61.304 272.359 61.304C272.495 61.304 272.615 61.28 272.719 61.232C272.831 61.176 272.915 61.112 272.971 61.04L273.151 60.68C273.135 60.536 273.075 60.424 272.971 60.344C272.875 60.264 272.751 60.196 272.599 60.14C272.455 60.084 272.299 60.032 272.131 59.984C271.963 59.936 271.807 59.872 271.663 59.792L271.147 59.468C270.979 59.252 270.891 58.92 270.883 58.472C270.931 58.192 271.051 57.968 271.243 57.8C271.251 57.792 271.303 57.756 271.399 57.692C271.495 57.62 271.643 57.52 271.843 57.392C271.875 57.392 271.975 57.384 272.143 57.368C272.319 57.352 272.559 57.328 272.863 57.296C272.999 57.296 273.331 57.392 273.859 57.584C273.963 57.688 274.015 57.832 274.015 58.016C274.015 58.16 273.979 58.284 273.907 58.388C273.843 58.484 273.747 58.532 273.619 58.532C273.483 58.532 273.331 58.5 273.163 58.436C273.003 58.364 272.851 58.328 272.707 58.328C272.507 58.328 272.323 58.348 272.155 58.388C271.995 58.42 271.915 58.5 271.915 58.628C271.915 58.812 271.995 58.924 272.155 58.964C273.379 59.236 274.071 59.788 274.231 60.62ZM279.925 61.52C279.669 61.776 279.381 61.992 279.061 62.168C278.741 62.352 278.417 62.444 278.089 62.444C277.793 62.444 277.413 62.396 276.949 62.3C276.789 62.196 276.629 62.072 276.469 61.928C276.309 61.776 276.165 61.612 276.037 61.436C275.909 61.252 275.805 61.056 275.725 60.848C275.645 60.632 275.605 60.412 275.605 60.188C275.605 60.124 275.609 60.04 275.617 59.936C275.625 59.824 275.633 59.716 275.641 59.612C275.657 59.5 275.669 59.404 275.677 59.324C275.685 59.244 275.689 59.204 275.689 59.204C275.849 58.948 276.017 58.696 276.193 58.448C276.377 58.192 276.633 57.968 276.961 57.776C277.481 57.664 277.857 57.608 278.089 57.608C278.209 57.608 278.313 57.616 278.401 57.632C278.489 57.64 278.573 57.664 278.653 57.704C278.741 57.736 278.825 57.788 278.905 57.86C278.993 57.932 279.093 58.024 279.205 58.136C279.333 58.272 279.433 58.364 279.505 58.412C279.585 58.46 279.625 58.504 279.625 58.544C279.625 59.28 279.397 59.78 278.941 60.044C278.741 60.116 278.481 60.196 278.161 60.284C277.841 60.364 277.405 60.44 276.853 60.512C276.965 60.816 277.113 61.044 277.297 61.196C277.481 61.348 277.689 61.424 277.921 61.424C278.265 61.424 278.697 61.22 279.217 60.812C279.297 60.74 279.397 60.704 279.517 60.704C279.645 60.704 279.757 60.752 279.853 60.848C279.957 60.944 280.009 61.064 280.009 61.208C280.009 61.312 279.981 61.416 279.925 61.52ZM278.569 58.952C278.417 58.704 278.237 58.58 278.029 58.58C277.941 58.58 277.845 58.592 277.741 58.616C277.637 58.64 277.529 58.676 277.417 58.724C277.313 58.764 277.213 58.816 277.117 58.88C277.029 58.944 276.957 59.02 276.901 59.108L276.781 59.468C277.053 59.444 277.293 59.424 277.501 59.408C277.709 59.392 277.889 59.368 278.041 59.336C278.193 59.304 278.313 59.26 278.401 59.204C278.489 59.148 278.545 59.064 278.569 58.952ZM285.404 60.668V60.764C285.404 60.812 285.404 60.9 285.404 61.028C285.412 61.148 285.4 61.272 285.368 61.4C285.344 61.528 285.292 61.644 285.212 61.748C285.132 61.844 285.012 61.892 284.852 61.892C284.54 61.892 284.356 61.768 284.3 61.52C284.308 61.472 284.312 61.42 284.312 61.364C284.312 61.3 284.312 61.232 284.312 61.16C284.312 61.128 284.312 61.012 284.312 60.812C284.312 60.604 284.304 60.38 284.288 60.14C284.28 59.9 284.256 59.676 284.216 59.468C284.176 59.252 284.116 59.116 284.036 59.06C283.852 58.932 283.688 58.868 283.544 58.868C283.352 58.868 283.188 58.928 283.052 59.048C282.924 59.16 282.816 59.384 282.728 59.72C282.72 59.832 282.712 59.96 282.704 60.104C282.696 60.24 282.684 60.396 282.668 60.572C282.668 60.708 282.672 60.86 282.68 61.028C282.688 61.188 282.7 61.372 282.716 61.58C282.716 61.732 282.656 61.86 282.536 61.964C282.416 62.06 282.28 62.108 282.128 62.108C282.008 62.108 281.912 62.076 281.84 62.012C281.768 61.948 281.712 61.864 281.672 61.76C281.64 61.656 281.616 61.544 281.6 61.424C281.592 61.304 281.588 61.184 281.588 61.064C281.588 60.976 281.592 60.888 281.6 60.8C281.608 60.704 281.62 60.608 281.636 60.512L281.732 59.36L281.828 58.784C281.812 58.688 281.78 58.584 281.732 58.472C281.684 58.36 281.66 58.272 281.66 58.208C281.66 58.072 281.712 57.948 281.816 57.836C281.928 57.724 282.064 57.668 282.224 57.668C282.336 57.668 282.42 57.692 282.476 57.74C282.532 57.78 282.624 57.884 282.752 58.052C282.912 57.98 283.04 57.936 283.136 57.92C283.232 57.896 283.344 57.884 283.472 57.884C283.888 57.884 284.252 57.984 284.564 58.184C284.884 58.376 285.084 58.7 285.164 59.156C285.188 59.324 285.208 59.464 285.224 59.576C285.248 59.688 285.268 59.796 285.284 59.9C285.3 60.004 285.316 60.116 285.332 60.236C285.348 60.348 285.372 60.492 285.404 60.668Z" fill="#0A2CA5"/>
<path d="M73.2325 42.6327C73.2325 43.9726 71.9773 45.1358 71.0883 46.0248C70.7645 46.3486 69.9597 46.9036 69.5153 46.9036C68.2132 46.9036 69.7394 46.8233 70.1568 47.0618C71.0996 47.6005 72.4681 48.9478 72.5998 50.0672C72.6697 50.6611 73.1986 51.2308 73.2325 51.8072C73.2515 52.1289 73.5489 53.5381 73.5489 53.0727C73.5489 50.5764 73.8451 47.7563 76.1677 46.4291C77.228 45.8232 76.3877 46.4408 75.8865 45.9897C75.4548 45.6012 75.0739 45.1947 74.6913 44.8121C74.1611 44.2819 73.2325 42.7679 73.2325 42" stroke="#0A2CA5" stroke-linecap="round"/>
<path d="M153.233 132.633C153.233 133.973 151.977 135.136 151.088 136.025C150.765 136.349 149.96 136.904 149.515 136.904C148.213 136.904 149.739 136.823 150.157 137.062C151.1 137.601 152.468 138.948 152.6 140.067C152.67 140.661 153.199 141.231 153.233 141.807C153.251 142.129 153.549 143.538 153.549 143.073C153.549 140.576 153.845 137.756 156.168 136.429C157.228 135.823 156.388 136.441 155.886 135.99C155.455 135.601 155.074 135.195 154.691 134.812C154.161 134.282 153.233 132.768 153.233 132" stroke="#0A2CA5" stroke-linecap="round"/>
<path d="M242.233 132.633C242.233 133.973 240.977 135.136 240.088 136.025C239.765 136.349 238.96 136.904 238.515 136.904C237.213 136.904 238.739 136.823 239.157 137.062C240.1 137.601 241.468 138.948 241.6 140.067C241.67 140.661 242.199 141.231 242.233 141.807C242.251 142.129 242.549 143.538 242.549 143.073C242.549 140.576 242.845 137.756 245.168 136.429C246.228 135.823 245.388 136.441 244.886 135.99C244.455 135.601 244.074 135.195 243.691 134.812C243.161 134.282 242.233 132.768 242.233 132" stroke="#0A2CA5" stroke-linecap="round"/>
</g>
<defs>
<clipPath id="clip0_199_1004">
<rect width="297" height="165" fill="white"/>
</clipPath>
</defs>
</svg>
