<svg width="10" height="13" viewBox="0 0 10 13" fill="none" xmlns="http://www.w3.org/2000/svg">
<g clip-path="url(#clip0_84_548)">
<path d="M5.23253 1.63272C5.23253 2.97263 3.97733 4.1358 3.0883 5.02482C2.76454 5.34859 1.95972 5.90361 1.51528 5.90361C0.213186 5.90361 1.73943 5.82329 2.15679 6.06179C3.09959 6.60053 4.46811 7.94775 4.59981 9.06723C4.66968 9.66111 5.19863 10.2308 5.23253 10.8072C5.25145 11.1289 5.54889 12.5381 5.54889 12.0727C5.54889 9.57635 5.84505 6.75627 8.16767 5.42906C9.22797 4.82318 8.38765 5.44075 7.88646 4.98967C7.4548 4.60119 7.07388 4.19468 6.69131 3.8121C6.16114 3.28193 5.23253 1.76789 5.23253 1" stroke="#0A2CA5" stroke-linecap="round"/>
</g>
<defs>
<clipPath id="clip0_84_548">
<rect width="10" height="13" fill="white"/>
</clipPath>
</defs>
</svg>
