<svg width="61" height="112" viewBox="0 0 61 112" fill="none" xmlns="http://www.w3.org/2000/svg">
<path d="M27.8416 2C27.8416 6.24082 25.5363 12.913 23.1938 16.594C19.5003 22.3981 16.5312 28.7086 12.7828 34.4414C11.1392 36.9552 9.44555 39.6378 7.29845 41.7849C6.37884 42.7045 2 47.1137 2 48.4312C2 49.2021 10.7233 55.4471 11.9462 57.5873C18.4071 68.8939 25.965 79.6082 29.9331 92.3061C31.5617 97.5178 33.9549 102.391 35.5569 107.597C36.8269 111.725 36.2075 109.422 36.2075 106.575C36.2075 104.282 36.2075 101.989 36.2075 99.696C36.2075 87.9981 39.3177 79.0675 44.3876 68.9278C46.0153 65.6724 48.9467 62.0448 51.6846 59.3069C53.9425 57.049 61.1239 53.9113 56.6577 51.3593C52.7679 49.1365 48.5382 45.2848 45.4101 42.1567C43.2673 40.0138 41.0369 38.1595 39.1356 35.8357C37.5339 33.878 36.0211 30.2952 34.116 28.7711C32.079 27.1415 30.4952 20.3405 30.3514 17.8954C30.1354 14.2242 28.6782 10.0169 28.6782 6.18299" stroke="#0A2CA5" stroke-width="4" stroke-linecap="round"/>
</svg>
